<svg xmlns="http://www.w3.org/2000/svg" viewBox="0 0 788.9 130.43"><defs><style>.cls-1{fill:#fff;}</style></defs><g id="rotembrum_Image" data-name="rotembrum Image"><path class="cls-1" d="M731.57,60c-1.83,1.33-3.69,2.63-5.5,4C718.7,69.53,711.25,75,704,80.61c-6,4.72-11.92,9.67-17.76,14.65-5,4.29-9.75,8.92-14.88,13.06-1.82,1.46-4.42,2-6.7,2.84a21,21,0,0,1-2.65.69l0,.75h7.69l.08.89-4.67.7c-6.19,1-12.36.47-18.55-.15-1.77-.18-3.63.69-5.47.79-3.47.19-6.94.16-10.42.22-4.6.09-4.61-1.15-4.32-5.22.41-5.84,3.93-10.35,7.25-14.82,4-5.39,8.18-10.63,12.57-16.3l-6.73,5.78c-6.34,5.44-12.63,10.94-19,16.3-5.7,4.78-11.43,9.53-17.35,14a22.39,22.39,0,0,1-6.93,3.16c-2.1.66-2.82-1.37-3.58-2.78-3.83-7-1.76-13.22,2.57-19.23,7.22-10,16.1-18.53,24.86-27.13,4.51-4.41,9.31-8.53,14-12.78-.26-.43-.53-.85-.8-1.28l-3.44-.69,0-.92c6.56.38,13.08-1.26,20.32-.07a28.5,28.5,0,0,1-2.16,3c-11.55,11.85-23.18,23.62-34.65,35.55a70,70,0,0,0-8.07,10.09c-1,1.49-.7,3.81-1,5.75l.94.71c2.6-1.37,5.44-2.41,7.74-4.17,7.88-6,15.64-12.23,23.32-18.51,4.86-4,9.59-8.11,14.22-12.34,5-4.58,10-9.26,14.76-14.09,3.5-3.54,8-4.37,12.5-5.28C681.86,53,686,52,690.14,51.18a3.6,3.6,0,0,1,2.33.39,6.81,6.81,0,0,1-1.75.87c-3.71.7-6.26,3-8.75,5.66-6.1,6.46-12.54,12.6-18.5,19.18-7.7,8.49-15.24,17.16-21.06,27.12a20.4,20.4,0,0,0-1.7,4.74,2.24,2.24,0,0,0,1.89,3.16c5,1.06,9.32.76,13.22-3.71,8.43-9.66,17.43-18.82,26.2-28.17l26.06-27.8H697.63V51.9l28-1.19L684.51,94.17l.36.42c1.65-1.35,3.28-2.71,5-4Q706.65,77.25,723.5,64a81.25,81.25,0,0,1,10-7.29c4.07-2.28,8.12-4.82,13.2-4.79,3.52,0,7-.74,10.25-1.11L734.08,74.22l.17.2c4.06-2.75,8.06-5.6,12.19-8.23,8.45-5.37,16.56-11.34,26.08-14.83,2-.74,4-1.79,6-2.56.49-.19,1.18.14,1.78.23a6.44,6.44,0,0,1-.88,1.93c-2.66,2.74-5.6,5.22-8.07,8.12-9.2,10.83-17.7,22.2-24.44,34.73a42.66,42.66,0,0,0-4.68,13.69c-1.14,7.73,2.6,14.91,11.64,16.46,6.9,1.18,13.9,2,20.88,2.47,3.67.27,7.4-.48,11.11-.77l0,.92c-5.77.22-11.54.68-17.31.6-8.05-.1-16.1-.63-24.16-.92-5.94-.21-11.69-1.16-14.81-6.92a14.65,14.65,0,0,1-1.35-7.63c.54-7.41,3.79-14,7.8-20,5-7.6,10.27-15,15.59-22.43,2.41-3.35,5.23-6.4,8.39-10.21-1.5.79-2.43,1.18-3.26,1.73-6.77,4.53-13.75,8.77-20.2,13.7-7.87,6-16.11,11.71-22.59,19.35C710.45,98,706,100,700.77,101.43c-3.1.85-5.91,2.84-8.78,4.45-2,1.14-3.91,2.49-5.85,3.74l-.93-.88a35.18,35.18,0,0,1,3-4.15C696.79,96,705.4,87.4,714,78.81q8.52-8.53,17-17.08a11.53,11.53,0,0,0,.94-1.24Z"/><path class="cls-1" d="M504.08,30.28H494a137.91,137.91,0,0,1,25.6-1.78l.49.66a36.14,36.14,0,0,1-3,3.7c-2.87,2.78-5.94,5.36-8.76,8.17-4.92,4.9-9.68,10-14.58,14.89Q482.4,67.29,470.92,78.54C465.34,84,459.45,89.15,454,94.75c-3.44,3.55-6.23,7.73-4.46,13.17a11.55,11.55,0,0,0,10.11,8.4,117.5,117.5,0,0,0,21.45.59,57.78,57.78,0,0,0,26.21-8.85,56.23,56.23,0,0,0,19.1-19.29,19.17,19.17,0,0,0,2.82-9.1c0-6.23-4.34-9.49-9.92-10.85a107.75,107.75,0,0,0-12.06-1.74c-3.59-.44-7.2-.77-10.79-1.16V64.86c3.19,0,6.38,0,9.57,0,8.14,0,16.37.12,23.83-3.75A46.38,46.38,0,0,0,539,54.75c4.73-4.15,9.35-8.49,12.13-14.32a25.13,25.13,0,0,0,.26-21.84c-1.73-3.78-5.85-6.6-10.11-7.75a116.2,116.2,0,0,0-16.95-3.22,153.79,153.79,0,0,0-19.66-1c-5.9.11-11.79,1.13-17.69,1.73-13.1,1.34-23,8.75-32.25,17.21-5.46,5-11.29,9.84-14.69,16.58-2.56,5-4.36,10.49-6.49,15.76-.11.27-.21.54-.93.67.3-1.52.51-3.05.91-4.54,1.89-7,4-13.88,8.12-20.06,5-7.54,11.68-12.93,19.41-17.45s15.27-8.83,23.8-10.8a98.74,98.74,0,0,1,21.84-2.3c10.32,0,20.67.65,31,1.53,6.47.56,13,1.35,18.9,4.7,10.53,6,12.14,11.57,11.06,23.35-.82,8.94-6.3,15.5-12.88,21a56.16,56.16,0,0,1-12.91,8.46c-4,1.73-8.64,1.86-13,2.55A60.2,60.2,0,0,0,521,66.26c1.94.28,3.92.46,5.84.88,4.75,1,9.59,1.79,13.21,5.64a12.88,12.88,0,0,1,3.3,12c-1.49,7.12-6,12.55-11,17.55a55.29,55.29,0,0,1-25.08,14.93c-7.76,2.07-15.78,2.42-23.83,2.61-7.31.18-14.6,1.37-21.87,2.3-3.06.4-6,1.34-9.07,2-3.7.77-7.07-.29-10.16-2.21-4.46-2.77-5.91-6.84-2.8-11.72a18.38,18.38,0,0,0,2.26-4.47,8.9,8.9,0,0,0-1.92,1.13c-3.3,3.22-7.67,3.72-11.82,5a59.47,59.47,0,0,0-10.64,4.5c-5.76,3-11.62,5.44-18.34,4.86,10.33-.8,17.41-7.33,24.54-13.74,10.37-9.33,20.85-18.53,31-28.09C462,72.42,468.88,65,476,57.73c5.87-6,11.66-12,17.61-17.87C496.91,36.57,500.49,33.54,504.08,30.28Z"/><path class="cls-1" d="M262.11,59.25c-3.86-2.19-14.6-2.91-19.58,2.67C229.07,77.8,214,92,202.32,109.32c7.7-.09,13.54-3.71,20-5.16-70.36,37.08-9.27-26.67,8.54-46.09H211.72c1,32.12-34.5,47.25-61.59,51.11-18.5.84-2.88-37,7.22-42.48,11.41-8.54,40.57-16.85,53.18-10.79,4.44-5.09,8.88-10.2,13.75-15.8-.47,5.46-3.12,16.27,8.42,16.1,5.82-5.88,8.48-8.71,13.2-14.17-4.26-.3-8.64.13-13.28-.21,8.81-1,16.59-1.85,24.93-.93,4.26.5-5.83,10.55-9.05,14.56,13.23-.41,28.22.09,40.9-1.92,9.74-2,9.08,8.29,3.11,12.11-7.21,4.81-15.07,4.68-23.08,6.8,34.16-1.27,14.95,7.71,1.46,21.61,13-14.28,4.37-20.9-12.26-20.17-15.3-.74-33.91,44.6,9.48,25.51l.25.6C207,132.41,225,77,262.11,59.25Zm-72-1.35c-22.93-3.55-48.06,40.83-28.31,45.78C174.59,101.92,213.82,64.67,190.14,57.9ZM283,60.68c0-8.15-22.05,5.52-28.09,11.24C262.28,70.18,283,71.28,283,60.68Z"/><path class="cls-1" d="M146.11,119.36c-5.87-1-11.8-1.86-17.59-3.22-11.7-2.51-11.22-25.09-14.29-34.84-1.08-3-1.92-8.86-7.09-8.86s-15.53.21-15.53.21C78,85.14,61.86,103.37,45.33,112.1c5.74,0,11.59.75,17.64.75-20.3,0-40,3.59-60,5.7l-.13-.73c16.64-2.11,33-5.26,44.92-18.09,23.57-22.8,46.36-46.37,70.16-68.86l-10.18.46,0-.94,25.95-1.51a11.34,11.34,0,0,1-1.37,2.64c-9.52,10.23-21.68,18.45-29.55,30-3.18,5.53.9,9,5.95,7.7,8.81-2.48,17.8-4.61,26.26-8,13.69-5.67,27.81-17.93,30-33.35.95-7.94-4.91-15.41-11.68-17.51-33.74-10.84-73.37,1.35-95.35,29-6,8.08-9.57,17.22-13.52,26.46,3.54-19.76,15.94-37.76,32.77-48.69C91.14,7.6,108.49,5.32,125,3.67c11.48-.76,23,.6,34.31,2.51,11.06,2.11,19.61,6.56,19.61,19.18,0,18.1-18.83,32.91-33.66,37.93-11.5,3.14-23.49,4.38-35.09,7.2h12c4.07,0,4.61.3,5.36,4.17,2.39,12.45,4,25.13,8.46,37.07,1.43,4.59,6.12,5.62,10.31,6.84Z"/><path class="cls-1" d="M337,63.86c-2.19,1.61-4.39,3.2-6.57,4.83C324,73.51,317.47,78.27,311.1,83.2c-8.68,6.73-17.28,13.58-25.89,20.4a42.82,42.82,0,0,0-4,3.47c-2.44,2.44-14.25,5.05-15.75,4.92,4.75.7,8.29-.22,14.2,1.32-7.56.55-16.75,1-22.84,2.67,22-19.21,41.54-40.6,61.6-61.91h-9.83c.34-.71.44-1.11.55-1.12,7.78-.25,15.57-.49,23.35-.67A2,2,0,0,1,334,53c.17.26-.18,1.08-.51,1.43-8.57,9.09-17.13,18.19-25.78,27.19-2,2-4.25,3.77-6.38,5.65l.74.79c4.8-3.61,9.62-7.21,14.4-10.85,5.2-4,10.31-8.06,15.56-11.95,4.47-3.31,9-6.58,13.68-9.54a21.06,21.06,0,0,1,6.69-2.35c3.86-.84,7.79-1.37,11.94-2.08L340.88,76.16C355,66,369.33,56.32,385.75,50.2a13,13,0,0,1,2.72-.17c-.77,1.35-1.09,2.48-1.83,3.12-2.34,2-5.21,3.56-7.2,5.86-4.66,5.41-9.15,11-13.28,16.83a68.68,68.68,0,0,0-7.43,13.07c-2.51,6.07-5.09,12.36-6,18.78-1.22,8.55,2.35,13.2,12.17,15.5a77.2,77.2,0,0,0,27.6,1c.25,0,.52,0,.85.57-1.25.17-2.49.36-3.73.49a35,35,0,0,1-4.21.28c-6.72-.22-13.44-.55-20.16-.77-3.31-.11-6.64.12-9.94-.09-5.3-.35-10.62-.68-14.49-5.22-3.32-3.89-3-8.44-1.56-12.54a129.05,129.05,0,0,1,8.09-18.29c3.71-6.94,7.92-13.63,12.19-20.25,1.64-2.54,4-4.59,6.64-7.48-3,1.82-5.47,3.2-7.82,4.75-9.53,6.31-18.75,13-26.82,21.18-3.89,3.94-7.94,7.74-11.69,11.8-1.88,2-4.26,1.95-6.55,2.44a29.11,29.11,0,0,0-12.43,5.44,27.25,27.25,0,0,1-6.43,3.75l42.91-45.95Z"/><path class="cls-1" d="M585.87,54.36H575.08v-.8H603.2L583.51,73.63l.42.47c2.84-2.29,5.59-4.71,8.55-6.84,5.66-4.09,11.2-8.45,17.25-11.89a30.4,30.4,0,0,1,19.37-4.21c-4.65,5.78-9.48,10.68-15.59,14.38l3.57-4c-3.42-.76-6.31-.07-9.29.86-10.14,3.17-18,9.94-25.67,16.69-7.25,6.33-13.75,13.5-20.88,20a62.27,62.27,0,0,1-11.55,8.16c-2.77,1.55-6.17,2-9.27,2.92-.3.09-.54.39-.67,1.08l10.92-1.75.11.67L531,114.09l-.48-.8c9.47-9.63,19.12-19.09,28.37-28.94S577,64.26,585.87,54.36Z"/></g></svg>