<svg xmlns="http://www.w3.org/2000/svg" viewBox="0 0 2766.89 2766.89"><defs><style>.cls-1{fill:#fff;}</style></defs><g id="Layer_1" data-name="Layer 1"><path class="cls-1" d="M2517.45,1495.21a5.2,5.2,0,0,1,1.46.35c6.82,4.39,12.69,2.79,18.73-1.7l4.68-3.48,4.62-3.49,9.28-7q9.32-7,18.7-14.27c6.31-4.93,12.58-9.89,19.08-14.71,3.25-2.41,3.8-4.7-.1-8.24,1.86.31,2.73.22,3.27.59q8.31,5.63,16.49,11.54c3.79,2.74,4,6.17.14,9.43-4.33,3.74-9.17,7.09-13.94,10.68,3.29-1.13,6.39-2.47,9.63-3.3,15-3.84,28,.33,40,9.54,5.76,4.43,9.4,9.75,9.31,17.53,0,4.74-2.72,8-5.38,11.44a156.06,156.06,0,0,1-16.44,17.74c-2.89,2.72-5.94,5.33-9,7.87s-6.23,5-9.39,7.42q-6.18,4.72-12.42,9.27l-6.24,4.5-6.39,4.41c-8.52,5.83-17.05,11.49-25.51,17.08-2.87,1.92-5.82,3.79-8.79,5.64l-8.87,5.52c-5.9,3.66-11.76,7.3-17.52,11-4.28,2.79-8.76,5.52-13.05,8.36s-8.5,5.76-12.47,8.88c-8.43,6.71-14.85,15.28-17.16,25.64a37,37,0,0,0-.92,7.63,36.4,36.4,0,0,0,.5,7.52,42.19,42.19,0,0,0,5.63,14.62c1.16,1.94,3.09,3.51,4.76,5.16l9.65,9.42-1,1a37.79,37.79,0,0,1-4.52-3.43c-7.66-7.89-16.12-15.22-22.83-23.6a39.85,39.85,0,0,1-8.36-30.16,37.38,37.38,0,0,1,2.65-9.6c.66-1.49,1.36-2.94,2.12-4.35a43.76,43.76,0,0,1,2.56-4.1,69.69,69.69,0,0,1,14.12-14.3c3.39-2.63,6.77-5.13,10.3-7.51s7.15-4.65,10.83-6.87,7.42-4.41,11.17-6.61l5.63-3.33q2.74-1.68,5.49-3.42,12.17-7.74,24.35-15.92l6.07-4.13,5.95-4.21q6-4.24,11.88-8.61c5.61-4.14,11.27-8.38,16.76-12.76s10.8-8.94,16.06-13.66c6.39-5.75,11.89-12.68,17.59-19.17,1.62-1.83,1-3-.55-4.39-4.86-4.51-10.49-6.79-17-8.23-8.22-1.82-16.22-2.32-23.87,1a86.57,86.57,0,0,0-16,9.23c-3.94,2.87-7.92,5.85-11.81,8.85s-7.76,6-11.66,8.94a26.78,26.78,0,0,0-2.26,2.26c-3.87,3.74-9.28,4.06-14.35,1.54-8.22-4.08-14.58-10.23-21.31-15.87C2517.55,1496.22,2517.59,1495.79,2517.45,1495.21Z"/><path class="cls-1" d="M2576.46,1177l14-15c8.53-9.12,16-19.06,21.26-30.82a54.53,54.53,0,0,0,4.78-17.7,50.94,50.94,0,0,0-1.67-18.34,14.1,14.1,0,0,0-6.95-8.88c-10.11-5.62-20-4.73-29.09,1.68a108,108,0,0,0-17.2,15.12,122.09,122.09,0,0,0-13.86,18.08c-5.92,9.4-10.49,19.33-15.65,29.08-1.56,3-2.74,6.78-2.25,9.89,1.21,7.62,8,11.51,14.23,14.86,9.05,4.76,18.56,8.9,28,13.32a27.1,27.1,0,0,0,8.26,2.72c13.9,1.54,25.68-3,35.16-13.1a181.44,181.44,0,0,0,12.95-15.76c1.92-2.59,3.87-5.2,5.75-7.81l5.57-7.87q5.57-7.92,11.08-16l5.52-8.09c1.84-2.71,3.69-5.43,5.45-8.14l10.72-16.42q6.2-9.51,12.55-19.08c4.16-6.35,8.3-12.7,12.54-19,5-7.45,11.66-11.88,21-8.24,1,.4,2.23.06,3.36.06l.09-1.13c-9-3-18-6.32-27-8.61a14.53,14.53,0,0,0-15.06,4.88,103.73,103.73,0,0,0-9.38,11.86l-15.48,24.23c-5.23,8-10.58,16-15.86,23.87l-9.75,14.48c-3.24,4.79-6.66,9.59-10,14.32-6.74,9.48-13.43,18.77-20.45,27.84-5.87,7.51-12.88,13.83-23.51,15.22A10.39,10.39,0,0,1,2576.46,1177Zm30.84-42.72a280.31,280.31,0,0,1-18.76,26.73c-4.19,5.36-9.51,9.93-14,15-2.56,2.88-5.31,3.58-9,3.28-5.61-.47-13.08-6.26-13.78-11a12.62,12.62,0,0,1,.43-6.52,151.86,151.86,0,0,1,13.42-26.42,104.72,104.72,0,0,1,19.28-22.9,75.27,75.27,0,0,1,8.85-6.59c5.75-3.75,17.34-.78,18.14,7.78a22.22,22.22,0,0,1-.14,10.76A36.91,36.91,0,0,1,2607.3,1134.28Z"/><path class="cls-1" d="M2499.69,1484.47c6.69,4.89,14.36,7.39,22.31,3.51a144.82,144.82,0,0,0,23.18-14.2c13.64-10.28,25.81-22,39.21-33,7.27-5.93,13.6-7.69,20.91-3.08l18.74,12.12c5.37,3.44,10.72,7,16.28,10.19,12.48,7.19,25,8.55,37.55-.2,4.89-3.42,10.1-6.43,14.79-10.21,8.17-6.53,15.72-13.62,23.33-20.51-3.93-4-7.51-7.85-11.41-11.3-9.8-8.74-20-17.38-30.37-25.28-10.08-7.64-21.49-8.51-32.93-3.94a87.08,87.08,0,0,0-19.73,10.53c-10.29,7.74-20.93,15.72-23.13,30-2-1.44-3.7-2.62-5.36-3.84-5.82-4.31-11.89-6.56-19.14-3.36a55.18,55.18,0,0,0-11.37,6.93c-1.73,1.33-3.41,2.73-5.05,4.16l-5,4.33c-6,5.25-12,10.51-18,15.64-3,2.56-6,5.09-9.05,7.57s-6.24,4.88-9.41,7.23c-4.51,3.34-10.53,5.11-16.14,6.81-3.43,1-7.63.74-10.33-2.21-2.55-2.8-5.3-4.4-10.37-3.57C2486.53,1474.38,2493,1479.58,2499.69,1484.47Zm167.75-45a74.65,74.65,0,0,1-16.94,9.06c-8.17,3.19-16.21,1.44-23.82-2.47-.33-.17-.6-.43-.93-.59-1.86-.94-5.38-1.92-5.33-2.75.27-4.36-.11-9.71,2.19-12.87a79.34,79.34,0,0,1,18.13-18.21c1.73-1.22,3.51-2.37,5.36-3.44s3.69-2,5.62-2.94a65.52,65.52,0,0,1,12.34-4.25c7.52-1.78,15.21-1.39,22,3.65,1.93,1.45,3.85,2.93,5.85,4.5l6.28,5C2687.3,1423.36,2677.61,1431.85,2667.44,1439.44Z"/><path class="cls-1" d="M2710.61,1307.42c-6.14-4.44-12.06-9.23-18.45-13.06-11.33-6.77-23.71-2.56-31.82,6.4l-8.07,9-4,4.49-4.1,4.48c-5.46,6-10.92,11.85-16.46,17.58-5.32,5.5-11.09,10.44-18.87,12.13-9.3,2-18.25.67-27.14-2.36-15.37-5.22-27-15.36-38.6-25.15a48.67,48.67,0,0,0-8-5.57c-10.21-5.65-12.05-14.07-8.46-23.76,5-14.35,15.29-24.43,31.46-28.65,5.74-1.49,11,0,15.69,2.94,6.91,4.35,13.66,9,20.49,13.71l-.49.88c-.52-.09-1.17,0-1.55-.29-11.4-8.09-23.12-3.49-31.94,3.51a51.17,51.17,0,0,0-4.74,4.27,43.46,43.46,0,0,0-4.07,4.75,33.58,33.58,0,0,0-5.41,11.07,18.58,18.58,0,0,0,1.26,13.75c5,10.63,15.29,13.47,25.6,16,7.31,1.79,15.07,2.35,22.26-1.06a32,32,0,0,0,8.85-5.62c2.58-2.54,5.14-5.13,7.69-7.74l3.82-3.94,3.7-4,14.84-16.1a122.35,122.35,0,0,1,10.64-10.48c5.43-4.58,11.05-6.84,16.88-7.11a31.65,31.65,0,0,1,17.44,4.75c10.34,6,19.69,14.17,29.43,21.7a16,16,0,0,1,2.46,3.16Z"/><path class="cls-1" d="M2650.83,1212.23c1,4.94,1.61,10,2.21,15s1.18,10,1.89,15a20,20,0,0,0,2.63,8,11.2,11.2,0,0,0,6.69,4.92c4.62,1.34,12.7-1.24,15.25-5.27a33.47,33.47,0,0,0,4.18-26.92,28.31,28.31,0,0,0-4.86-9.78c-2.17-2.92-4.64-5.61-6.92-8.45-3.49-4.33-7.66-7.76-11.83-11.16-2.09-1.71-4.17-3.4-6.18-5.2-1-.9-2-1.83-2.93-2.79s-1.92-2-2.82-3c-4.2-4.89-11.23-7.14-17.08-10.56l-1,1.14-11.8,14.53c-3.93,4.79-8.09,9.54-12.22,14.17-7.08,7.85-13.63,15.88-18.26,25.19a36.43,36.43,0,0,0-4.1,21,32.46,32.46,0,0,0,3.06,10.15,33.36,33.36,0,0,0,6.74,9.27c6.87,6.78,15.39,12.12,23.17,18.19a72.72,72.72,0,0,0,6.23,4l.51-.77c-2.21-1.8-4.52-3.46-6.62-5.4-7.05-6.51-11.57-14.67-12.81-23.34a37,37,0,0,1-.32-6.58,33.84,33.84,0,0,1,.85-6.67,38.72,38.72,0,0,1,5.9-13.25c3.26-4.78,6.93-9.27,10.6-13.66l11.11-13.11c4.26-5.12,8.81-10,13.22-15.09C2647.27,1198.81,2649.52,1205.42,2650.83,1212.23Zm16.61-2.1a33.53,33.53,0,0,1,1.25,6.88c.17,2.36.18,4.74.16,7.08,0,3.64-1.73,6.8-5.66,7.41-2.6.4-6.84-3.43-7.74-6.91-.79-2.95-1.22-6-1.81-9-1.64-9-3.28-17.91-4.95-27.07C2656.35,1194.11,2664.39,1199.89,2667.44,1210.13Z"/><path class="cls-1" d="M2701.81,1359c-6.81,6-12.71,11.56-19,16.37a7.24,7.24,0,0,1-6.77.25c-7.08-4.45-13.92-9.29-20.63-14.2-3.13-2.3-5.77-1.75-8.15.54l-15.6,15.13c-5.31,5-10.64,9.9-16.09,14.6a231.1,231.1,0,0,1-22,16.53c-6,4-12.2,2.14-17.5-1.37-5.86-3.87-11.36-8.39-16.84-12.73-1.51-1.2-2.42-3.1-3.6-4.67l.94-.66c2.35,1.42,4.83,2.7,7,4.32a10.24,10.24,0,0,0,11.2,1,51.75,51.75,0,0,0,10.7-6.87q3.89-3.35,7.74-6.78c2.57-2.28,5.13-4.6,7.6-6.93l15-14.14c4.49-4.23,9-8.53,13.89-12.38,2.24-1.76,5-3.14,8.25-.48,5.36,4.48,11.22,8.38,16.74,12.78,4.45,3.55,6.5,4,11.15.36a155.32,155.32,0,0,0,13-12c1.62-1.63,2.72-2,4.71-.62,5,3.46,10.16,6.64,15.25,10C2699.6,1357.4,2700.31,1357.91,2701.81,1359Z"/><path class="cls-1" d="M1834.24,2409.78a5.27,5.27,0,0,1,.43,1.44c-.41,8.13,3.9,12.41,10.79,15.37,14.29,6.25,28.5,12.23,43.08,18.23l11.19,4.63c3.71,1.52,7.41,3.05,11.11,4.65s6,.93,7.07-4.23c.66,1.76,1.17,2.47,1.12,3.13q-.73,10-1.76,20.1c-.48,4.66-3.35,6.56-8.12,4.78-5.46-2-10.73-4.43-16.22-6.78,2.62,2.29,5.33,4.3,7.65,6.69,10.78,11,13.65,24.41,11.65,39.42a25.54,25.54,0,0,1-3.08,9.71,18.53,18.53,0,0,1-3.07,3.94,18.35,18.35,0,0,1-4.39,3.18c-4.17,2.23-8.34,1.6-12.62,1a147.45,147.45,0,0,1-23.55-5.36c-7.66-2.46-15.12-5.35-22.45-8.38q-7.17-3-14.21-6.1c-4.71-2.14-9.4-4.36-14-6.58-9.3-4.46-18.44-9-27.51-13.53-12.48-6.41-24.62-13.16-36.77-19.43-9.17-4.83-18.34-9.78-27.71-13.53-10-3.92-20.69-5.24-30.83-2a37.18,37.18,0,0,0-7.08,3,39,39,0,0,0-6.26,4.21,41.86,41.86,0,0,0-9.88,12.17c-1.1,2-1.5,4.42-2.09,6.69l-3.33,13.11L1662,2499a36.59,36.59,0,0,1,.7-5.68c3-10.62,5.13-21.57,9-31.57a39.89,39.89,0,0,1,22-22.34c12.85-5.08,25.75-2.83,38.78,2.4,2,.79,4,1.63,5.9,2.52s3.86,1.75,5.77,2.68c3.82,1.86,7.6,3.86,11.37,5.94,7.53,4.13,15,8.59,22.72,12.68q12.78,6.66,25.94,13.09c4.38,2.14,8.81,4.28,13.25,6.34s8.88,4,13.37,6a414.43,414.43,0,0,0,39.27,15.28c8.15,2.64,16.87,3.87,25.4,5.74,2.39.49,3.07-.68,3.53-2.69,1.48-6.48.64-12.51-1.34-18.83-2.51-8-6.06-15.23-12.74-20.19a78.86,78.86,0,0,0-7.76-5.06q-2-1.15-4.07-2.2c-1.38-.72-2.78-1.4-4.17-2.05-9-4.15-18.16-7.66-27.11-11.46a26.47,26.47,0,0,0-3.09-.82c-5.16-1.46-8.14-6-8.48-11.66-.56-9.17,1.59-17.77,3.11-26.45C1833.41,2410.38,1833.81,2410.2,1834.24,2409.78Z"/><path class="cls-1" d="M2139.51,2302.39c6.64,1.56,13.34,3,20,4.65,12.21,2.9,24.49,4.32,37.33,3a54.5,54.5,0,0,0,17.72-4.7,50.76,50.76,0,0,0,15.06-10.61,14.3,14.3,0,0,0,4.21-10.47c-.18-11.56-5.9-19.68-16-24.35a107.59,107.59,0,0,0-21.7-7.35c-3.67-.81-7.43-1.5-11.2-2s-7.57-.81-11.36-.95c-11.09-.43-22,.54-33,.94-3.35.15-7.23,1-9.67,3a15.09,15.09,0,0,0-5.21,9,43.08,43.08,0,0,0-.57,10.68c.41,10.22,1.57,20.54,2.46,30.92a27.26,27.26,0,0,0,1.77,8.53,41.15,41.15,0,0,0,11.47,15.59,41.82,41.82,0,0,0,17.41,8.33,183.53,183.53,0,0,0,20.1,3.33c12.88,1.57,25.62,2.57,38.64,3.6,6.48.49,13.05,1,19.55,1.4l19.59,1.07q11.35.6,22.81,1.32t22.78,1.32c9,.59,16.15,4.15,17.66,14.07.16,1.07,1.06,2,1.63,2.93l1-.48c-1.91-9.33-3.45-18.68-6.06-27.74a14.43,14.43,0,0,0-11.75-10.59,106.74,106.74,0,0,0-15-2.18l-28.77-1.29c-4.73-.2-9.57-.55-14.33-.84l-14.27-.93-17.41-1.21c-5.8-.45-11.64-1-17.41-1.51s-11.53-1.11-17.25-1.73-11.37-1.27-17.1-2.11c-9.43-1.33-18.4-4.23-24.91-12.75A9.39,9.39,0,0,1,2139.51,2302.39Zm52.41,5.39a275.9,275.9,0,0,1-32.52-2.9c-6.79-1-13.36-3.28-20-4.66-3.77-.77-5.75-2.81-7.35-6.2-2.39-5.09-1.13-14.48,2.64-17.44a13.39,13.39,0,0,1,5.89-2.86,152.29,152.29,0,0,1,29.56-1.58,105.66,105.66,0,0,1,29.48,5.29,74.15,74.15,0,0,1,10.13,4.36c6.12,3.11,9.34,14.63,2.32,19.61a22.16,22.16,0,0,1-9.39,5.25A37.79,37.79,0,0,1,2191.92,2307.78Z"/><path class="cls-1" d="M1834.69,2389c-.92,8.22.76,16.16,8.07,21.07,3.78,2.53,7.7,5,11.68,7.19a127.12,127.12,0,0,0,12.22,5.9c7.81,3.25,15.82,6.15,23.91,9s16.13,5.46,24.19,8.51c8.73,3.3,13.45,8,13.08,16.57l-1.15,22.34c-.3,6.4-.7,12.82-.7,19.25,0,7.24,1.24,13.65,4.25,19.17a28.87,28.87,0,0,0,5.86,7.51,34.37,34.37,0,0,0,8.77,5.76c5.39,2.52,10.58,5.52,16.19,7.68,4.84,1.86,9.76,3.59,14.7,5.26l7.41,2.47,7.33,2.33c1.45-5.39,3-10.45,4.08-15.57,2.62-13,5.21-25.8,6.81-38.89,1.58-12.59-3.36-22.92-13-30.53a86.71,86.71,0,0,0-18.93-11.8c-12-5.28-24.08-10.36-37.58-5.09.25-2.44.42-4.52.65-6.58.83-7.21-.25-13.6-6.63-18.28-7.34-5.34-15.76-8.1-24.08-11-7.55-2.59-15.06-5.1-22.47-7.71s-14.86-5.57-22.07-8.69c-5.13-2.23-9.67-6.54-13.92-10.55-2.61-2.46-4.45-6.24-3.24-10.07,1.14-3.62,1.16-6.8-2.09-10.78-.55,4.55-1.15,8.87-1.73,13.09S1835.14,2384.9,1834.69,2389Zm122.64,123a74.7,74.7,0,0,1-16.28-10.15c-6.83-5.47-9.32-13.32-9.73-21.89,0-.36.07-.73,0-1.1-.12-2.09-1-5.62-.28-6,3.88-2,8.39-4.87,12.3-4.41,17.48,1.81,33.33,8.45,45.65,21.57,5.29,5.63,8.81,12.53,7.75,20.8-.61,4.76-1.37,9.51-2.24,15.2-6.68-2.37-13.06-4.59-19.22-6.84-3.09-1.13-6.1-2.24-9.1-3.43S1960.26,2513.3,1957.33,2512Z"/><path class="cls-1" d="M2093.33,2483.71l.69-5.6.65-5.65c.41-3.76.74-7.52.8-11.25.2-13.22-9.6-21.85-21.39-24.38-7.85-1.63-15.84-3.42-23.69-5.14s-15.67-3.5-23.38-5.42c-7.43-1.88-14.68-4.59-20-10.42-6.4-7-9.68-15.5-11.48-24.72-3-15.74-.07-31,2.58-46a52.9,52.9,0,0,0,.89-9.65c0-5.75,1.48-10.14,4.31-13.29s7-5,12-5.92a52.11,52.11,0,0,1,11-.73,40.56,40.56,0,0,1,10.45,1.77,45.34,45.34,0,0,1,19,12c4.15,4.23,5.51,9.48,5.29,15.08-.31,8.18-1,16.41-1.63,24.66h-1c-.18-.5-.57-1-.52-1.49a21.43,21.43,0,0,0-5.06-16.62c-3.61-4.25-8.61-7.19-13.91-9.34-8.12-3.27-16.36-4.48-24.5-2.32a19.85,19.85,0,0,0-6.26,2.83,19,19,0,0,0-5.08,5c-6.7,9.67-4,20-1,30.25,2.1,7.24,5.48,14.25,12,18.77a31.56,31.56,0,0,0,9.26,4.84c7,1.92,14,3.69,21.15,5.4,3.58.88,7.12,1.68,10.67,2.46l10.69,2.38a118.57,118.57,0,0,1,14.35,4c13.35,4.81,19.24,15.36,19.16,28.57-.08,12-2.43,24.2-4.09,36.44a15.58,15.58,0,0,1-1.55,3.66Z"/><path class="cls-1" d="M2146.11,2384.45c-7.74,6.46-16,12.27-24,18.51-4.79,3.67-8.2,8-6.62,14.47,1.15,4.68,7.41,10.39,12.16,10.58a32.85,32.85,0,0,0,25.45-9.78c5.46-5.42,7.36-12.41,10-19.27,4-10.39,3.55-21.34,7.36-31.66,2.16-6.07.58-13.31.63-20.09l-1.48-.27c-6.19-1-12.32-1.91-18.48-3s-12.31-2.25-18.39-3.54c-5.15-1.09-10.29-2.06-15.43-2.67-2.58-.31-5.14-.51-7.72-.62a75.35,75.35,0,0,0-7.81,0,36.29,36.29,0,0,0-20.15,7,39.37,39.37,0,0,0-3.94,3.48,30.52,30.52,0,0,0-3.38,4.16,33.69,33.69,0,0,0-4.65,10.51,106.84,106.84,0,0,0-2.48,14.45c-.57,4.91-1.08,9.77-1.78,14.64-.35,2.43-.24,4.94-.35,7.42l.92.06c.46-2.82.72-5.68,1.38-8.44a43.78,43.78,0,0,1,2.15-6.65,42.72,42.72,0,0,1,3-6.14,36.67,36.67,0,0,1,8.67-9.93,35.58,35.58,0,0,1,11.8-6.09,38.24,38.24,0,0,1,14.39-1.52c11.53.85,22.76,3.61,34,5.48,6.55,1.12,13.07,2.61,19.65,3.89C2155.94,2374.64,2151.34,2379.9,2146.11,2384.45Zm10.1,13.36c-3.2,3.3-7.39,5.81-11.44,8.13-3.16,1.8-6.74,1.92-9.23-1.19-1.64-2.05-.45-7.66,2.11-10.19,2.17-2.14,4.53-4.09,6.89-6,1.78-1.42,3.51-2.9,5.24-4.39l5.22-4.45,10.53-9C2164.53,2380.15,2163.55,2390,2156.21,2397.81Z"/><path class="cls-1" d="M2044.27,2501.76l-12.3-4.05q-5.88-2-11.41-4.33a7.22,7.22,0,0,1-3.58-5.75c.18-4.15.48-8.28.85-12.42s.77-8.34,1.22-12.48c.42-3.88-1.37-5.89-4.53-6.8l-10.46-3-10.48-3.11c-7-2.08-13.86-4.23-20.64-6.59-4.34-1.52-8.57-3.16-12.8-5s-8.4-3.84-12.51-5.87c-6.47-3.18-7.94-9.49-7.54-15.86.22-3.5.64-7,1.14-10.43s1-6.94,1.57-10.41c.28-1.91,1.47-3.66,2.24-5.48l1,.49c0,2.76.08,5.55-.22,8.28a10.25,10.25,0,0,0,4.74,10.19,51.43,51.43,0,0,0,11.27,5.81c12.85,4.49,26.13,8.6,39.27,12.45,5.9,1.76,11.86,3.51,17.62,5.81,2.64,1.05,5.23,2.79,4.52,6.91-1.19,6.9-1.64,14-2.69,21-.85,5.65-.26,7.67,5.24,9.85a152.69,152.69,0,0,0,16.9,5.24c2.22.59,3.08,1.36,2.88,3.77-.5,6.06-.68,12.16-1,18.26C2044.51,2499.07,2044.42,2499.94,2044.27,2501.76Z"/><path class="cls-1" d="M1249.12,2494.89a5.52,5.52,0,0,1-.34,1.46c-4.4,6.82-2.8,12.7,1.69,18.73l3.48,4.69,3.49,4.61,7,9.28q7.05,9.32,14.27,18.7c4.94,6.31,9.9,12.58,14.71,19.09,2.41,3.24,4.7,3.79,8.24-.1-.31,1.85-.22,2.72-.59,3.27q-5.62,8.3-11.54,16.48c-2.74,3.79-6.17,4-9.42.15-3.75-4.34-7.1-9.18-10.69-13.95,1.13,3.3,2.47,6.4,3.3,9.63,3.84,15-.33,28-9.54,40-4.43,5.76-9.75,9.41-17.53,9.31-4.74,0-8-2.72-11.44-5.38a156.9,156.9,0,0,1-17.74-16.43c-2.72-2.89-5.33-6-7.87-9.05s-5-6.24-7.41-9.4q-4.74-6.18-9.27-12.42l-4.51-6.24-4.4-6.38c-5.84-8.52-11.49-17-17.09-25.51-1.91-2.87-3.79-5.83-5.64-8.8l-5.52-8.86c-3.66-5.9-7.3-11.76-11-17.53-2.78-4.28-5.52-8.76-8.36-13.05s-5.76-8.5-8.87-12.47c-6.72-8.42-15.29-14.84-25.65-17.16a41.17,41.17,0,0,0-15.15-.41,42.17,42.17,0,0,0-14.62,5.62c-1.93,1.17-3.5,3.09-5.16,4.76l-9.42,9.66-1-.95a36.25,36.25,0,0,1,3.43-4.52c7.89-7.66,15.23-16.13,23.6-22.84a39.86,39.86,0,0,1,30.17-8.36,37,37,0,0,1,9.59,2.66q2.23,1,4.35,2.11a46,46,0,0,1,4.1,2.56,69.69,69.69,0,0,1,14.3,14.12c2.63,3.39,5.13,6.77,7.51,10.3s4.65,7.15,6.87,10.83,4.41,7.43,6.61,11.18l3.33,5.62q1.68,2.76,3.42,5.49,7.74,12.18,15.93,24.35l4.13,6.07,4.21,6q4.23,5.94,8.6,11.88c4.15,5.61,8.38,11.26,12.76,16.76s8.94,10.8,13.66,16.06c5.75,6.38,12.68,11.89,19.17,17.58,1.83,1.63,3,1,4.39-.55,4.51-4.85,6.79-10.49,8.23-17,1.82-8.22,2.33-16.22-1-23.86a87,87,0,0,0-9.23-16c-2.87-3.94-5.85-7.91-8.84-11.81s-6-7.76-9-11.66a28.35,28.35,0,0,0-2.26-2.26c-3.74-3.87-4-9.28-1.54-14.35,4.09-8.22,10.23-14.57,15.87-21.31C1248.11,2495,1248.54,2495,1249.12,2494.89Z"/><path class="cls-1" d="M1567.33,2553.9l15,14c9.12,8.52,19.06,16,30.82,21.26a54.76,54.76,0,0,0,17.7,4.77,50.47,50.47,0,0,0,18.34-1.67,14.1,14.1,0,0,0,8.88-6.95c5.62-10.1,4.73-20-1.68-29.09a107.5,107.5,0,0,0-15.12-17.2,121.67,121.67,0,0,0-18.08-13.85c-9.4-5.92-19.33-10.49-29.08-15.66-3-1.55-6.78-2.74-9.89-2.24-7.62,1.21-11.51,7.94-14.86,14.22-4.76,9.05-8.9,18.56-13.32,28a27.25,27.25,0,0,0-2.72,8.27c-1.54,13.9,3,25.68,13.1,35.15a184.94,184.94,0,0,0,15.76,13c2.59,1.91,5.2,3.87,7.81,5.74l7.87,5.57q7.92,5.57,16,11.08l8.09,5.52c2.71,1.85,5.43,3.7,8.15,5.46l16.41,10.72q9.53,6.2,19.08,12.54c6.36,4.16,12.7,8.3,19,12.55,7.45,5,11.88,11.65,8.24,21-.4,1-.05,2.23-.05,3.35l1.12.09c3-9,6.32-18,8.61-27a14.54,14.54,0,0,0-4.88-15.07,103.65,103.65,0,0,0-11.86-9.37l-24.23-15.48c-8-5.24-16-10.58-23.87-15.86l-14.47-9.75c-4.8-3.25-9.59-6.66-14.33-10-9.48-6.74-18.77-13.43-27.84-20.45-7.51-5.87-13.83-12.88-15.22-23.51A10.39,10.39,0,0,1,1567.33,2553.9Zm42.73,30.84a279.2,279.2,0,0,1-26.74-18.76c-5.36-4.19-9.93-9.51-15-14-2.88-2.56-3.58-5.31-3.28-9.05.47-5.61,6.27-13.08,11-13.78a12.76,12.76,0,0,1,6.53.43A152.47,152.47,0,0,1,1609,2543a104.77,104.77,0,0,1,22.9,19.29,73,73,0,0,1,6.59,8.84c3.75,5.76.78,17.35-7.78,18.15a22.22,22.22,0,0,1-10.76-.15A36.54,36.54,0,0,1,1610.06,2584.74Z"/><path class="cls-1" d="M1259.86,2477.13c-4.89,6.69-7.39,14.37-3.51,22.31a145.63,145.63,0,0,0,14.2,23.19c10.28,13.64,22,25.81,33,39.2,5.93,7.28,7.69,13.61,3.08,20.92l-12.12,18.73c-3.44,5.38-7,10.73-10.19,16.28-7.19,12.49-8.55,25,.2,37.55,3.42,4.9,6.43,10.11,10.22,14.8,6.52,8.16,13.62,15.71,20.51,23.32,3.94-3.92,7.84-7.5,11.29-11.41,8.74-9.79,17.38-20,25.28-30.37,7.65-10.08,8.51-21.49,4-32.92a87.8,87.8,0,0,0-10.54-19.74c-7.74-10.28-15.72-20.92-30-23.12,1.44-2,2.62-3.71,3.85-5.37,4.31-5.82,6.55-11.88,3.35-19.14a55.1,55.1,0,0,0-6.93-11.36c-1.33-1.74-2.73-3.41-4.16-5.06s-2.88-3.33-4.33-5c-5.25-6-10.51-12-15.64-18-2.56-3-5.09-6-7.56-9.05s-4.89-6.23-7.24-9.4c-3.33-4.51-5.11-10.53-6.8-16.14-1-3.44-.75-7.63,2.2-10.33,2.8-2.56,4.4-5.3,3.57-10.37C1270,2464,1264.76,2470.39,1259.86,2477.13Zm45,167.76a73.94,73.94,0,0,1-9.06-16.95c-3.2-8.16-1.45-16.21,2.46-23.82.17-.32.43-.6.59-.92.94-1.87,1.92-5.38,2.75-5.34,4.36.28,9.71-.11,12.87,2.2a79.1,79.1,0,0,1,18.21,18.12c1.23,1.73,2.37,3.52,3.44,5.36s2,3.69,2.94,5.63a65,65,0,0,1,4.25,12.33c1.78,7.53,1.39,15.21-3.65,21.95-1.44,1.94-2.93,3.85-4.5,5.86l-5,6.27C1321,2664.74,1312.48,2655.06,1304.9,2644.89Z"/><path class="cls-1" d="M1436.91,2688.05c4.45-6.13,9.23-12.06,13.06-18.45,6.77-11.32,2.57-23.7-6.4-31.82l-9-8.07-4.49-4-4.48-4.1c-6-5.46-11.84-10.91-17.57-16.45-5.5-5.32-10.44-11.1-12.14-18.88-2-9.29-.67-18.25,2.36-27.14,5.22-15.36,15.36-27,25.15-38.59a48.15,48.15,0,0,0,5.57-8c5.65-10.2,14.07-12,23.77-8.46,14.34,5,24.42,15.29,28.64,31.46,1.49,5.74,0,11-2.93,15.69-4.36,6.92-9,13.67-13.71,20.5l-.89-.5c.09-.52,0-1.16.29-1.55,8.09-11.39,3.49-23.11-3.5-31.93a51.4,51.4,0,0,0-4.28-4.74,43.31,43.31,0,0,0-4.74-4.08,33.83,33.83,0,0,0-11.08-5.41,18.63,18.63,0,0,0-13.75,1.26c-10.63,5-13.47,15.29-16,25.61-1.79,7.31-2.34,15.06,1.06,22.26a32.2,32.2,0,0,0,5.62,8.84q3.82,3.89,7.74,7.7l3.94,3.81,4,3.71,16.11,14.84a120.87,120.87,0,0,1,10.47,10.64c4.58,5.43,6.84,11.05,7.12,16.87a31.75,31.75,0,0,1-4.76,17.44c-6,10.35-14.16,19.7-21.7,29.44a16.43,16.43,0,0,1-3.16,2.46Z"/><path class="cls-1" d="M1532.1,2628.27c-4.94,1-9.94,1.61-14.95,2.22s-10,1.18-15,1.88a20,20,0,0,0-8,2.64,11.2,11.2,0,0,0-4.92,6.68c-1.34,4.63,1.25,12.7,5.27,15.26a33.48,33.48,0,0,0,26.93,4.17,28.14,28.14,0,0,0,9.78-4.86c2.91-2.16,5.6-4.63,8.44-6.92,4.33-3.48,7.76-7.65,11.17-11.82,1.7-2.09,3.4-4.18,5.19-6.18.9-1,1.83-2,2.79-2.94s2-1.91,3-2.82c4.89-4.2,7.14-11.23,10.57-17.08l-1.15-1-14.53-11.8c-4.79-3.94-9.54-8.09-14.16-12.23-7.85-7.08-15.89-13.63-25.2-18.25a36.36,36.36,0,0,0-21-4.11,32.56,32.56,0,0,0-10.15,3.07,33.65,33.65,0,0,0-9.27,6.74c-6.78,6.87-12.12,15.38-18.19,23.16-1.52,1.92-2.67,4.15-4,6.23l.77.52c1.8-2.22,3.46-4.52,5.4-6.62,6.52-7,14.67-11.58,23.34-12.81a37.09,37.09,0,0,1,6.59-.32,34,34,0,0,1,6.67.84,38.79,38.79,0,0,1,13.24,5.91,172.27,172.27,0,0,1,13.66,10.6l13.11,11.11c5.12,4.25,10,8.81,15.1,13.21C1545.52,2624.72,1538.91,2627,1532.1,2628.27Zm2.1,16.62a34.08,34.08,0,0,1-6.88,1.24c-2.36.17-4.74.19-7.07.16-3.64,0-6.81-1.72-7.42-5.65-.4-2.6,3.43-6.85,6.92-7.75,2.94-.78,6-1.22,9-1.8l27.08-5C1550.22,2633.79,1544.44,2641.84,1534.2,2644.89Z"/><path class="cls-1" d="M1385.38,2679.25c-6-6.81-11.55-12.7-16.37-19a7.22,7.22,0,0,1-.25-6.76c4.45-7.09,9.29-13.93,14.21-20.63,2.29-3.14,1.75-5.78-.54-8.16l-15.14-15.6c-5-5.31-9.9-10.64-14.6-16.09a229.83,229.83,0,0,1-16.53-22c-4-6-2.14-12.2,1.37-17.5,3.87-5.85,8.39-11.36,12.73-16.83,1.2-1.52,3.1-2.42,4.67-3.61l.66.94c-1.42,2.36-2.7,4.83-4.32,7a10.24,10.24,0,0,0-1,11.2,51.22,51.22,0,0,0,6.87,10.7q3.35,3.9,6.78,7.74c2.28,2.58,4.6,5.14,6.93,7.61l14.14,15c4.23,4.5,8.53,9,12.38,13.89,1.76,2.25,3.15,5,.48,8.26-4.47,5.35-8.38,11.22-12.77,16.74-3.56,4.45-4,6.49-.37,11.14a153.91,153.91,0,0,0,12,13c1.62,1.63,2,2.73.61,4.71-3.45,5-6.64,10.16-10,15.26C1386.93,2677,1386.42,2677.75,1385.38,2679.25Z"/><path class="cls-1" d="M700.18,2275.75c-.43.47-.68.91-1,1.09a14,14,0,0,0-7,7.11,19.42,19.42,0,0,0-.87,9.91l2.83,23.1,1.43,11.68c.51,3.87,1.06,7.72,1.61,11.6,1.14,7.91,2.24,15.9,3.15,24,.46,4,2.12,5.7,7.19,4-1.21,1.45-1.56,2.25-2.16,2.54-6.07,3-12.09,5.73-18.23,8.49-4.25,1.89-7.29.3-8.19-4.65-1-5.69-1.6-11.44-2.35-17.33-.65,3.4-1,6.74-1.91,9.94-4.12,14.81-14.29,24.06-28.29,29.88-6.7,2.75-13.11,3.22-19.76-.79-4.06-2.44-5.63-6.33-7.28-10.31a152.79,152.79,0,0,1-7.08-23.17,234.09,234.09,0,0,1-4.07-23.55c-1.32-10.32-2.36-20.59-3.24-30.78s-1.4-20.56-2-30.69c-.88-13.82-1-27.85-1.63-41.55-.22-5.16-.48-10.27-.8-15.41s-.72-10.28-1.42-15.29a49.37,49.37,0,0,0-4.53-15.11,41.5,41.5,0,0,0-9.13-12.57,37.07,37.07,0,0,0-13-7.87,41.78,41.78,0,0,0-15.43-2.48c-2.25,0-4.57.92-6.83,1.54l-13,3.67-.46-1.32a36.43,36.43,0,0,1,5.26-2.24c10.67-2.72,21.21-6.35,31.8-8A41.3,41.3,0,0,1,590,2162a38.47,38.47,0,0,1,14.14,7,41.4,41.4,0,0,1,12,15.33,56.88,56.88,0,0,1,3.29,9.33c.86,3.26,1.48,6.67,2,10.07,2.68,16.66,1.61,34.23,2.4,51.45q.3,7.23.68,14.51L625,2277c.14,2.44.3,4.87.5,7.28q1.15,14.49,2.74,29.19c.39,3.47.76,7,1.23,10.44s1,6.91,1.51,10.38c1.07,6.92,2.3,13.87,3.74,20.81.44,2.11,1,4.21,1.56,6.3s1.3,4.1,2,6.15c1.41,4.09,2.93,8.18,4.28,12.31.76,2.34,2.1,2.35,4.06,1.75,6.32-1.93,11.1-5.66,15.58-10.54,5.69-6.19,10.12-12.88,11.1-21.18a88,88,0,0,0,.06-18.57c-.48-4.89-1.13-9.74-1.81-14.57s-1.32-9.75-1.91-14.6a26.18,26.18,0,0,0-.81-3.1c-1.3-5.25,1.14-10.1,5.85-13.22,7.63-5.06,16.11-7.46,24.35-10.44C699.25,2275.32,699.61,2275.58,700.18,2275.75Z"/><path class="cls-1" d="M946.16,2486.33c2,6.51,4.05,13,6,19.61,3.54,12.16,8.45,23.46,16,33.88a64.88,64.88,0,0,0,6,7.18c1.07,1.1,2.17,2.16,3.32,3.15s2.34,1.89,3.57,2.75a50.58,50.58,0,0,0,16.74,7.67,13.87,13.87,0,0,0,11.14-1.49c9.94-5.95,14.12-15,13.13-26a115.68,115.68,0,0,0-13.17-43.52c-2.58-4.9-5.47-9.53-8.39-14.23s-6-9.31-8.9-13.91c-1.81-2.83-4.5-5.73-7.44-6.84a15.58,15.58,0,0,0-10.39-.1,42.48,42.48,0,0,0-9.56,4.87c-8.66,5.46-17.06,11.73-25.59,17.61a26.69,26.69,0,0,0-6.48,5.72c-8.27,11.18-10.33,23.72-6.33,37.07a182.17,182.17,0,0,0,7.17,19q3.84,8.85,7.87,17.74c2.69,5.89,5.48,11.68,8.28,17.55,5.64,11.68,11.4,23.58,17.39,35.17q5.16,10.09,10.27,20.35L987,2650c4,8,4.47,16-3.38,22.3-.85.68-1.17,1.91-1.73,2.88l.93.64c7.13-6.31,14.49-12.39,21-19.12a14.5,14.5,0,0,0,3.31-15.48,103.8,103.8,0,0,0-5.59-14l-6.68-12.78c-2.21-4.24-4.41-8.46-6.56-12.79q-6.46-12.89-12.75-25.64l-3.84-7.83-3.77-7.92-7.4-15.81q-3.63-7.87-7.13-15.74c-2.3-5.3-4.52-10.65-6.68-16-3.57-8.79-5.54-18-1.41-27.88A10.64,10.64,0,0,1,946.16,2486.33Zm21.5,48.06A247.13,247.13,0,0,1,954,2504.74c-2.52-6.37-3.84-13.17-6-19.62-1.21-3.64-.44-6.37,1.7-9.46,3.22-4.62,12-8.25,16.47-6.48a12.78,12.78,0,0,1,5.38,3.75c12.24,15.54,22.09,32.8,26.27,53a74.07,74.07,0,0,1,1.29,10.94c.36,6.84-8,15.41-15.85,11.85a20.82,20.82,0,0,1-5-2.21,24.71,24.71,0,0,1-4.17-3.37A38.89,38.89,0,0,1,967.66,2534.39Z"/><path class="cls-1" d="M718.45,2265.63c-7.61,3.37-13.65,8.82-14.19,17.56a146.41,146.41,0,0,0,.64,27.29c.51,4.25,1.19,8.41,1.93,12.58s1.53,8.34,2.33,12.54l2.42,12.62,2.28,12.68c1.57,9.15-.1,15.56-7.76,19.58-6.59,3.45-13.33,6.88-19.93,10.26-5.66,2.91-11.4,5.75-16.94,8.94-12.44,7.18-19.89,17.36-18.62,32.63.24,3,.36,6,.54,9a80.06,80.06,0,0,0,.88,8.94c1.67,10.19,4,20.38,6.08,30.45,5.36-1.41,10.49-2.5,15.48-4.23,12.57-4.28,25-8.6,37.06-13.61a31.71,31.71,0,0,0,13.67-10.54,35,35,0,0,0,6.22-16,88.46,88.46,0,0,0,.82-22.44c-1.43-13-3.26-25.77-14.43-35.07,2.24-1,4.11-1.88,6-2.7,6.62-2.85,11.6-7,12.47-14.87,1-9.13-.87-17.73-2.61-26.29-1.62-7.73-3.12-15.64-4.56-23.41s-2.7-15.54-3.64-23.32c-.62-5.6.86-11.72,2.21-17.44.82-3.5,3.17-7,7.07-7.83,3.69-.8,6.44-2.37,8.26-7.18C733.74,2259.34,726,2262.27,718.45,2265.63Zm-44.91,167.79a73.82,73.82,0,0,1,.56-19.08,24,24,0,0,1,4.83-11.21,36.65,36.65,0,0,1,9.24-8.2c.3-.2.67-.31,1-.51,1.75-1.16,4.36-3.72,5.07-3.27,3.71,2.31,8.48,4.72,10,8.32a85.8,85.8,0,0,1,4.35,12.33,77.29,77.29,0,0,1,2.34,12.47,65.35,65.35,0,0,1-2.48,25.51c-2.24,7.42-6.42,13.88-14.14,17.15-4.43,1.88-8.93,3.63-14.31,5.76q-1-5.19-1.94-10.18t-1.75-9.91C675.24,2446.09,674.26,2439.75,673.54,2433.42Z"/><path class="cls-1" d="M766.08,2536.9c6.91-3,14-5.7,20.49-9.3a22.61,22.61,0,0,0,10.94-13.49,29.78,29.78,0,0,0-.5-17.28l-7.4-23.08L786,2462.31c-1.16-3.84-2.27-7.72-3.35-11.57-2.07-7.4-3.41-14.95-1-22.47,2.88-9,8.57-16.13,15.67-22.33,12.2-10.66,26.66-15.36,41.09-20.75a52.77,52.77,0,0,0,8.83-4.1c5-3,9.52-3.76,13.62-2.81s7.88,3.46,11.2,7.4a43.61,43.61,0,0,1,9,41.62c-1.58,5.7-5.46,9.51-10.43,12.14-3.62,1.92-7.32,3.8-11,5.58l-11.12,5.25-.51-.88c.34-.41.59-1,1-1.19,12.67-5.7,14.6-18.19,13-29.4-1.24-8.65-4.36-16.32-10.31-22.29a18.64,18.64,0,0,0-12.46-6c-11.77-.88-19.43,6.66-26.74,14.26-5.2,5.41-9.57,11.84-10.24,19.8-.3,3.47-.46,7.2.42,10.47,1.85,7,3.87,13.93,6,20.92l3.19,10.51c1.07,3.51,2.15,7,3.26,10.5a118.29,118.29,0,0,1,3.77,14.35c2.54,13.91-3.66,24.29-15.16,30.87a147.45,147.45,0,0,1-16.46,7.88c-5.68,2.39-11.4,4.44-17.09,6.76a16.24,16.24,0,0,1-4,.51Z"/><path class="cls-1" d="M878.38,2533c-4.73-1.72-9.4-3.63-14-5.57l-7-2.92-7-3c-5.56-2.34-11.09-3-15.86,1.55-3.49,3.34-5.3,11.6-3.08,15.79,4.51,8.52,11.5,14.66,21.17,17.18,7.43,2,14.48,0,21.65-1,11-1.67,20.28-7.64,31.13-9.51a26.33,26.33,0,0,0,9-3.83c2.88-1.78,5.74-3.89,8.69-5.57l-.5-1.41c-2.27-5.78-4.46-11.73-6.61-17.59s-4.21-11.75-6.14-17.64c-1.63-5-3.39-9.87-5.41-14.69a83.45,83.45,0,0,0-7.2-13.81,39.69,39.69,0,0,0-7.21-8.3,34.11,34.11,0,0,0-4.27-3.16,32.82,32.82,0,0,0-4.62-2.52,31.57,31.57,0,0,0-21.73-1.23,119.76,119.76,0,0,0-13.72,5c-4.51,1.91-9,4-13.58,5.81-2.29.92-4.41,2.27-6.62,3.42l.41.83c2.68-1,5.29-2.24,8-3.06a42.26,42.26,0,0,1,13.64-1.85,47,47,0,0,1,6.62.71,36.1,36.1,0,0,1,6.33,1.81,34.22,34.22,0,0,1,11.19,7.14,38.13,38.13,0,0,1,4.62,5.34,40.45,40.45,0,0,1,3.86,6.42c5,10.38,8.31,21.38,12.25,32.27,2.31,6.21,4.28,12.58,6.47,18.9C891.76,2536.64,884.86,2535.4,878.38,2533Zm-6.52,15.43c-4.46-1.14-8.75-3.45-12.78-5.79-3.14-1.82-5.05-4.85-3.6-8.55.95-2.45,6.42-4.24,9.9-3.3,2.94.79,5.82,1.84,8.68,2.9l6.41,2.39c2.13.81,4.27,1.6,6.44,2.34L900,2543a87.27,87.27,0,0,1-13.44,5.15,34.16,34.16,0,0,1-7.16,1.13A27,27,0,0,1,871.86,2548.39Z"/><path class="cls-1" d="M725.88,2503.58c-1.79-9-3.58-16.87-4.56-24.8a7.23,7.23,0,0,1,3.18-6c7.38-3.87,15-7.33,22.56-10.63,3.55-1.55,4.4-4.11,3.62-7.33l-5.21-21.2q-1.28-5.28-2.47-10.54l-1.14-5.26-1-5.33a247.52,247.52,0,0,1-3.24-27.39c-.51-7.15,4.23-11.6,9.95-14.47,6.3-3.16,12.93-5.59,19.42-8.13,1.79-.7,3.88-.52,5.83-.74l.09,1.15c-2.4,1.31-4.75,2.81-7.25,3.89a10.25,10.25,0,0,0-6.44,9.21,52.88,52.88,0,0,0,.57,12.76c2.58,13.33,5.79,26.68,8.9,40.21,1.42,6,2.93,12,3.83,18.09.42,2.8.21,5.91-3.72,7.38-6.58,2.44-12.94,5.64-19.52,8.22-5.28,2.05-6.73,3.56-5.89,9.46a143,143,0,0,0,3.94,17.2c.61,2.21.37,3.34-1.82,4.38-5.51,2.63-10.89,5.55-16.36,8.31C728.32,2502.45,727.52,2502.82,725.88,2503.58Z"/><path class="cls-1" d="M249.44,1226.57a5.2,5.2,0,0,1-1.46-.35c-6.82-4.4-12.69-2.79-18.73,1.7l-4.69,3.48-4.61,3.49-9.28,7q-9.31,7-18.7,14.26c-6.31,4.94-12.58,9.9-19.08,14.72-3.25,2.41-3.8,4.7.09,8.24-1.85-.32-2.72-.22-3.27-.6q-8.29-5.62-16.48-11.54c-3.79-2.73-4-6.16-.14-9.42,4.33-3.74,9.17-7.1,13.94-10.69-3.29,1.14-6.4,2.48-9.63,3.31-15,3.84-28-.34-39.95-9.55-5.76-4.42-9.41-9.74-9.31-17.52,0-4.74,2.72-8,5.38-11.45A156,156,0,0,1,130,1193.94c2.88-2.73,5.94-5.34,9-7.87s6.23-5,9.39-7.42q6.18-4.73,12.42-9.27l6.24-4.5,6.39-4.41c8.51-5.83,17-11.49,25.5-17.08,2.87-1.92,5.83-3.79,8.8-5.65l8.87-5.52c5.89-3.66,11.76-7.29,17.52-11,4.28-2.78,8.76-5.51,13.05-8.35s8.5-5.76,12.47-8.88c8.42-6.71,14.85-15.29,17.16-25.64a40.62,40.62,0,0,0,.41-15.15,42.09,42.09,0,0,0-5.62-14.63c-1.17-1.93-3.09-3.5-4.76-5.15L257.2,1034l.94-1a35.37,35.37,0,0,1,4.52,3.44c7.67,7.88,16.13,15.22,22.84,23.6a38.42,38.42,0,0,1,7.31,14.38,38.82,38.82,0,0,1,1.05,15.78,36.92,36.92,0,0,1-2.66,9.59q-1,2.23-2.11,4.35a42.5,42.5,0,0,1-2.56,4.1,69.73,69.73,0,0,1-14.12,14.31c-3.39,2.63-6.77,5.12-10.3,7.5s-7.15,4.65-10.83,6.88-7.43,4.41-11.17,6.61l-5.63,3.32q-2.76,1.7-5.49,3.42-12.17,7.74-24.35,15.93l-6.07,4.13-5.95,4.21q-6,4.24-11.89,8.61c-5.61,4.14-11.26,8.37-16.76,12.76s-10.79,8.93-16.05,13.66c-6.39,5.74-11.89,12.67-17.59,19.16-1.63,1.83-1,3,.55,4.4,4.86,4.51,10.49,6.79,17,8.22,8.22,1.83,16.22,2.33,23.87-1a86.38,86.38,0,0,0,16-9.24c3.94-2.87,7.92-5.84,11.81-8.84s7.76-6,11.66-8.94a26.78,26.78,0,0,0,2.26-2.26c3.87-3.75,9.28-4.06,14.35-1.54,8.22,4.08,14.57,10.23,21.31,15.87C249.34,1225.55,249.3,1226,249.44,1226.57Z"/><path class="cls-1" d="M190.43,1544.78l-14,15c-8.53,9.11-16,19-21.26,30.82a54.54,54.54,0,0,0-4.78,17.69,50.77,50.77,0,0,0,1.67,18.35,14.06,14.06,0,0,0,6.95,8.87c10.11,5.62,20,4.74,29.09-1.67a108,108,0,0,0,17.2-15.12,122.27,122.27,0,0,0,13.85-18.09c5.93-9.39,10.49-19.33,15.66-29.08,1.55-3,2.74-6.77,2.24-9.89-1.21-7.62-7.94-11.5-14.22-14.85-9-4.76-18.56-8.9-28-13.32a27.27,27.27,0,0,0-8.27-2.73c-13.89-1.54-25.68,3-35.15,13.1a183.1,183.1,0,0,0-12.95,15.77c-1.92,2.58-3.88,5.2-5.75,7.81l-5.57,7.87q-5.57,7.9-11.08,16l-5.52,8.1c-1.84,2.71-3.69,5.43-5.46,8.14L94.34,1624q-6.18,9.52-12.54,19.09c-4.16,6.35-8.3,12.69-12.54,19-5,7.44-11.66,11.88-21,8.23-1-.39-2.24,0-3.36,0l-.09,1.13c9,3,18,6.32,27,8.6a14.52,14.52,0,0,0,15.07-4.87,104.52,104.52,0,0,0,9.37-11.86l15.48-24.23c5.24-8,10.59-16,15.87-23.88l9.74-14.47c3.25-4.79,6.67-9.59,10-14.32,6.74-9.48,13.43-18.77,20.45-27.85,5.87-7.5,12.88-13.83,23.51-15.21A11,11,0,0,1,190.43,1544.78Zm-30.84,42.72a279.05,279.05,0,0,1,18.76-26.73c4.19-5.37,9.51-9.94,14-15,2.56-2.88,5.32-3.58,9-3.27,5.61.47,13.08,6.26,13.78,11a12.66,12.66,0,0,1-.43,6.53,152.22,152.22,0,0,1-13.42,26.42,104.73,104.73,0,0,1-19.29,22.89,74.14,74.14,0,0,1-8.84,6.6c-5.75,3.75-17.35.78-18.14-7.79a22.06,22.06,0,0,1,.14-10.75A36.77,36.77,0,0,1,159.59,1587.5Z"/><path class="cls-1" d="M267.2,1237.3c-6.69-4.89-14.37-7.38-22.31-3.5A144.91,144.91,0,0,0,221.7,1248c-13.63,10.28-25.8,22-39.2,33-7.27,5.92-13.61,7.69-20.92,3.08l-18.73-12.12c-5.37-3.45-10.73-7-16.28-10.2-12.48-7.18-25-8.54-37.55.2-4.9,3.43-10.1,6.43-14.79,10.22-8.17,6.53-15.72,13.62-23.33,20.51,3.93,3.95,7.51,7.84,11.41,11.3,9.79,8.73,20,17.37,30.37,25.28,10.08,7.64,21.49,8.51,32.93,3.94a87.7,87.7,0,0,0,19.73-10.53c10.28-7.74,20.92-15.72,23.13-30.05,2,1.44,3.7,2.61,5.36,3.84,5.82,4.31,11.88,6.56,19.14,3.35a54.64,54.64,0,0,0,11.36-6.92c1.74-1.34,3.41-2.74,5.06-4.16l5-4.33c6.05-5.25,12-10.52,18-15.64,3-2.56,6-5.1,9-7.57s6.23-4.89,9.4-7.23c4.51-3.34,10.53-5.12,16.14-6.81,3.44-1,7.64-.75,10.34,2.21,2.55,2.8,5.29,4.39,10.37,3.56C280.36,1247.4,273.94,1242.2,267.2,1237.3Zm-167.75,45a74.05,74.05,0,0,1,16.94-9.06c8.16-3.19,16.21-1.44,23.82,2.47.32.16.6.43.93.59,1.86.93,5.37,1.92,5.33,2.75-.27,4.36.11,9.7-2.19,12.87a79.29,79.29,0,0,1-18.13,18.2q-2.59,1.85-5.36,3.44a62.55,62.55,0,0,1-5.63,2.94,65.19,65.19,0,0,1-12.33,4.26c-7.53,1.78-15.21,1.39-22-3.65-1.94-1.45-3.85-2.93-5.85-4.5l-6.28-5C79.59,1298.42,89.27,1289.93,99.45,1282.34Z"/><path class="cls-1" d="M56.28,1414.35c6.14,4.45,12.06,9.24,18.45,13.06,11.32,6.77,23.7,2.57,31.82-6.39l8.07-9,4-4.49,4.1-4.48c5.46-6,10.92-11.84,16.45-17.57,5.32-5.5,11.1-10.44,18.88-12.14,9.3-2,18.25-.66,27.14,2.37,15.36,5.22,27,15.36,38.59,25.15a49.82,49.82,0,0,0,8,5.57c10.21,5.65,12,14.07,8.46,23.76-5,14.35-15.29,24.42-31.46,28.64-5.74,1.5-11,0-15.69-2.93-6.92-4.35-13.66-9.05-20.49-13.71l.49-.89a4.16,4.16,0,0,1,1.55.29c11.39,8.09,23.12,3.5,31.93-3.5a48.71,48.71,0,0,0,4.74-4.27,43.41,43.41,0,0,0,4.08-4.75,33.58,33.58,0,0,0,5.41-11.07,18.61,18.61,0,0,0-1.26-13.76c-5-10.63-15.29-13.47-25.6-16-7.32-1.78-15.07-2.34-22.26,1.07a32.07,32.07,0,0,0-8.85,5.61q-3.87,3.82-7.7,7.75l-3.81,3.93-3.71,4-14.84,16.11a118.14,118.14,0,0,1-10.64,10.47c-5.43,4.59-11,6.84-16.87,7.12a31.65,31.65,0,0,1-17.44-4.75c-10.34-6-19.69-14.17-29.43-21.7a16.26,16.26,0,0,1-2.46-3.16Z"/><path class="cls-1" d="M116.06,1509.55c-1-5-1.61-10-2.22-15s-1.18-10-1.88-15a19.9,19.9,0,0,0-2.64-8,11.11,11.11,0,0,0-6.68-4.92c-4.63-1.34-12.7,1.24-15.26,5.27a33.5,33.5,0,0,0-4.17,26.92,28.31,28.31,0,0,0,4.86,9.78c2.16,2.91,4.64,5.61,6.92,8.45,3.49,4.33,7.65,7.76,11.83,11.16,2.08,1.7,4.17,3.4,6.17,5.2,1,.9,2,1.82,2.94,2.79s1.92,2,2.82,3c4.2,4.89,11.23,7.15,17.08,10.57l1-1.15,11.8-14.52c3.94-4.79,8.1-9.55,12.23-14.17,7.08-7.85,13.63-15.89,18.25-25.2a36.33,36.33,0,0,0,4.11-20.94,32.48,32.48,0,0,0-3.07-10.15,33.36,33.36,0,0,0-6.74-9.27c-6.87-6.78-15.38-12.13-23.16-18.19a70.37,70.37,0,0,0-6.23-4l-.52.76c2.22,1.81,4.53,3.46,6.63,5.41,7,6.51,11.57,14.67,12.81,23.34a37.94,37.94,0,0,1,.31,6.58,33.27,33.27,0,0,1-.84,6.67,38.43,38.43,0,0,1-5.91,13.24,168.71,168.71,0,0,1-10.6,13.66L134.77,1515c-4.26,5.13-8.82,10-13.22,15.1C119.61,1523,117.37,1516.35,116.06,1509.55Zm-16.62,2.1a34.17,34.17,0,0,1-1.24-6.89c-.17-2.35-.18-4.74-.16-7.07,0-3.64,1.73-6.81,5.66-7.42,2.59-.4,6.84,3.44,7.74,6.92.78,3,1.22,6,1.8,9l5,27.07C110.54,1527.66,102.49,1521.89,99.44,1511.65Z"/><path class="cls-1" d="M65.08,1362.83c6.81-6,12.7-11.56,19-16.38a7.19,7.19,0,0,1,6.76-.24c7.09,4.44,13.93,9.28,20.63,14.2,3.14,2.3,5.78,1.75,8.16-.54l15.6-15.14c5.31-5,10.64-9.89,16.09-14.6a232.69,232.69,0,0,1,22-16.52c6-4,12.2-2.15,17.5,1.36,5.86,3.88,11.36,8.39,16.83,12.74,1.52,1.2,2.43,3.1,3.61,4.67l-.94.66c-2.36-1.43-4.83-2.71-7-4.33a10.27,10.27,0,0,0-11.2-1,52.21,52.21,0,0,0-10.7,6.88c-2.6,2.22-5.17,4.48-7.74,6.77s-5.13,4.6-7.61,6.94l-15,14.14c-4.49,4.23-9,8.53-13.89,12.38-2.24,1.76-5,3.14-8.25.47-5.36-4.47-11.22-8.37-16.74-12.77-4.46-3.55-6.5-4-11.15-.36a153.78,153.78,0,0,0-13,12c-1.63,1.63-2.73,2-4.71.61-5-3.45-10.16-6.64-15.25-10C67.29,1364.38,66.58,1363.87,65.08,1362.83Z"/><path class="cls-1" d="M468.58,677.62c-.46-.43-.91-.67-1.09-1a13.89,13.89,0,0,0-7.11-7,19.39,19.39,0,0,0-9.9-.88l-23.11,2.83L415.7,673c-3.88.5-7.72,1-11.6,1.6-7.92,1.14-15.91,2.25-24,3.15-4,.46-5.7,2.13-4,7.19-1.45-1.2-2.25-1.56-2.54-2.15-3-6.07-5.73-12.09-8.48-18.24-1.9-4.25-.31-7.29,4.65-8.18,5.68-1,11.43-1.61,17.32-2.35-3.4-.65-6.74-1-9.93-1.92-14.81-4.11-24.06-14.28-29.88-28.28-2.76-6.7-3.23-13.11.78-19.77,2.45-4,6.34-5.62,10.31-7.27a153.13,153.13,0,0,1,23.17-7.08,237.49,237.49,0,0,1,23.55-4.08c10.33-1.32,20.59-2.35,30.79-3.23s20.55-1.4,30.69-2c13.81-.88,27.84-1,41.55-1.64,5.15-.22,10.26-.48,15.4-.79s10.28-.72,15.29-1.43A49.29,49.29,0,0,0,553.88,572a41.64,41.64,0,0,0,12.57-9.12,37.2,37.2,0,0,0,7.87-13,41.74,41.74,0,0,0,2.48-15.43c0-2.25-.92-4.57-1.54-6.83l-3.67-13,1.33-.45a37,37,0,0,1,2.23,5.26c2.72,10.67,6.35,21.21,8,31.8a39,39,0,0,1,.4,8.24,40.15,40.15,0,0,1-1.18,7.93,38.57,38.57,0,0,1-7,14.14,41.19,41.19,0,0,1-15.33,12,56.88,56.88,0,0,1-9.33,3.29c-3.25.86-6.67,1.48-10.07,2-16.66,2.67-34.23,1.6-51.44,2.39q-7.23.3-14.52.69l-7.3.41q-3.68.21-7.28.51-14.5,1.14-29.19,2.73c-3.47.39-7,.76-10.45,1.24s-6.91,1-10.37,1.5c-6.93,1.08-13.88,2.3-20.82,3.74-2.11.44-4.21,1-6.3,1.57s-4.1,1.29-6.15,2c-4.09,1.41-8.17,2.93-12.31,4.27-2.34.77-2.34,2.11-1.75,4.07,1.93,6.31,5.66,11.1,10.54,15.57,6.2,5.69,12.88,10.13,21.18,11.1a87.34,87.34,0,0,0,18.57.06c4.89-.48,9.75-1.13,14.57-1.81s9.75-1.31,14.6-1.9a26.23,26.23,0,0,0,3.1-.82c5.25-1.29,10.1,1.15,13.22,5.85,5.06,7.64,7.46,16.12,10.45,24.35C469,676.7,468.75,677.05,468.58,677.62Z"/><path class="cls-1" d="M258,923.6c-6.51,2-13,4-19.61,6-12.15,3.53-23.46,8.44-33.88,16a65.93,65.93,0,0,0-7.18,6c-1.1,1.07-2.16,2.17-3.15,3.32s-1.88,2.34-2.75,3.57a50.41,50.41,0,0,0-7.66,16.75,13.83,13.83,0,0,0,1.48,11.14c6,9.93,15,14.12,26,13.12a115.67,115.67,0,0,0,43.52-13.16c4.9-2.59,9.53-5.47,14.23-8.4S278.35,972,283,969c2.82-1.81,5.72-4.5,6.83-7.45a15.52,15.52,0,0,0,.1-10.39,42.41,42.41,0,0,0-4.87-9.55c-5.46-8.67-11.73-17.07-17.6-25.59a26.57,26.57,0,0,0-5.73-6.48c-11.18-8.28-23.72-10.34-37.06-6.34a182.4,182.4,0,0,0-19,7.18q-8.85,3.84-17.74,7.86c-5.89,2.69-11.68,5.48-17.55,8.29C158.63,932.21,146.73,938,135.15,944q-10.11,5.14-20.36,10.26l-20.47,10.2c-8,4-16,4.48-22.3-3.38-.68-.85-1.91-1.16-2.88-1.73l-.64.94c6.31,7.13,12.39,14.48,19.13,21a14.5,14.5,0,0,0,15.48,3.32,105.71,105.71,0,0,0,14-5.6l12.77-6.67c4.24-2.22,8.47-4.42,12.79-6.56q12.88-6.48,25.64-12.75l7.83-3.85,7.92-3.77L199.9,938q7.89-3.64,15.74-7.13c5.3-2.3,10.65-4.53,16-6.69,8.79-3.56,18-5.53,27.88-1.4A9.35,9.35,0,0,1,258,923.6Zm-48.06,21.51a245.59,245.59,0,0,1,29.65-13.71c6.37-2.52,13.17-3.84,19.62-6,3.64-1.22,6.37-.44,9.46,1.7,4.62,3.22,8.25,12,6.49,16.46A12.86,12.86,0,0,1,271.4,949c-15.54,12.23-32.79,22.09-53,26.27a74.08,74.08,0,0,1-10.93,1.28c-6.85.37-15.42-8-11.86-15.85a21,21,0,0,1,2.21-5,24.67,24.67,0,0,1,3.38-4.17A38.8,38.8,0,0,1,209.94,945.11Z"/><path class="cls-1" d="M478.7,695.89c-3.37-7.6-8.82-13.64-17.56-14.19a147.27,147.27,0,0,0-27.29.64c-4.25.52-8.41,1.19-12.57,1.93s-8.35,1.53-12.54,2.34L396.11,689l-12.67,2.29c-9.16,1.56-15.57-.11-19.59-7.76-3.45-6.59-6.88-13.33-10.26-19.94-2.91-5.66-5.75-11.39-8.94-16.93-7.18-12.44-17.36-19.89-32.63-18.63-3,.25-6,.37-9,.54a82.75,82.75,0,0,0-8.94.89c-10.18,1.66-20.38,3.94-30.45,6.07,1.41,5.37,2.51,10.5,4.23,15.48,4.29,12.58,8.6,25,13.61,37.07A31.68,31.68,0,0,0,292,701.76,35.14,35.14,0,0,0,308,708a88.48,88.48,0,0,0,22.44.81c13-1.43,25.78-3.26,35.07-14.43,1,2.25,1.88,4.11,2.7,6,2.85,6.63,7,11.6,14.87,12.48,9.13,1,17.73-.88,26.29-2.62,7.73-1.62,15.64-3.12,23.41-4.55S448.3,703,456.08,702c5.6-.62,11.72.86,17.44,2.21,3.5.83,7,3.17,7.84,7.07.79,3.69,2.36,6.44,7.17,8.27C485,711.18,482.06,703.49,478.7,695.89ZM310.91,651a73.9,73.9,0,0,1,19.09.56,23.94,23.94,0,0,1,11.2,4.82,36.65,36.65,0,0,1,8.2,9.24c.2.31.31.68.51,1,1.16,1.75,3.72,4.37,3.28,5.08-2.32,3.7-4.73,8.47-8.33,10.05a86.54,86.54,0,0,1-12.33,4.34,76,76,0,0,1-12.47,2.34,65.35,65.35,0,0,1-25.51-2.48c-7.42-2.23-13.88-6.42-17.15-14.13-1.88-4.43-3.63-8.94-5.75-14.32l10.17-1.94,9.91-1.74C298.25,652.68,304.58,651.7,310.91,651Z"/><path class="cls-1" d="M207.43,743.53c3,6.9,5.7,14,9.3,20.48A22.61,22.61,0,0,0,230.22,775a29.7,29.7,0,0,0,17.28-.5l23.08-7.39L282,763.44c3.84-1.16,7.72-2.28,11.57-3.35,7.4-2.07,15-3.41,22.48-1,9,2.88,16.12,8.58,22.32,15.67,10.66,12.21,15.36,26.66,20.75,41.1a52.31,52.31,0,0,0,4.1,8.82c3,5,3.76,9.52,2.82,13.63s-3.47,7.87-7.41,11.19a43.62,43.62,0,0,1-41.61,9c-5.71-1.58-9.52-5.47-12.15-10.43-1.92-3.63-3.8-7.33-5.58-11l-5.25-11.11.88-.52c.41.34,1,.6,1.2,1,5.69,12.66,18.18,14.59,29.39,13,8.65-1.24,16.32-4.35,22.29-10.3a18.64,18.64,0,0,0,6-12.46c.89-11.78-6.66-19.43-14.26-26.75-5.41-5.2-11.83-9.57-19.8-10.24-3.47-.29-7.2-.46-10.47.42-7,1.85-13.93,3.87-20.92,6l-10.51,3.18c-3.51,1.08-7,2.15-10.5,3.26A117.69,117.69,0,0,1,253,796.27c-13.92,2.53-24.3-3.66-30.88-15.17a148.15,148.15,0,0,1-7.88-16.45c-2.39-5.69-4.44-11.41-6.75-17.1a16.17,16.17,0,0,1-.52-3.95Z"/><path class="cls-1" d="M211.37,855.82c1.72-4.73,3.63-9.39,5.57-14.05l2.92-7,3-6.95c2.35-5.57,3-11.09-1.54-15.87-3.35-3.48-11.61-5.29-15.8-3.07-8.52,4.51-14.66,11.49-17.18,21.16-2,7.43,0,14.48,1,21.65,1.67,11,7.64,20.28,9.52,31.14a26.15,26.15,0,0,0,3.82,9c1.78,2.89,3.9,5.75,5.57,8.7l1.41-.51c5.79-2.26,11.73-4.46,17.6-6.6s11.74-4.22,17.63-6.15c5-1.63,9.87-3.39,14.69-5.4a84.21,84.21,0,0,0,13.81-7.2,40,40,0,0,0,8.3-7.21,34.21,34.21,0,0,0,3.16-4.28,31,31,0,0,0,3.75-26.35,117.09,117.09,0,0,0-5-13.71c-1.91-4.52-4-9-5.8-13.58a74.1,74.1,0,0,0-3.43-6.62l-.83.4c1,2.68,2.24,5.3,3.07,8A42.86,42.86,0,0,1,278.45,825a45.73,45.73,0,0,1-.72,6.63,35.49,35.49,0,0,1-1.81,6.33,34.18,34.18,0,0,1-7.14,11.18,36.86,36.86,0,0,1-5.34,4.62,40.49,40.49,0,0,1-6.42,3.87c-10.37,5-21.38,8.3-32.27,12.24-6.21,2.31-12.58,4.28-18.89,6.48C207.69,869.21,208.93,862.3,211.37,855.82Zm-15.43-6.52c1.14-4.45,3.46-8.74,5.79-12.77,1.82-3.15,4.85-5,8.55-3.61,2.45,1,4.24,6.42,3.3,9.9-.79,2.95-1.84,5.83-2.9,8.69-.8,2.13-1.59,4.26-2.39,6.4s-1.6,4.27-2.34,6.44q-2.26,6.48-4.57,13.06A87.16,87.16,0,0,1,196.23,864a34.26,34.26,0,0,1-1.13-7.16A27.38,27.38,0,0,1,195.94,849.3Z"/><path class="cls-1" d="M240.75,703.32c9-1.78,16.87-3.58,24.8-4.55a7.23,7.23,0,0,1,6,3.18c3.87,7.37,7.32,15,10.62,22.56,1.55,3.54,4.11,4.4,7.34,3.62l21.2-5.22q5.26-1.27,10.53-2.46l5.26-1.15,5.33-1A245.18,245.18,0,0,1,359.2,715c7.15-.5,11.6,4.23,14.48,10,3.15,6.3,5.58,12.92,8.12,19.41.7,1.8.52,3.88.74,5.83l-1.14.1c-1.32-2.41-2.81-4.75-3.9-7.26a10.22,10.22,0,0,0-9.21-6.43,52.38,52.38,0,0,0-12.76.56c-13.32,2.58-26.67,5.79-40.21,8.91-6,1.41-12,2.92-18.09,3.83-2.8.41-5.91.21-7.37-3.73-2.45-6.58-5.65-12.94-8.23-19.51-2-5.29-3.56-6.73-9.46-5.9a141.6,141.6,0,0,0-17.2,4c-2.2.6-3.33.36-4.38-1.83-2.62-5.51-5.54-10.88-8.31-16.36C241.88,705.77,241.51,705,240.75,703.32Z"/><path class="cls-1" d="M932.65,312a5.27,5.27,0,0,1-.43-1.44c.41-8.12-3.9-12.4-10.8-15.37C907.14,288.94,892.93,283,878.35,277l-11.19-4.63c-3.71-1.52-7.41-3.06-11.11-4.66s-6-.92-7.08,4.24c-.65-1.76-1.16-2.47-1.11-3.13q.72-10,1.76-20.1c.48-4.66,3.35-6.56,8.12-4.79,5.45,2,10.73,4.44,16.22,6.78-2.62-2.28-5.33-4.29-7.65-6.68-10.79-11.05-13.66-24.42-11.65-39.42a25.76,25.76,0,0,1,3.07-9.72,18.85,18.85,0,0,1,3.08-3.93,18.08,18.08,0,0,1,4.39-3.18c4.17-2.23,8.34-1.6,12.62-1a147.35,147.35,0,0,1,23.54,5.37c7.67,2.45,15.13,5.34,22.46,8.38q7.17,3,14.21,6.1c4.71,2.13,9.4,4.36,14.05,6.58,9.29,4.45,18.44,9,27.51,13.52,12.48,6.42,24.62,13.17,36.77,19.44,9.17,4.83,18.34,9.78,27.71,13.53,10,3.92,20.69,5.24,30.83,2a37.18,37.18,0,0,0,7.08-3,40.32,40.32,0,0,0,6.26-4.21,42,42,0,0,0,9.88-12.17c1.09-2,1.49-4.42,2.09-6.7l3.33-13.1,1.38.26a36.44,36.44,0,0,1-.7,5.68c-3,10.62-5.13,21.58-9,31.58a39.89,39.89,0,0,1-22,22.34c-12.86,5.07-25.76,2.83-38.79-2.4q-3-1.18-5.89-2.52c-2-.88-3.86-1.75-5.77-2.69-3.82-1.85-7.6-3.86-11.37-5.93-7.53-4.14-15-8.59-22.72-12.69Q975.86,249.49,962.7,243c-4.38-2.13-8.81-4.27-13.26-6.33s-8.88-4-13.37-6a413.19,413.19,0,0,0-39.26-15.28c-8.15-2.65-16.87-3.88-25.4-5.74-2.4-.49-3.07.68-3.53,2.68-1.48,6.48-.64,12.51,1.34,18.84,2.51,8,6.06,15.23,12.74,20.18a78.18,78.18,0,0,0,7.75,5.07q2,1.15,4.08,2.2t4.17,2.05c9,4.15,18.16,7.65,27.11,11.45a26.88,26.88,0,0,0,3.08.83c5.17,1.45,8.15,6,8.49,11.65.56,9.18-1.59,17.78-3.11,26.45C933.48,311.39,933.08,311.58,932.65,312Z"/><path class="cls-1" d="M627.38,419.39c-6.64-1.57-13.34-3-20-4.65-12.21-2.9-24.49-4.33-37.33-3a54.5,54.5,0,0,0-17.72,4.7A50.45,50.45,0,0,0,537.24,427,14.25,14.25,0,0,0,533,437.48c.17,11.56,5.89,19.68,16,24.35a108.52,108.52,0,0,0,21.71,7.35c3.67.81,7.43,1.49,11.2,2s7.57.82,11.36,1c11.09.42,22-.54,33-.94,3.36-.15,7.24-1,9.68-3a15.06,15.06,0,0,0,5.2-9,42.63,42.63,0,0,0,.58-10.68c-.41-10.23-1.58-20.55-2.46-30.93a27.26,27.26,0,0,0-1.77-8.53A41.32,41.32,0,0,0,626,393.43a41.83,41.83,0,0,0-17.4-8.32,183.31,183.31,0,0,0-20.11-3.33c-12.88-1.57-25.61-2.57-38.63-3.61-6.48-.48-13-1-19.56-1.39l-19.58-1.08q-11.36-.6-22.82-1.31t-22.78-1.32c-9-.59-16.14-4.15-17.65-14.07-.16-1.08-1.07-2-1.63-2.94l-1,.49c1.91,9.33,3.45,18.68,6.06,27.74a14.46,14.46,0,0,0,11.74,10.59,107.07,107.07,0,0,0,15,2.17l28.76,1.29c4.74.21,9.58.56,14.34.84l14.27.94,17.41,1.21c5.8.44,11.64,1,17.41,1.51s11.53,1.11,17.24,1.73,11.38,1.27,17.11,2.1c9.43,1.33,18.39,4.24,24.9,12.76A10.34,10.34,0,0,1,627.38,419.39ZM575,414a275.54,275.54,0,0,1,32.51,2.89c6.8,1,13.36,3.29,20,4.66,3.77.78,5.75,2.82,7.35,6.21,2.39,5.09,1.13,14.48-2.64,17.44a13.39,13.39,0,0,1-5.89,2.86,151.5,151.5,0,0,1-29.56,1.57,105.58,105.58,0,0,1-29.48-5.28A73,73,0,0,1,557.17,440c-6.13-3.1-9.35-14.63-2.32-19.6a22.16,22.16,0,0,1,9.39-5.25A37.43,37.43,0,0,1,575,414Z"/><path class="cls-1" d="M932.2,332.76c.92-8.21-.76-16.15-8.07-21.07-3.78-2.52-7.7-5-11.68-7.18a127,127,0,0,0-12.22-5.9c-7.81-3.26-15.82-6.15-23.91-9s-16.13-5.45-24.19-8.5c-8.74-3.3-13.45-8-13.08-16.58l1.14-22.34c.31-6.39.71-12.82.71-19.24,0-7.24-1.25-13.65-4.25-19.17a29.08,29.08,0,0,0-5.86-7.51,34.11,34.11,0,0,0-8.77-5.76c-5.39-2.52-10.59-5.52-16.2-7.68-4.84-1.86-9.76-3.59-14.69-5.27l-7.41-2.46-7.33-2.33c-1.45,5.39-3,10.45-4.08,15.57-2.63,13-5.21,25.8-6.81,38.88-1.58,12.6,3.35,22.92,13,30.54a87.18,87.18,0,0,0,18.93,11.8c12,5.28,24.09,10.36,37.59,5.08-.26,2.45-.42,4.53-.66,6.58-.82,7.22.26,13.61,6.64,18.28,7.33,5.34,15.76,8.11,24.07,11,7.55,2.59,15.07,5.1,22.48,7.7s14.85,5.58,22.07,8.7c5.13,2.22,9.67,6.54,13.92,10.55,2.61,2.45,4.45,6.23,3.24,10.06-1.15,3.63-1.16,6.81,2.08,10.79.56-4.55,1.16-8.88,1.73-13.1S931.74,336.88,932.2,332.76Zm-122.64-123a74.7,74.7,0,0,1,16.28,10.15c6.83,5.47,9.32,13.32,9.73,21.88,0,.37-.07.74-.05,1.1.12,2.09,1,5.63.28,6-3.88,2-8.39,4.88-12.3,4.41-17.48-1.81-33.34-8.44-45.65-21.56-5.29-5.63-8.81-12.53-7.75-20.81.6-4.75,1.37-9.5,2.24-15.2,6.68,2.38,13.06,4.6,19.22,6.85,3.08,1.13,6.1,2.24,9.1,3.43S806.63,208.48,809.56,209.77Z"/><path class="cls-1" d="M673.55,238.07l-.68,5.59-.65,5.66c-.41,3.76-.74,7.51-.8,11.25-.21,13.22,9.6,21.84,21.39,24.37,7.85,1.63,15.84,3.43,23.69,5.14s15.67,3.51,23.38,5.43c7.42,1.88,14.68,4.58,20,10.42,6.39,7,9.67,15.49,11.47,24.71,3,15.75.08,31-2.57,46a52.9,52.9,0,0,0-.89,9.65c0,5.74-1.49,10.14-4.31,13.28s-7,5-12,5.93a52.11,52.11,0,0,1-11,.73A40.56,40.56,0,0,1,730,404.44a45.34,45.34,0,0,1-19-12c-4.16-4.23-5.51-9.48-5.29-15.08.31-8.19,1-16.41,1.62-24.66h1c.18.5.56,1,.52,1.48A21.43,21.43,0,0,0,714,370.83c3.61,4.24,8.62,7.18,13.91,9.33,8.12,3.27,16.37,4.49,24.51,2.32a19.68,19.68,0,0,0,6.25-2.82,18.92,18.92,0,0,0,5.09-5.05c6.7-9.66,4-20,1-30.25-2.1-7.24-5.48-14.24-12-18.76a31.83,31.83,0,0,0-9.26-4.85c-7-1.91-14-3.68-21.16-5.4-3.57-.87-7.12-1.67-10.66-2.45L701,310.52a119.23,119.23,0,0,1-14.36-4c-13.34-4.81-19.24-15.36-19.15-28.57.08-12,2.43-24.21,4.09-36.44a16,16,0,0,1,1.54-3.66Z"/><path class="cls-1" d="M620.78,337.32c7.73-6.45,16-12.27,23.94-18.5,4.8-3.68,8.21-8.05,6.63-14.47-1.15-4.69-7.41-10.39-12.16-10.58a32.8,32.8,0,0,0-25.45,9.78c-5.46,5.42-7.37,12.4-10,19.27-4,10.38-3.55,21.34-7.36,31.65-2.16,6.07-.59,13.32-.63,20.09l1.48.28c6.19,1,12.32,1.9,18.48,3s12.31,2.25,18.38,3.54c5.16,1.09,10.3,2.06,15.44,2.67,2.57.31,5.13.51,7.72.61a75.35,75.35,0,0,0,7.81,0,36.22,36.22,0,0,0,20.14-6.95,40.79,40.79,0,0,0,4-3.48,30.52,30.52,0,0,0,3.38-4.16,34,34,0,0,0,4.65-10.51,107.39,107.39,0,0,0,2.48-14.45c.57-4.91,1.07-9.77,1.77-14.64a73.15,73.15,0,0,0,.36-7.42l-.92-.07c-.46,2.83-.72,5.69-1.38,8.45a43.78,43.78,0,0,1-2.15,6.65,42.09,42.09,0,0,1-3,6.13,36.58,36.58,0,0,1-8.68,9.94,35.23,35.23,0,0,1-11.79,6.08,38.47,38.47,0,0,1-14.4,1.53c-11.53-.85-22.75-3.61-34-5.48-6.56-1.12-13.07-2.62-19.65-3.89C611,347.14,615.55,341.87,620.78,337.32ZM610.67,324c3.21-3.3,7.4-5.82,11.44-8.13,3.17-1.8,6.75-1.92,9.24,1.18,1.64,2.05.45,7.66-2.12,10.19-2.17,2.14-4.53,4.1-6.89,6-1.77,1.43-3.51,2.91-5.24,4.4l-5.21,4.45-10.53,9C602.36,341.63,603.34,331.75,610.67,324Z"/><path class="cls-1" d="M722.62,220l12.3,4.06c3.92,1.32,7.73,2.76,11.4,4.33a7.23,7.23,0,0,1,3.59,5.75c-.18,4.15-.49,8.28-.85,12.41s-.77,8.34-1.22,12.49c-.43,3.88,1.36,5.89,4.53,6.8l10.46,3,10.48,3.1c7,2.09,13.85,4.24,20.63,6.59,4.34,1.52,8.58,3.16,12.81,5s8.4,3.85,12.51,5.87c6.46,3.19,7.93,9.5,7.54,15.86-.22,3.51-.64,7-1.14,10.44s-1,6.94-1.57,10.4c-.28,1.92-1.47,3.66-2.24,5.48l-1-.48c0-2.76-.08-5.55.22-8.29a10.26,10.26,0,0,0-4.75-10.19A51.41,51.41,0,0,0,805,306.82c-12.84-4.48-26.12-8.59-39.27-12.44-5.89-1.77-11.85-3.52-17.61-5.81-2.64-1.05-5.23-2.8-4.52-6.92,1.19-6.9,1.64-13.94,2.69-20.94.85-5.65.26-7.67-5.24-9.85a153.36,153.36,0,0,0-16.9-5.24c-2.22-.59-3.08-1.37-2.88-3.78.5-6.06.68-12.15,1-18.26C722.38,222.71,722.47,221.84,722.62,220Z"/><path class="cls-1" d="M2066.71,446c.43-.47.67-.91,1-1.09a13.9,13.9,0,0,0,7-7.12,19.26,19.26,0,0,0,.88-9.9l-2.83-23.1-1.43-11.68c-.51-3.88-1.06-7.72-1.61-11.6-1.14-7.92-2.24-15.9-3.15-24-.46-4-2.12-5.71-7.19-4,1.2-1.45,1.56-2.24,2.16-2.54,6.07-3,12.08-5.72,18.23-8.48,4.25-1.9,7.29-.3,8.19,4.65,1,5.69,1.6,11.43,2.35,17.32.65-3.4,1-6.73,1.91-9.93,4.11-14.81,14.28-24.06,28.29-29.88,6.7-2.75,13.11-3.22,19.76.79,4.05,2.44,5.62,6.33,7.28,10.3a155.57,155.57,0,0,1,7.08,23.18c1.76,7.8,3.09,15.59,4.07,23.55,1.32,10.32,2.35,20.59,3.23,30.78s1.41,20.55,2,30.69c.89,13.82,1,27.85,1.64,41.55.22,5.16.48,10.27.79,15.41s.73,10.27,1.43,15.29a49.37,49.37,0,0,0,4.53,15.11,41.89,41.89,0,0,0,9.12,12.57,37.5,37.5,0,0,0,13,7.87,42,42,0,0,0,15.43,2.47c2.25,0,4.57-.92,6.83-1.54l13-3.66.46,1.32a36.84,36.84,0,0,1-5.26,2.23c-10.68,2.72-21.21,6.35-31.8,8a41.3,41.3,0,0,1-16.18-.79,38.34,38.34,0,0,1-14.14-7,41.26,41.26,0,0,1-12-15.32,57,57,0,0,1-3.29-9.34c-.86-3.25-1.48-6.67-2.05-10.06-2.67-16.67-1.6-34.23-2.39-51.45q-.3-7.23-.69-14.52l-.41-7.3q-.21-3.67-.51-7.28-1.14-14.49-2.73-29.19c-.39-3.47-.76-7-1.23-10.45s-1-6.91-1.51-10.37c-1.07-6.93-2.3-13.87-3.74-20.82-.44-2.11-1-4.2-1.56-6.29s-1.3-4.11-2-6.15c-1.42-4.09-2.93-8.18-4.28-12.32-.76-2.33-2.11-2.34-4.06-1.74-6.32,1.93-11.11,5.66-15.58,10.53-5.69,6.2-10.13,12.88-11.1,21.18a87.34,87.34,0,0,0-.06,18.57c.48,4.9,1.13,9.75,1.81,14.58s1.32,9.75,1.9,14.59a28.49,28.49,0,0,0,.82,3.11c1.29,5.24-1.14,10.09-5.85,13.22-7.63,5.06-16.11,7.46-24.35,10.44C2067.63,446.45,2067.28,446.2,2066.71,446Z"/><path class="cls-1" d="M1820.73,235.44c-2-6.5-4-13-6-19.6-3.53-12.16-8.44-23.46-16-33.88a64.81,64.81,0,0,0-6-7.18c-1.07-1.1-2.17-2.17-3.32-3.15s-2.34-1.89-3.57-2.75a50.67,50.67,0,0,0-16.74-7.67,13.9,13.9,0,0,0-11.14,1.48c-9.94,6-14.13,15-13.13,26A115.74,115.74,0,0,0,1758,232.25c2.58,4.9,5.47,9.52,8.39,14.22s5.95,9.32,8.89,13.92c1.81,2.82,4.51,5.73,7.45,6.84a15.58,15.58,0,0,0,10.39.09,42.65,42.65,0,0,0,9.56-4.86c8.66-5.47,17.06-11.74,25.59-17.61a26.46,26.46,0,0,0,6.47-5.72c8.28-11.19,10.34-23.73,6.34-37.07a180,180,0,0,0-7.18-19q-3.84-8.87-7.86-17.74c-2.69-5.89-5.48-11.68-8.29-17.55-5.63-11.68-11.39-23.58-17.38-35.17q-5.16-10.09-10.27-20.35l-10.2-20.47c-4-8-4.47-16,3.38-22.31.85-.68,1.17-1.9,1.73-2.88l-.93-.64c-7.13,6.32-14.49,12.4-21,19.13a14.48,14.48,0,0,0-3.31,15.48,103.8,103.8,0,0,0,5.59,14l6.68,12.77c2.21,4.25,4.41,8.47,6.56,12.8q6.47,12.89,12.74,25.63l3.85,7.84,3.77,7.92,7.4,15.8q3.63,7.89,7.13,15.75c2.3,5.3,4.52,10.64,6.68,16,3.57,8.8,5.54,18,1.4,27.89A9.79,9.79,0,0,1,1820.73,235.44Zm-21.51-48.06A244.2,244.2,0,0,1,1812.93,217c2.52,6.36,3.84,13.17,6,19.62,1.21,3.64.44,6.37-1.7,9.45-3.23,4.62-12,8.25-16.47,6.49a12.8,12.8,0,0,1-5.38-3.75c-12.24-15.54-22.1-32.8-26.28-53a75.59,75.59,0,0,1-1.28-10.94c-.36-6.85,8-15.41,15.85-11.85a20.61,20.61,0,0,1,5,2.21,23.76,23.76,0,0,1,4.17,3.37A38.71,38.71,0,0,1,1799.22,187.38Z"/><path class="cls-1" d="M2048.44,456.15c7.6-3.37,13.64-8.83,14.19-17.57a147.16,147.16,0,0,0-.64-27.28c-.51-4.25-1.19-8.42-1.93-12.58s-1.53-8.35-2.33-12.54l-2.42-12.62L2053,360.88c-1.57-9.15.1-15.56,7.75-19.58,6.6-3.46,13.33-6.88,19.94-10.27,5.66-2.91,11.4-5.75,16.94-8.94,12.43-7.17,19.88-17.35,18.62-32.63-.25-3-.37-6-.54-9a80.53,80.53,0,0,0-.88-8.94c-1.67-10.18-4-20.37-6.08-30.44-5.36,1.4-10.49,2.5-15.48,4.22-12.58,4.29-25,8.61-37.06,13.62a31.71,31.71,0,0,0-13.67,10.53,35.18,35.18,0,0,0-6.23,16,88.86,88.86,0,0,0-.81,22.43c1.43,13,3.26,25.78,14.43,35.08-2.24,1-4.11,1.88-6,2.69-6.63,2.85-11.6,7-12.47,14.88-1,9.12.87,17.72,2.61,26.29,1.62,7.72,3.12,15.63,4.55,23.41s2.71,15.54,3.65,23.32c.62,5.6-.86,11.72-2.21,17.43-.82,3.51-3.17,7-7.07,7.84-3.69.79-6.44,2.36-8.27,7.18C2033.15,462.43,2040.85,459.51,2048.44,456.15Zm44.91-167.79a73.38,73.38,0,0,1-.57,19.08,24,24,0,0,1-4.82,11.21,36.43,36.43,0,0,1-9.24,8.19c-.31.2-.68.31-1,.52-1.75,1.15-4.37,3.71-5.07,3.27-3.71-2.32-8.48-4.72-10.06-8.32a87,87,0,0,1-4.34-12.33,77.5,77.5,0,0,1-2.34-12.47,65.4,65.4,0,0,1,2.48-25.52c2.23-7.42,6.42-13.87,14.13-17.15,4.43-1.88,8.94-3.62,14.32-5.75.66,3.46,1.3,6.84,1.94,10.17s1.17,6.66,1.74,9.92C2091.65,275.69,2092.63,282,2093.35,288.36Z"/><path class="cls-1" d="M2000.8,184.87c-6.9,3-14,5.7-20.48,9.31a22.55,22.55,0,0,0-10.94,13.49,29.75,29.75,0,0,0,.5,17.27l7.4,23.08,3.61,11.44c1.17,3.85,2.28,7.72,3.36,11.57,2.07,7.41,3.4,15,1,22.48-2.88,9-8.57,16.13-15.67,22.32-12.21,10.66-26.66,15.36-41.1,20.76a53.43,53.43,0,0,0-8.82,4.09c-5,3-9.52,3.77-13.63,2.82s-7.87-3.47-11.19-7.4a43.64,43.64,0,0,1-9-41.62c1.59-5.71,5.47-9.51,10.44-12.15,3.62-1.92,7.32-3.79,11-5.57l11.12-5.25.51.88c-.34.4-.6,1-1,1.19-12.66,5.7-14.59,18.18-13,29.4,1.24,8.65,4.35,16.32,10.3,22.28a18.62,18.62,0,0,0,12.47,6c11.77.89,19.42-6.66,26.74-14.25,5.2-5.42,9.57-11.84,10.24-19.8.29-3.48.46-7.21-.42-10.48-1.85-7-3.87-13.93-6-20.92l-3.19-10.5c-1.07-3.52-2.15-7.05-3.26-10.5a118.33,118.33,0,0,1-3.78-14.35c-2.53-13.91,3.66-24.3,15.17-30.87a146.39,146.39,0,0,1,16.45-7.88c5.69-2.39,11.41-4.45,17.1-6.76a15.77,15.77,0,0,1,4-.51Z"/><path class="cls-1" d="M1888.51,188.81c4.73,1.73,9.4,3.64,14,5.58l7,2.91,7,3c5.56,2.35,11.08,3,15.86-1.54,3.49-3.34,5.29-11.61,3.08-15.8-4.52-8.51-11.5-14.65-21.17-17.17-7.43-2-14.48,0-21.65,1-11,1.68-20.28,7.64-31.13,9.52a26,26,0,0,0-9,3.83c-2.89,1.77-5.75,3.89-8.7,5.57.19.51.35,1,.51,1.41,2.27,5.78,4.46,11.72,6.61,17.59s4.21,11.75,6.14,17.63c1.63,5,3.39,9.88,5.4,14.69a84.77,84.77,0,0,0,7.21,13.82,39.94,39.94,0,0,0,7.21,8.3,34,34,0,0,0,4.27,3.15,30.8,30.8,0,0,0,4.61,2.52A31.6,31.6,0,0,0,1907.5,266a119.76,119.76,0,0,0,13.72-5c4.51-1.91,9-4,13.58-5.81,2.29-.92,4.41-2.28,6.61-3.43l-.4-.82c-2.68,1-5.3,2.24-8,3.06a42.3,42.3,0,0,1-13.64,1.85,47.32,47.32,0,0,1-6.63-.71,36,36,0,0,1-6.32-1.82,33.93,33.93,0,0,1-11.19-7.13,37.58,37.58,0,0,1-4.62-5.35,40.33,40.33,0,0,1-3.87-6.42c-5-10.37-8.3-21.37-12.24-32.26-2.31-6.21-4.28-12.58-6.47-18.9C1875.12,185.14,1882,186.38,1888.51,188.81Zm6.52-15.42c4.45,1.13,8.74,3.45,12.78,5.78,3.14,1.82,5,4.85,3.6,8.56-1,2.44-6.42,4.24-9.9,3.3-2.94-.8-5.82-1.85-8.69-2.91l-6.4-2.38c-2.13-.81-4.27-1.61-6.44-2.34l-13.06-4.57a87.59,87.59,0,0,1,13.43-5.16,34.92,34.92,0,0,1,7.16-1.12A26.63,26.63,0,0,1,1895,173.39Z"/><path class="cls-1" d="M2041,218.2c1.79,9,3.58,16.86,4.55,24.79a7.21,7.21,0,0,1-3.18,6c-7.37,3.87-15,7.33-22.55,10.63-3.55,1.54-4.4,4.11-3.62,7.33l5.21,21.2c.85,3.52,1.68,7,2.46,10.53l1.15,5.26,1,5.34a245.18,245.18,0,0,1,3.25,27.39c.51,7.15-4.23,11.6-10,14.47-6.31,3.16-12.93,5.58-19.42,8.12-1.79.7-3.88.52-5.83.75l-.1-1.15c2.41-1.32,4.75-2.81,7.26-3.9a10.22,10.22,0,0,0,6.43-9.2,52.36,52.36,0,0,0-.56-12.76c-2.58-13.33-5.79-26.68-8.91-40.21-1.41-6-2.92-12-3.82-18.09-.42-2.8-.21-5.91,3.72-7.38,6.58-2.44,12.94-5.64,19.52-8.22,5.28-2.05,6.73-3.57,5.89-9.46a143.62,143.62,0,0,0-3.94-17.21c-.61-2.2-.37-3.33,1.82-4.37,5.51-2.63,10.88-5.55,16.36-8.32C2038.56,219.33,2039.37,219,2041,218.2Z"/><path class="cls-1" d="M2432.34,910.1a5.27,5.27,0,0,1,1.44-.43c8.12.4,12.4-3.91,15.37-10.8,6.25-14.28,12.23-28.49,18.22-43.08L2472,844.6c1.52-3.71,3.06-7.41,4.66-11.11s.92-6-4.24-7.07c1.77-.65,2.47-1.17,3.13-1.12q10,.74,20.11,1.77c4.65.47,6.55,3.34,4.78,8.11-2,5.46-4.43,10.73-6.78,16.22,2.28-2.62,4.3-5.32,6.68-7.65,11-10.78,24.42-13.65,39.42-11.65a25.76,25.76,0,0,1,9.72,3.08,18.48,18.48,0,0,1,3.93,3.07,18.27,18.27,0,0,1,3.18,4.39c2.23,4.17,1.6,8.34,1,12.62a147.47,147.47,0,0,1-5.37,23.55c-2.45,7.67-5.34,15.12-8.38,22.45q-3,7.17-6.1,14.21c-2.13,4.71-4.35,9.41-6.57,14-4.46,9.3-9,18.44-13.53,27.51-6.42,12.48-13.16,24.62-19.44,36.78-4.83,9.16-9.77,18.33-13.52,27.7-3.93,10-5.24,20.69-2,30.83a36.88,36.88,0,0,0,3,7.08,40.41,40.41,0,0,0,4.21,6.27,42.15,42.15,0,0,0,12.17,9.88c2,1.09,4.42,1.49,6.7,2.09l13.1,3.33-.26,1.37a36.44,36.44,0,0,1-5.68-.7c-10.62-3-21.58-5.13-31.58-9a39.92,39.92,0,0,1-22.34-22c-5.07-12.86-2.82-25.76,2.4-38.79.79-2,1.64-4,2.52-5.9s1.75-3.86,2.69-5.77c1.86-3.82,3.86-7.6,5.93-11.37,4.14-7.53,8.6-15,12.69-22.72q6.66-12.76,13.09-25.93c2.13-4.39,4.28-8.82,6.34-13.26s4-8.88,6-13.37a413.38,413.38,0,0,0,15.28-39.27c2.65-8.15,3.88-16.86,5.75-25.4.49-2.39-.69-3.07-2.69-3.53-6.48-1.48-12.51-.64-18.84,1.34-8,2.52-15.22,6.07-20.18,12.74a78.23,78.23,0,0,0-5.06,7.76c-.77,1.34-1.51,2.7-2.2,4.07s-1.41,2.78-2.05,4.18c-4.16,9-7.66,18.16-11.46,27.11a24.48,24.48,0,0,0-.82,3.08c-1.46,5.16-6,8.14-11.66,8.48-9.18.56-17.78-1.59-26.45-3.11C2432.94,910.92,2432.75,910.53,2432.34,910.1Z"/><path class="cls-1" d="M2324.94,604.82c1.57-6.64,3-13.33,4.65-20,2.9-12.2,4.33-24.49,3-37.32a54.49,54.49,0,0,0-4.7-17.73,50.58,50.58,0,0,0-10.61-15.06,14.31,14.31,0,0,0-10.47-4.21c-11.55.18-19.67,5.9-24.35,16a107.56,107.56,0,0,0-7.34,21.7c-.82,3.67-1.5,7.43-2,11.21s-.81,7.56-1,11.36c-.42,11.08.54,22,1,33,.14,3.36,1,7.23,3,9.67a15,15,0,0,0,9,5.21,43.11,43.11,0,0,0,10.68.57c10.23-.4,20.55-1.57,30.93-2.45a27.27,27.27,0,0,0,8.53-1.78,41.22,41.22,0,0,0,15.59-11.47,41.81,41.81,0,0,0,8.32-17.41,182.73,182.73,0,0,0,3.33-20.1c1.58-12.88,2.57-25.62,3.61-38.63.49-6.48,1-13.06,1.39-19.56l1.08-19.59c.4-7.56.84-15.18,1.31-22.81s.83-15.16,1.33-22.78c.58-9,4.14-16.14,14.07-17.65,1.07-.16,2-1.07,2.93-1.63l-.49-1c-9.32,1.91-18.68,3.45-27.74,6.06a14.46,14.46,0,0,0-10.58,11.75,105.29,105.29,0,0,0-2.18,15L2346,483.85c-.2,4.73-.55,9.58-.84,14.34l-.94,14.26L2343,529.87c-.44,5.8-1,11.64-1.51,17.41s-1.11,11.52-1.73,17.24-1.27,11.38-2.1,17.11c-1.33,9.42-4.24,18.39-12.76,24.9A11.72,11.72,0,0,1,2324.94,604.82Zm5.39-52.41a273.41,273.41,0,0,1-2.89,32.52c-1,6.79-3.29,13.36-4.66,20-.78,3.77-2.81,5.75-6.2,7.35-5.1,2.39-14.49,1.13-17.45-2.64a13.38,13.38,0,0,1-2.85-5.89,151.46,151.46,0,0,1-1.58-29.56,105.51,105.51,0,0,1,5.28-29.47,74.33,74.33,0,0,1,4.37-10.14c3.11-6.12,14.63-9.34,19.6-2.32a22.16,22.16,0,0,1,5.25,9.39A37.43,37.43,0,0,1,2330.33,552.41Z"/><path class="cls-1" d="M2411.57,909.64c8.21.92,16.15-.76,21.07-8.07,2.53-3.77,5-7.7,7.18-11.67a128.53,128.53,0,0,0,5.91-12.23c3.25-7.81,6.14-15.82,9-23.91s5.45-16.13,8.5-24.19c3.3-8.73,8-13.45,16.58-13.07l22.34,1.14c6.39.3,12.82.7,19.24.7,7.24,0,13.65-1.24,19.17-4.24a29,29,0,0,0,7.51-5.86,34.28,34.28,0,0,0,5.76-8.77c2.52-5.4,5.52-10.59,7.68-16.2,1.86-4.84,3.59-9.76,5.27-14.7l2.46-7.4q1.17-3.69,2.34-7.33c-5.39-1.46-10.46-3.05-15.58-4.08-13-2.63-25.79-5.22-38.88-6.81-12.59-1.59-22.92,3.35-30.54,13a86.9,86.9,0,0,0-11.79,18.93c-5.29,12-10.36,24.08-5.09,37.58-2.44-.25-4.53-.41-6.58-.65-7.22-.83-13.61.25-18.28,6.63-5.34,7.34-8.1,15.77-11,24.08-2.59,7.55-5.09,15.06-7.7,22.47s-5.57,14.86-8.69,22.07c-2.23,5.13-6.55,9.67-10.56,13.93-2.45,2.6-6.23,4.45-10.06,3.23-3.62-1.14-6.81-1.16-10.78,2.09,4.55.55,8.87,1.16,13.09,1.73S2407.45,909.19,2411.57,909.64Zm123-122.64a75,75,0,0,1-10.14,16.28c-5.47,6.83-13.32,9.33-21.89,9.74-.37,0-.74-.08-1.1-.06-2.09.13-5.63,1-6,.28-2-3.88-4.87-8.38-4.41-12.3,1.81-17.48,8.44-33.33,21.56-45.65,5.64-5.29,12.54-8.8,20.81-7.75,4.75.61,9.51,1.37,15.2,2.24-2.38,6.68-4.6,13.06-6.85,19.22-1.13,3.09-2.24,6.11-3.43,9.1S2535.85,784.07,2534.56,787Z"/><path class="cls-1" d="M2506.26,651l-5.59-.69-5.65-.65c-3.77-.41-7.52-.73-11.25-.8-13.23-.2-21.85,9.6-24.38,21.39-1.63,7.86-3.42,15.84-5.14,23.69s-3.51,15.67-5.42,23.38c-1.88,7.43-4.59,14.68-10.43,20-7,6.4-15.49,9.68-24.71,11.48-15.75,3-31,.08-46-2.58a51.91,51.91,0,0,0-9.64-.88c-5.75,0-10.15-1.49-13.29-4.32s-5-7-5.93-12a52.87,52.87,0,0,1-.73-11.05,41.06,41.06,0,0,1,1.77-10.45,45.44,45.44,0,0,1,12-19c4.23-4.15,9.49-5.5,15.09-5.29,8.18.31,16.4,1,24.65,1.63v1c-.49.18-1,.57-1.48.52a21.46,21.46,0,0,0-16.63,5.06c-4.24,3.61-7.18,8.62-9.33,13.91-3.27,8.12-4.49,16.36-2.32,24.5a19.43,19.43,0,0,0,2.83,6.26,18.84,18.84,0,0,0,5,5.08c9.66,6.7,20,4,30.25,1.06,7.24-2.11,14.24-5.49,18.77-12a31.92,31.92,0,0,0,4.84-9.26c1.92-7,3.68-14,5.4-21.15.88-3.58,1.67-7.12,2.45-10.67l2.38-10.69a121,121,0,0,1,4-14.35c4.81-13.35,15.37-19.24,28.58-19.15,12,.07,24.2,2.43,36.43,4.08a15.82,15.82,0,0,1,3.66,1.55Z"/><path class="cls-1" d="M2407,598.23c6.45,7.73,12.27,16,18.51,23.94,3.67,4.8,8,8.21,14.47,6.62,4.68-1.14,10.38-7.4,10.58-12.16a32.83,32.83,0,0,0-9.79-25.44c-5.42-5.47-12.4-7.37-19.26-10-10.39-4-21.34-3.55-31.66-7.37-6.07-2.15-13.32-.58-20.09-.63-.1.54-.19,1-.27,1.48-1,6.19-1.91,12.32-3,18.48s-2.26,12.31-3.55,18.39c-1.09,5.15-2.06,10.29-2.67,15.43-.3,2.58-.5,5.14-.61,7.72a75.35,75.35,0,0,0,0,7.81,36.18,36.18,0,0,0,7,20.15,38.15,38.15,0,0,0,3.48,3.94,30.43,30.43,0,0,0,4.15,3.38,33.67,33.67,0,0,0,10.51,4.65,105.83,105.83,0,0,0,14.45,2.48c4.92.57,9.77,1.08,14.64,1.78,2.44.35,4.94.24,7.42.36l.07-.93c-2.82-.45-5.68-.72-8.44-1.38a43.91,43.91,0,0,1-6.66-2.15,43.12,43.12,0,0,1-6.13-3,36.69,36.69,0,0,1-9.94-8.67,35.37,35.37,0,0,1-6.08-11.8,38.44,38.44,0,0,1-1.53-14.39c.86-11.53,3.61-22.76,5.49-34,1.12-6.55,2.61-13.07,3.88-19.65C2397.2,588.39,2402.46,593,2407,598.23Zm13.35-10.11c3.3,3.2,5.82,7.39,8.13,11.44,1.8,3.16,1.92,6.75-1.18,9.23-2,1.65-7.66.45-10.19-2.11-2.14-2.17-4.1-4.53-6-6.89-1.43-1.78-2.9-3.51-4.4-5.24l-4.45-5.22-9-10.53C2402.71,579.8,2412.58,580.78,2420.36,588.12Z"/><path class="cls-1" d="M2524.32,700.06l-4.06,12.31c-1.32,3.91-2.76,7.72-4.33,11.4a7.22,7.22,0,0,1-5.75,3.58c-4.14-.18-8.28-.48-12.41-.85s-8.34-.77-12.49-1.22c-3.87-.42-5.89,1.37-6.8,4.53l-3,10.46-3.1,10.49c-2.09,7-4.24,13.85-6.59,20.63-1.52,4.34-3.16,8.57-5,12.8s-3.85,8.4-5.87,12.52c-3.18,6.46-9.5,7.93-15.86,7.53-3.5-.22-7-.64-10.44-1.14l-10.4-1.57c-1.92-.28-3.66-1.47-5.48-2.23l.48-1c2.76,0,5.55-.07,8.29.23a10.28,10.28,0,0,0,10.19-4.75,51.64,51.64,0,0,0,5.81-11.27c4.49-12.85,8.59-26.12,12.45-39.27,1.76-5.9,3.51-11.86,5.8-17.61,1-2.64,2.8-5.24,6.92-4.53,6.9,1.19,14,1.64,21,2.7,5.64.84,7.66.25,9.84-5.25a150.59,150.59,0,0,0,5.24-16.9c.6-2.21,1.37-3.07,3.78-2.88,6.06.51,12.15.68,18.26,1C2521.62,699.82,2522.5,699.91,2524.32,700.06Z"/></g><g id="texts"><path class="cls-1" d="M1100,76.29q30.45-6.58,50.78,6.6t27.09,44.42q6.72,31-6.33,51.55T1128.07,206L1078,216.79l-28-129.66Zm22,108.35q18.46-4,25.39-17.11t2.39-34.14q-4.54-21-16.28-30.1t-30.2-5.09l-21.61,4.68,18.7,86.44Z"/><path class="cls-1" d="M1254.55,187.33q-15.78,1.74-28.16-3.15a43.78,43.78,0,0,1-20-15.78q-7.68-10.87-9.5-27.26t3.3-28.68a44.14,44.14,0,0,1,15.91-19.76,54.87,54.87,0,0,1,25.59-9.1q15.18-1.68,26.44,3.24a41.45,41.45,0,0,1,18,14.79,50.31,50.31,0,0,1,8.24,23.25c.29,2.67.51,5.2.64,7.61s.17,4.57.11,6.46l-79.71,8.83-2.11-19,67.73-7.5-12.65,6.26q-1.39-12.59-7.84-18.75t-16.84-5a23.53,23.53,0,0,0-12.69,5,22.06,22.06,0,0,0-7.1,11.61q-2,7.41-.82,18.19,1.17,10.59,5,17.14a22.22,22.22,0,0,0,9.93,9.31,26.35,26.35,0,0,0,14.06,1.88q8.79-1,13.81-5a23.12,23.12,0,0,0,7.35-10.32l22.71,6a35.23,35.23,0,0,1-8.21,14.45,44.64,44.64,0,0,1-14.44,10.2A61.84,61.84,0,0,1,1254.55,187.33Z"/><path class="cls-1" d="M1356.4,180.7a69.43,69.43,0,0,1-28-4.77,51.77,51.77,0,0,1-20.76-14.79l15.5-16.45a37.86,37.86,0,0,0,13.14,11.55q8.15,4.44,19.2,4.17,7.83-.18,12.5-2.6a8,8,0,0,0,2.21-12.92c-1.51-1.5-4.48-2.68-8.93-3.51l-17.76-3.2Q1326,135,1318.46,127.81T1310.68,109a27,27,0,0,1,4.56-15.59q4.76-7.35,14.49-12.1t24.41-5.1q15.08-.35,26.34,4.11a39.81,39.81,0,0,1,17.91,13.55l-16.1,16.47a29.75,29.75,0,0,0-11.81-10.48,32,32,0,0,0-15.06-3.37,34.11,34.11,0,0,0-9.61,1.43,13.46,13.46,0,0,0-6,3.46,7.41,7.41,0,0,0-1.89,5.37,6.91,6.91,0,0,0,3,5.46q2.86,2.25,10.33,3.68l20.6,3.74q14.94,2.67,21.54,9.65a24.72,24.72,0,0,1,6.83,17,29.84,29.84,0,0,1-4.72,17.3q-4.95,7.65-14.79,12.21T1356.4,180.7Z"/><path class="cls-1" d="M1448.79,79.45l-4,100.42-27.52-1.09,4-100.42Zm-13.09-15q-8.62-.35-12.7-4.23t-3.79-11.11q.3-7.43,4.66-11t13-3.21q8.64.34,12.71,4.23t3.78,11.31q-.28,7.23-4.65,10.78T1435.7,64.45Z"/><path class="cls-1" d="M1529.57,168.12q16.2,1.69,24.26,9.62t6.73,20.51q-1.18,11.4-8.62,18.6t-19.74,10q-12.32,2.74-27.9,1.11-25.79-2.7-36.93-11.15t-9.92-20a17.85,17.85,0,0,1,7.74-13.13q6.88-4.93,21.54-4l-1.33,3.09q-10.2-2.9-15.17-8.57t-4-14.67a18.86,18.86,0,0,1,8.69-14.34q7.71-5.16,20-4.88l11.41,6.86-2.8-.29q-8.67-.3-12.46,2.23c-2.54,1.68-3.93,3.73-4.18,6.13a7,7,0,0,0,2.63,6.64q3.08,2.44,9.28,3.09ZM1519.91,83q14,1.47,23.86,6.64T1558.33,103a30.3,30.3,0,0,1,3.59,18.76,30.1,30.1,0,0,1-7.38,17.42q-6.3,7-17,10t-24.72,1.55q-22.18-2.32-33-12.66t-9.2-25.93a30,30,0,0,1,7.5-17.6,35.67,35.67,0,0,1,17-10Q1505.73,81.54,1519.91,83Zm-13.44,126.11a67.75,67.75,0,0,0,17.28,0q6.88-1.09,10.48-3.55t4-5.85a7.35,7.35,0,0,0-2.36-6.41q-2.76-2.62-10.55-3.43l-33.79-3.55a12.59,12.59,0,0,0-8.15,1.57,7.94,7.94,0,0,0-3.79,6.27q-.58,5.59,6.58,9.58T1506.47,209.14Zm11.64-108.92q-8-.84-13.66,3T1498,114.88q-.81,7.8,3.91,12.84t12.72,5.88q8,.84,13.57-3.12t6.39-11.76q.81-7.8-3.82-12.73T1518.11,100.22Zm55.26-33.61,1.15,19.93a16.07,16.07,0,0,1-1.69-.28,17.78,17.78,0,0,0-1.89-.3q-9-.94-14.13,2.66t-5.88,10.8l-10.71-5.77A35.23,35.23,0,0,1,1545,79.09a26.09,26.09,0,0,1,26.2-12.71l1,.1Z"/><path class="cls-1" d="M1569.82,192l19.66-98.56,24.25,4.84-4.33,29.88-2.72-3.82a39.81,39.81,0,0,1,10.66-14.37,33.17,33.17,0,0,1,14.38-6.87,44.71,44.71,0,0,1,34.34,7.67,30,30,0,0,1,10.24,14.44q3,8.91.64,20.94L1664,210.77l-27-5.39,11.37-57q2.52-12.61-1.45-18.43t-11.85-7.39a23.89,23.89,0,0,0-11.27.52,20.55,20.55,0,0,0-10.19,6.88q-4.42,5.26-6.4,15.12l-10.42,52.24Z"/><path class="cls-1" d="M1100,76.29q30.45-6.58,50.78,6.6t27.09,44.42q6.72,31-6.33,51.55T1128.07,206L1078,216.79l-28-129.66Zm22,108.35q18.46-4,25.39-17.11t2.39-34.14q-4.54-21-16.28-30.1t-30.2-5.09l-21.61,4.68,18.7,86.44Z"/><path class="cls-1" d="M1254.55,187.33q-15.78,1.74-28.16-3.15a43.78,43.78,0,0,1-20-15.78q-7.68-10.87-9.5-27.26t3.3-28.68a44.14,44.14,0,0,1,15.91-19.76,54.87,54.87,0,0,1,25.59-9.1q15.18-1.68,26.44,3.24a41.45,41.45,0,0,1,18,14.79,50.31,50.31,0,0,1,8.24,23.25c.29,2.67.51,5.2.64,7.61s.17,4.57.11,6.46l-79.71,8.83-2.11-19,67.73-7.5-12.65,6.26q-1.39-12.59-7.84-18.75t-16.84-5a23.53,23.53,0,0,0-12.69,5,22.06,22.06,0,0,0-7.1,11.61q-2,7.41-.82,18.19,1.17,10.59,5,17.14a22.22,22.22,0,0,0,9.93,9.31,26.35,26.35,0,0,0,14.06,1.88q8.79-1,13.81-5a23.12,23.12,0,0,0,7.35-10.32l22.71,6a35.23,35.23,0,0,1-8.21,14.45,44.64,44.64,0,0,1-14.44,10.2A61.84,61.84,0,0,1,1254.55,187.33Z"/><path class="cls-1" d="M1356.4,180.7a69.43,69.43,0,0,1-28-4.77,51.77,51.77,0,0,1-20.76-14.79l15.5-16.45a37.86,37.86,0,0,0,13.14,11.55q8.15,4.44,19.2,4.17,7.83-.18,12.5-2.6a8,8,0,0,0,2.21-12.92c-1.51-1.5-4.48-2.68-8.93-3.51l-17.76-3.2Q1326,135,1318.46,127.81T1310.68,109a27,27,0,0,1,4.56-15.59q4.76-7.35,14.49-12.1t24.41-5.1q15.08-.35,26.34,4.11a39.81,39.81,0,0,1,17.91,13.55l-16.1,16.47a29.75,29.75,0,0,0-11.81-10.48,32,32,0,0,0-15.06-3.37,34.11,34.11,0,0,0-9.61,1.43,13.46,13.46,0,0,0-6,3.46,7.41,7.41,0,0,0-1.89,5.37,6.91,6.91,0,0,0,3,5.46q2.86,2.25,10.33,3.68l20.6,3.74q14.94,2.67,21.54,9.65a24.72,24.72,0,0,1,6.83,17,29.84,29.84,0,0,1-4.72,17.3q-4.95,7.65-14.79,12.21T1356.4,180.7Z"/><path class="cls-1" d="M1448.79,79.45l-4,100.42-27.52-1.09,4-100.42Zm-13.09-15q-8.62-.35-12.7-4.23t-3.79-11.11q.3-7.43,4.66-11t13-3.21q8.64.34,12.71,4.23t3.78,11.31q-.28,7.23-4.65,10.78T1435.7,64.45Z"/><path class="cls-1" d="M1529.57,168.12q16.2,1.69,24.26,9.62t6.73,20.51q-1.18,11.4-8.62,18.6t-19.74,10q-12.32,2.74-27.9,1.11-25.79-2.7-36.93-11.15t-9.92-20a17.85,17.85,0,0,1,7.74-13.13q6.88-4.93,21.54-4l-1.33,3.09q-10.2-2.9-15.17-8.57t-4-14.67a18.86,18.86,0,0,1,8.69-14.34q7.71-5.16,20-4.88l11.41,6.86-2.8-.29q-8.67-.3-12.46,2.23c-2.54,1.68-3.93,3.73-4.18,6.13a7,7,0,0,0,2.63,6.64q3.08,2.44,9.28,3.09ZM1519.91,83q14,1.47,23.86,6.64T1558.33,103a30.3,30.3,0,0,1,3.59,18.76,30.1,30.1,0,0,1-7.38,17.42q-6.3,7-17,10t-24.72,1.55q-22.18-2.32-33-12.66t-9.2-25.93a30,30,0,0,1,7.5-17.6,35.67,35.67,0,0,1,17-10Q1505.73,81.54,1519.91,83Zm-13.44,126.11a67.75,67.75,0,0,0,17.28,0q6.88-1.09,10.48-3.55t4-5.85a7.35,7.35,0,0,0-2.36-6.41q-2.76-2.62-10.55-3.43l-33.79-3.55a12.59,12.59,0,0,0-8.15,1.57,7.94,7.94,0,0,0-3.79,6.27q-.58,5.59,6.58,9.58T1506.47,209.14Zm11.64-108.92q-8-.84-13.66,3T1498,114.88q-.81,7.8,3.91,12.84t12.72,5.88q8,.84,13.57-3.12t6.39-11.76q.81-7.8-3.82-12.73T1518.11,100.22Zm55.26-33.61,1.15,19.93a16.07,16.07,0,0,1-1.69-.28,17.78,17.78,0,0,0-1.89-.3q-9-.94-14.13,2.66t-5.88,10.8l-10.71-5.77A35.23,35.23,0,0,1,1545,79.09a26.09,26.09,0,0,1,26.2-12.71l1,.1Z"/><path class="cls-1" d="M1569.82,192l19.66-98.56,24.25,4.84-4.33,29.88-2.72-3.82a39.81,39.81,0,0,1,10.66-14.37,33.17,33.17,0,0,1,14.38-6.87,44.71,44.71,0,0,1,34.34,7.67,30,30,0,0,1,10.24,14.44q3,8.91.64,20.94L1664,210.77l-27-5.39,11.37-57q2.52-12.61-1.45-18.43t-11.85-7.39a23.89,23.89,0,0,0-11.27.52,20.55,20.55,0,0,0-10.19,6.88q-4.42,5.26-6.4,15.12l-10.42,52.24Z"/><path class="cls-1" d="M412.66,2248.64q-20.93-23.07-19.68-47.28t24.93-45.67q23.52-21.33,47.81-20.29t45.21,24.12l34.43,38-98.26,89.13Zm82.84-73.23q-12.69-14-27.52-13.43t-30.76,15q-15.93,14.45-17.93,29.15t10.7,28.7l14.85,16.38,65.51-59.42Z"/><path class="cls-1" d="M431.55,2059.29q9.42,12.8,11.35,26a43.63,43.63,0,0,1-3.64,25.25q-5.56,12.09-18.86,21.85t-26.48,11.49a44,44,0,0,1-25.07-3.9,54.82,54.82,0,0,1-20.68-17.61q-9-12.3-10.41-24.52a41.56,41.56,0,0,1,3.79-23,50.33,50.33,0,0,1,16-18.76q3.26-2.39,6.28-4.36t5.54-3.32l47.5,64.61-15.39,11.31-40.35-54.9,11.74,7.83q-10.2,7.5-12.32,16.17t4.08,17.08a23.5,23.5,0,0,0,10.71,8.47,22.11,22.11,0,0,0,13.61.35q7.41-2,16.16-8.39,8.58-6.32,12.32-12.93a22.21,22.21,0,0,0,3.11-13.25,26.4,26.4,0,0,0-5.41-13.12q-5.23-7.12-11.2-9.48a23.17,23.17,0,0,0-12.61-1.2l-6.18-22.65a35.27,35.27,0,0,1,16.63-.13,44.7,44.7,0,0,1,16,7.41A61.83,61.83,0,0,1,431.55,2059.29Z"/><path class="cls-1" d="M374.89,1974.41a69.45,69.45,0,0,1,9.85,26.59,51.69,51.69,0,0,1-2.44,25.37l-22-5.19a37.77,37.77,0,0,0,3.44-17.16q-.24-9.27-6-18.71-4.08-6.69-8.51-9.53a8,8,0,0,0-12.29,4.55q-.82,3.09,1.43,9.49l6.11,17q6,16.82,3.55,26.89t-12.4,16.15a27,27,0,0,1-15.78,3.85q-8.75-.45-17.73-6.5t-16.62-18.59q-7.84-12.88-9.61-24.86a39.76,39.76,0,0,1,2.78-22.29l22.31,5.71a29.67,29.67,0,0,0-3.17,15.47,32,32,0,0,0,4.61,14.72,33.89,33.89,0,0,0,6.05,7.61,13.63,13.63,0,0,0,6,3.43,7.42,7.42,0,0,0,5.6-1.06,6.93,6.93,0,0,0,3.25-5.28q.51-3.6-2-10.79l-7.06-19.71q-5.16-14.26-2.42-23.47a24.83,24.83,0,0,1,11.33-14.44,30,30,0,0,1,17.35-4.56q9.11.47,18,6.71T374.89,1974.41Z"/><path class="cls-1" d="M234.56,1963.85q4,7.65,2.7,13.12t-7.74,8.83q-6.57,3.46-11.83,1.46t-9.28-9.66q-4-7.65-2.7-13.12t7.91-8.92q6.4-3.37,11.66-1.37T234.56,1963.85ZM241,1945,330,1898.25l12.82,24.37-89,46.77Z"/><path class="cls-1" d="M167.6,1843.54l16.68-11a16.26,16.26,0,0,1,.61,1.6,16.64,16.64,0,0,0,.68,1.79q3.68,8.26,9.37,10.9t12.29-.31l.36,12.17a35.13,35.13,0,0,1-15,3.15,26.09,26.09,0,0,1-24.1-16.33l-.41-.91C167.92,1844.28,167.76,1843.91,167.6,1843.54Zm41,38.1q-5.73-12.86-6.18-24t4.28-19.29a30.4,30.4,0,0,1,14.47-12.49,30,30,0,0,1,18.77-2.31q9.23,1.95,17.2,9.72t13.7,20.63q9.07,20.38,5.55,34.94t-17.85,20.93a30,30,0,0,1-19,2.3q-9.27-2-17.2-9.72T208.55,1881.64Zm15.79-7q3.27,7.35,9.43,10.32t13.33-.21q7.16-3.2,9.17-9.81T255,1861q-3.27-7.35-9.49-10.19t-13.38.35q-7.15,3.18-9.11,9.67T224.34,1874.6Zm53.07-43.88q-6.63-14.87-3.8-25.81t14.4-16.09q10.46-4.66,20.41-1.84t18.49,12.12a86.93,86.93,0,0,1,14.92,23.61q10.55,23.7,8.8,37.56t-12.39,18.61a17.83,17.83,0,0,1-15.25-.14q-7.71-3.49-14.23-16.65l3.34-.39q2.61,10.27.17,17.42t-10.7,10.81a18.86,18.86,0,0,1-16.76-.34q-8.32-4.11-14.23-14.9l.24-13.31L272,1864c2.71,5.1,5.44,8.33,8.16,9.68s5.2,1.54,7.4.56a7,7,0,0,0,4.44-5.61q.57-3.88-2-9.58Zm47.08-.5a67.78,67.78,0,0,0-8.65-15c-2.92-3.61-5.7-6-8.31-7.3s-5-1.43-7-.5a7.32,7.32,0,0,0-4.37,5.25q-.9,3.69,2.3,10.85l13.82,31a12.67,12.67,0,0,0,5.43,6.27,7.93,7.93,0,0,0,7.33.14q5.14-2.28,5-10.48T324.49,1830.22Z"/><path class="cls-1" d="M277.94,1783.94l-95.18,32.25-7.94-23.41,28-11.2-2,4.27a40.05,40.05,0,0,1-17.77-2,33.26,33.26,0,0,1-13.14-9,44.68,44.68,0,0,1-10.53-33.57,30,30,0,0,1,7.39-16.09q6.19-7.08,17.81-11L247.11,1693,256,1719l-55,18.64q-12.18,4.13-15.23,10.47t-.48,13.95a24.07,24.07,0,0,0,6.09,9.51,20.6,20.6,0,0,0,11.05,5.38q6.78,1.2,16.3-2l50.45-17.1Z"/><path class="cls-1" d="M2637.65,1757.73q-9.51,29.67-31.1,40.68t-52,1.25q-30.24-9.71-41.47-31.25t-1.72-51.22l15.66-48.8,126.31,40.54Zm-104.83-35.12q-5.78,18,2.12,30.55t28.38,19.13q20.47,6.57,34.2,1t19.51-23.61l6.76-21.05-84.21-27Z"/><path class="cls-1" d="M2464.23,1836q6.38-14.54,16.8-22.81a43.7,43.7,0,0,1,23.69-9.47q13.26-1.21,28.36,5.41t23.18,17.19a44,44,0,0,1,9.16,23.66,54.72,54.72,0,0,1-4.91,26.71q-6.14,14-16,21.29a41.54,41.54,0,0,1-21.81,8.21,50.33,50.33,0,0,1-24.26-4.5c-2.46-1.07-4.76-2.16-6.91-3.25s-4-2.14-5.65-3.13l32.21-73.45,17.48,7.67-27.36,62.4.91-14.09q11.6,5.08,20.15,2.59t12.76-12.08a23.44,23.44,0,0,0,2-13.51,22,22,0,0,0-6.5-12q-5.42-5.46-15.35-9.81-9.75-4.27-17.35-4.21a22.21,22.21,0,0,0-13,3.95,26.41,26.41,0,0,0-8.66,11.23q-3.54,8.1-2.6,14.44a23.15,23.15,0,0,0,5.26,11.53l-16.53,16.67a35.15,35.15,0,0,1-8.41-14.33,44.44,44.44,0,0,1-1.61-17.61A61.6,61.6,0,0,1,2464.23,1836Z"/><path class="cls-1" d="M2419,1927.56a69.53,69.53,0,0,1,18.12-21.83,51.79,51.79,0,0,1,23.18-10.58l6.5,21.65a37.72,37.72,0,0,0-16.57,5.6q-7.92,4.83-13.22,14.54c-2.5,4.59-3.84,8.63-4,12.13a8.05,8.05,0,0,0,10.08,8.38q3.09-.84,7.5-6l11.66-13.79q11.57-13.61,21.52-16.53t20.18,2.67a27,27,0,0,1,11.22,11.74q4,7.8,3.24,18.61t-7.79,23.68q-7.23,13.23-16.73,20.76a39.77,39.77,0,0,1-20.69,8.73l-6.21-22.17a29.67,29.67,0,0,0,15-5,32.06,32.06,0,0,0,10.45-11.35,33.93,33.93,0,0,0,3.57-9,13.55,13.55,0,0,0,0-6.88,7.46,7.46,0,0,0-3.71-4.32,6.94,6.94,0,0,0-6.2-.18q-3.39,1.35-8.36,7.12l-13.53,16q-9.78,11.61-19.13,13.83a24.74,24.74,0,0,1-18.16-2.6A29.82,29.82,0,0,1,2414.3,1970q-4.15-8.12-3.17-18.92T2419,1927.56Z"/><path class="cls-1" d="M2460.53,2058.2l-85-53.65,14.7-23.29,85,53.65Zm19.54-3.83q4.62-7.32,10-8.9t11.52,2.28q6.29,4,7.18,9.53t-3.73,12.86q-4.61,7.31-10,8.89t-11.68-2.38q-6.12-3.87-7-9.42T2480.07,2054.37Z"/><path class="cls-1" d="M2343.36,2083.82q-9.57,13.18-20.46,16.2t-21.14-4.42q-9.27-6.73-11.79-16.77t1.25-22.07a86.44,86.44,0,0,1,13-24.72q15.24-21,28.12-26.41t22.31,1.43a17.82,17.82,0,0,1,7.5,13.28q.84,8.42-7.3,20.65l-2-2.7q7.61-7.39,15-8.85t14.72,3.85a18.86,18.86,0,0,1,8.08,14.69q.6,9.26-5.79,19.77l-11.64,6.45,1.65-2.28c3.07-4.89,4.5-8.87,4.3-11.9s-1.26-5.27-3.21-6.69a7,7,0,0,0-7.08-1q-3.65,1.44-7.31,6.48Zm-24-40.52a67.62,67.62,0,0,0-8.64,15q-2.49,6.51-2.17,10.85c.22,2.89,1.25,5,3.1,6.34a7.33,7.33,0,0,0,6.73,1.17q3.64-1.08,8.25-7.43l20-27.48a12.53,12.53,0,0,0,2.71-7.84,7.88,7.88,0,0,0-3.53-6.42q-4.56-3.3-11.59.9T2319.38,2043.3Zm102.5,74.7q-8.28,11.39-17.69,17.34t-18.85,5.94a30.42,30.42,0,0,1-18-6.28,30,30,0,0,1-11.39-15.1q-2.94-9-.18-19.76t11-22.18q13.13-18.06,27.49-22.27t27.05,5a30,30,0,0,1,11.49,15.3,35.54,35.54,0,0,1,.18,19.76Q2430.27,2106.45,2421.88,2118Zm-14-10.16q4.72-6.49,4.22-13.33t-6.85-11.43q-6.35-4.6-13.07-3t-11.46,8.08q-4.72,6.49-4.08,13.31t7,11.41q6.34,4.6,12.93,3.06T2407.89,2107.84Zm1.47,64.67-17.83-9a15.58,15.58,0,0,1,1.09-1.33,16.76,16.76,0,0,0,1.2-1.48q5.32-7.32,4.76-13.56c-.37-4.17-2.51-7.66-6.41-10.5l10.35-6.39a35.13,35.13,0,0,1,10.23,11.4,26.12,26.12,0,0,1-2.09,29l-.59.82Z"/><path class="cls-1" d="M2302.57,2106.75l75.53,66.31-16.32,18.58L2338.07,2173l4.67-.44a40,40,0,0,1,7.12,16.41,33.33,33.33,0,0,1-1.25,15.89,42,42,0,0,1-8.52,14.58,41.48,41.48,0,0,1-15.29,11.32,30,30,0,0,1-17.63,1.65q-9.23-1.83-18.44-9.92L2239.18,2179l18.17-20.7,43.65,38.33q9.67,8.49,16.69,8T2330,2198a24,24,0,0,0,5.19-10,20.57,20.57,0,0,0-.87-12.26q-2.34-6.48-9.9-13.1l-40-35.15Z"/></g></svg>