<svg xmlns="http://www.w3.org/2000/svg" viewBox="0 0 2006.08 2006.08"><defs><style>.cls-1{fill:#fff;}</style></defs><g id="Layer_1" data-name="Layer 1"><path class="cls-1" d="M1442.06,318.39c6.17-2,12.59-3.63,18.8-5.48,15.28-4.62,25.82-15.65,35.11-27.52,9.14-11.63,11-25.85,8.16-41.16-1.46-7.63-3.1-15.26-4.78-23,9.32-1.83,10.72-2.66,13.85,9.12.31,1.23.39,2.49.58,3.73,1.46,9.91,2.73,19.69,4,29.47,1.15,9.35,2.26,18.62,3.23,27.8s1.61,18.51,2.12,27.62c.36,6.48.53,13.06.7,19.51l.18,9.66,0,4.81,0,4.84c-.11,12.92-.39,25.53-1.16,38.25-.48,8.32-1.47,16.47-5.5,24.05a24,24,0,0,1-6,7.76,16.06,16.06,0,0,1-9.34,3.31c-4.14.22-8.54,1.95-12.74,5.76,3.85-.21,6.91.12,9.81-.57,7.41-1.71,14.73-3.75,22.22-5.53,11.31-2.66,18.64-9.76,21.67-20.76a98.44,98.44,0,0,0,3.08-19.57c.63-9.77.91-19.52,1.09-29.47.1-5,0-9.89,0-14.86s-.14-10-.25-15c-.06-2.72.47-3.88,3.67-4l21.51-.89,21.63-.69c8.69-.32,16.18-3.09,17.52-12.62a103,103,0,0,0,1.08-22.13,72.68,72.68,0,0,0-1.45-9.93,87.18,87.18,0,0,0-2.79-9.74,94.57,94.57,0,0,0-9-18.89,80.12,80.12,0,0,0-9.65-13,43.93,43.93,0,0,0-13.55-9.61c-7.37-3.37-14.19-4.06-20.12.32-4.93,3.65-7.27,8.9-8.61,14.67a76.46,76.46,0,0,0-1.65,16.36c-.1,5.56.1,11.16,0,16.67-.09,4.87.37,9.8.53,14.66a138.31,138.31,0,0,1-2.37-17.32q-.54-6.13-1.1-12.25l-1.33-12.2q-.69-6.13-1.5-12.3c-.52-4.12-1.1-8.24-1.77-12.32a36,36,0,0,0-3.75-10.11c-1.32-2.61-3.73-3.51-6.72-2.9-9.64,2-19.32,4-27.6,5.86-2.43-.82-4-1.88-5.24-1.68-7.38,1.16-14.48,2.87-21.88,3.83-2,.26-4,.54-5.92.87s-3.93.72-5.88,1.12q-5.84,1.23-11.52,2.79t-11.18,3.49c-3.7,1.31-7.34,2.76-10.92,4.3-9.09,3.93-12.75,10.44-13.3,19.74a107.62,107.62,0,0,0,2,26.61c1.45,7.56,2.86,15,4.09,22.51s2.35,15.05,3.39,22.52C1430.24,322.43,1436.06,320.33,1442.06,318.39Zm-6.43-64.9a47.85,47.85,0,0,1,1.28-13.81c1.46-6.32,6.68-9.51,12.72-11.34,6.32-1.92,13-3.35,19.43-5,3-.78,4.53.41,5.41,3.14a134.47,134.47,0,0,1,4.88,19.69,105.78,105.78,0,0,1,1.37,19.78c-.18,5.85-2.94,11.54-5.1,17.06-3.25,8.26-9.69,14.28-16,20.29-4.2,4-8.85,7.55-13.69,11.7-1.23-5.19-2.4-10.36-3.47-15.52s-2.14-10.18-3-15.28-1.67-10.24-2.32-15.34S1436,258.66,1435.63,253.49Zm112.48,32.18a219.58,219.58,0,0,1,.77-23.64,15.84,15.84,0,0,1,3.27-8.55c5.6-6.81,12.47-5.73,19.72,2.3a57.49,57.49,0,0,1,4.56,5.7,67.85,67.85,0,0,1,3.79,5.92,63.5,63.5,0,0,1,5.42,12.26,67.91,67.91,0,0,1,2.6,26,22.12,22.12,0,0,1-2.91,9.14c-1.22,2.06-3.53,4.21-5.83,4.64-10,2-20.06,3.46-30,5.3-.09-6.89-.39-13.43-.64-19.91S1548.34,292,1548.11,285.67Z"/><path class="cls-1" d="M1256.41,204.68c-3.2,1.47-6.27,3.09-9.55,4.38-10.23,3.94-17.15,11.3-22.7,20.17a47.4,47.4,0,0,0-5.82,13.43A46.68,46.68,0,0,0,1217,256c.32,8.88,2.91,17.69,6.58,26.36a39.27,39.27,0,0,0,9.26,13.54,42.44,42.44,0,0,0,6.21,4.79,47.93,47.93,0,0,0,7,3.81,28.09,28.09,0,0,0,9.25,2.31,26.21,26.21,0,0,0,9.72-1c3.4-1,6.82-2.15,10.22-3.33s6.77-2.37,10.15-3.64c1.81-.67,3.28-2.83,4.71-4.49,9.11-10.59,10.71-22.79,7.37-35.63-1.87-7.32-3.9-14.52-6.2-21.73a199.67,199.67,0,0,0-8-21.34c-12.39-28-27.54-55.32-44.72-82.17-6.59-10.42-12.74-20.68-16.8-32.1-2.86-8.07-2.53-15.79,4.43-21.18a45.73,45.73,0,0,1,10.94-6.38,36,36,0,0,1,13.52-2.62c6.85,0,13.76.14,20.62.78a172.94,172.94,0,0,1,20.51,3.3c5,1.23,9.88,2.68,14.78,4.21l7.33,2.37,7.26,2.57c4.61,1.63,5.33,5.2,1.72,7.57-1.95,1.28-4.37,2-6.53,3.09-3.25,1.59-6.44,3.19-9.64,4.84s-6.41,3.32-9.64,4.91c-5.23,2.58-10.64,4.84-15.9,7.28l-1-1.43c4.44-3.18,8.91-6.33,13.46-9.45,6.35-4.36,6.56-8.36,2.26-15.11a16,16,0,0,0-6.32-5.83,30.16,30.16,0,0,0-8.29-2.48,36.84,36.84,0,0,1-8.08-2.32c-4-1.77-10-1.69-15.4-.43s-10.18,3.77-11.78,7a14.21,14.21,0,0,0-.93,9.16,60.31,60.31,0,0,0,6,14.93c2.58,4.77,5.6,9.33,8.48,14q4.93,8,9.6,15.9l2.32,4,2.28,4,4.48,8.05,4.38,8c1.45,2.67,2.89,5.33,4.29,8.05l8.32,16.14c2.69,5.18,5.14,10.55,7.44,15.88s4.44,10.69,6.41,16a296.2,296.2,0,0,1,9.68,32.89c2.07,9.12,2.37,18-.87,26.76-3.13,8.43-9,14.63-16.59,19.14-5.46,3.23-11.14,6.12-16.81,8.75-2.84,1.32-5.69,2.58-8.52,3.82l-4.24,1.85-4.25,1.93c-8.63,4-17.13,7.87-26.31,8.58a30.61,30.61,0,0,1-11.43-1.42,35.41,35.41,0,0,1-10.26-5.29,43.81,43.81,0,0,1-8.43-7.93,44.94,44.94,0,0,1-5.86-9.67c-3.17-6.92-5-14.72-6.1-23.15-.47-3.67-1.36-7.58-.69-11.12a114.05,114.05,0,0,1,5.35-18.48c3.4-9.15,10.47-15.66,17.32-22.19a26.63,26.63,0,0,1,5.43-3.86c2-1.09,4-2.05,6-3.08,6.57-3.41,13.36-6.68,20.2-9.78a16.34,16.34,0,0,1,3.25-.72Z"/><path class="cls-1" d="M1380.37,254.54c-10.2,4.82-20.27,9.89-30.1,15s-19.62,10.58-29.11,16l-.49-.65c.75-.7,1.46-1.43,2.24-2.07q5.23-4.32,10.58-8.56c6.49-5.17,8.3-11.78,5.86-19.59-5.37-16.91-11.23-33.94-18.27-50.68l-3.18-7.48c-1.08-2.49-2.21-4.92-3.34-7.39q-3.4-7.36-7-14.79c-2.37-5-4.86-9.8-7.35-14.71l-7.55-14.79c-3.47-6.64-6.76-13.63-5-21.16.28-1.21.66-2.75,1.63-3.38,5.27-3.39,10.65-6.77,16.07-10s10.9-6.4,16.45-9.56c.42-.24,1.15-.1,2.13.55l-11.24,6.18c-4,2.17-6.27,6.54-4.83,10.93a99.79,99.79,0,0,0,5.89,15.26c2.77,5.25,5.46,10.62,8.12,15.94s5.28,10.62,7.83,15.91,5,10.71,7.38,16,4.71,10.64,6.87,16.07c3.16,7.91,6.13,15.73,8.82,23.69s5.16,15.94,7.49,23.84c2.37,8.38,1.38,10.48-4.21,17.89,8.85-3.92,17.59-8.46,26.48-12.56a169,169,0,0,1,27.69-10.35l.63,1.06a30.13,30.13,0,0,1-2.88,2c-4.93,2.68-8.08,5.34-9.71,8.65s-1.78,7.29-.85,12.87q2,12.16,4.09,24.4c1.28,8.1,2.41,16.26,3.38,24.31,1.18,9.53,1.72,19.22-1.37,28.76a29,29,0,0,1-15.4,17.67c-3.46,1.74-7.15,3.37-9.9,6.07-2.08,2-3.88,3.79-6.58,4.2-2.29.34-4.58.55-6.85.82l-.15-1.16c2.67-2,5.17-4.51,8.09-6,6.37-3.22,9-9,10.65-15.22a52,52,0,0,0,1.39-17c-.18-2.82-.51-5.64-.89-8.46s-.85-5.61-1.28-8.4c-1-6.64-2.09-13.33-3.17-20.08s-2.24-13.38-3.25-20.16C1374.91,266.19,1374.42,263.22,1380.37,254.54Z"/><path class="cls-1" d="M1714.26,626.52c6.3,1.41,12.56,3.26,18.94,4.73a56.73,56.73,0,0,0,22.71.36,109.23,109.23,0,0,0,21.48-6.56,43.32,43.32,0,0,0,17.09-12.33,59.74,59.74,0,0,0,10.58-19.17c2.57-7.33,5.14-14.84,7.44-22.3,9.08,3,10.62,3.08,7.36,14.87a36.12,36.12,0,0,1-1.35,3.5c-1.83,4.64-3.64,9.21-5.56,13.8l-5.78,13.7q-2.73,6.45-5.47,12.89c-1.84,4.28-3.79,8.56-5.7,12.79s-3.87,8.42-5.85,12.57c-1,2.08-2,4.14-3,6.2l-3.14,6.17c-6,11.63-12.12,22.91-18.7,34-3.26,5.55-6.52,11-9.85,16.42s-6.85,10.8-10.31,16.09a85.25,85.25,0,0,1-7.35,9.93,43.1,43.1,0,0,1-9.48,8.15c-6.06,3.79-11.92,5.45-18.77,1.86-3.7-1.88-8.4-2.58-13.94-1.4,3.44,1.76,6,3.56,8.77,4.44,7.21,2.26,14.64,4.15,22,6.37,11.16,3.36,21.06.88,29.17-7.13A97.62,97.62,0,0,0,1768,741.12c5.52-8.18,10.59-16.46,15.7-25,2.53-4.24,5.11-8.56,7.53-12.87s4.84-8.66,7.24-13c1.3-2.39,2.34-3.12,5.19-1.64l9.53,5,4.8,2.5,4.72,2.54,19.11,10.21c3.87,2,7.67,3.41,11.34,3.31s7.12-1.65,10.12-5.45a100.66,100.66,0,0,0,12-18.58,79.07,79.07,0,0,0,3.72-9.3c.53-1.6,1-3.23,1.44-4.87s.76-3.29,1.08-5a105.66,105.66,0,0,0,1.71-20.85,79.16,79.16,0,0,0-1.92-16,49.1,49.1,0,0,0-2.57-7.77,40.53,40.53,0,0,0-4.28-7.34c-4.81-6.57-10.18-10.67-17.5-9.85-6.13.7-10.74,4-14.84,8.39-7.57,8-12.34,18.33-18,27.73-2.48,4.14-4.65,8.68-7,13,.94-2.82,2-5.56,3.17-8.26s2.3-5.31,3.53-7.94Q1829,629,1834,617.62q4.88-11.26,9.45-22.9a34.21,34.21,0,0,0,1.87-10.65c.15-2.91-1.51-4.89-4.43-5.86-9.38-3.08-18.56-6.3-26.79-8.79-1.71-1.92-2.57-3.61-3.73-4.07-6.94-2.72-13.81-4.87-20.82-7.69A169.13,169.13,0,0,0,1744,545.75c-9.8-1.19-16.22,2.62-21.39,10.41a103.56,103.56,0,0,0-11.59,24c-2.48,7.24-5.15,14.46-7.8,21.56-1.34,3.55-2.66,7.07-4.07,10.61l-4.3,10.57C1701.88,624.16,1708.11,625.19,1714.26,626.52Zm27-59.37a48.37,48.37,0,0,1,8-11.29c4.4-4.72,10.58-4.89,16.74-3.46,6.41,1.52,12.78,3.68,19.25,5.46,3,.84,3.76,2.6,3.17,5.4a139.36,139.36,0,0,1-5.72,19.53,98.11,98.11,0,0,1-8.68,17.77c-3.13,5-8.38,8.54-13,12.24-7,5.52-15.55,7.49-24,9.53-5.63,1.36-11.42,2.08-17.66,3.23,3.08-10.21,6.19-20.15,9.83-29.92A258.68,258.68,0,0,1,1741.23,567.15Zm81.12,84.3c3.85-7,8.07-13.56,12.52-20.06a15.72,15.72,0,0,1,7.1-5.74c4.13-1.53,7.56-1.23,10.24.8s4.69,5.74,5.69,11.06c1.9,9.78,1.94,18.94-.11,27.56a64.85,64.85,0,0,1-4.17,12.38,66.36,66.36,0,0,1-6.58,11.38,22.59,22.59,0,0,1-7.12,6.46c-2.1,1.17-5.17,1.87-7.38,1.09-2.39-.83-4.76-1.69-7.13-2.57l-7.17-2.64c-4.78-1.77-9.55-3.55-14.34-5.24,1.69-3,3.32-6,4.92-8.91s3.06-5.8,4.57-8.66C1816.38,662.64,1819.31,657,1822.35,651.45Z"/><path class="cls-1" d="M1610.44,435.23c-3.48-.34-7.06-.36-10.51-.92-10.81-1.71-20.41,1.15-29.73,6.14A46.06,46.06,0,0,0,1550.6,460c-4.08,7.79-6.32,16.79-7.48,26.14a38.78,38.78,0,0,0-.16,8.45,37.06,37.06,0,0,0,1.44,7.88,47.74,47.74,0,0,0,7.17,14,27.52,27.52,0,0,0,15.75,10.6q5.16,1.26,10.48,2.24l10.65,1.88c1.89.33,4.24-.8,6.3-1.53,13.16-4.6,20.67-14.38,24.23-27.19,1.94-7.2,3.83-14.49,5.47-21.9a194.6,194.6,0,0,0,3.72-22.45,611.15,611.15,0,0,0,2.3-93.55c-.24-6.18-.47-12.2-.31-18.23a116,116,0,0,1,1.78-18,23.59,23.59,0,0,1,4.49-10.76,15,15,0,0,1,9.92-5.38c8.26-1.11,16.87-.46,25.69,4.4,5.94,3.42,11.78,7.06,17.45,11,2.86,1.95,5.55,4.09,8.24,6.27s5.31,4.48,7.87,6.86c3.78,3.46,7.27,7.22,10.74,11s6.89,7.64,10.21,11.55c3.17,3.73,2,7.19-2.3,7.43-2.33.14-4.8-.43-7.19-.6-7.21-.49-14.44-.66-21.6-1.16-5.82-.38-11.58-1.19-17.44-1.63l-.2-1.74,8.22-.83c2.74-.25,5.46-.47,8.21-.68,7.67-.58,9.85-3.95,9.51-12-.29-6.45-3.85-10.49-8.54-14.49a36.33,36.33,0,0,1-5.82-6.07c-2.62-3.42-7.86-6.42-13.16-8s-10.67-1.85-13.7.17a14.2,14.2,0,0,0-5.36,7.45c-3.11,10.34-2.38,21.42-1.93,32.34.77,25,.21,49.3-1.16,73.45a282.11,282.11,0,0,1-12,67.9,54.69,54.69,0,0,1-5.4,12.47,39.77,39.77,0,0,1-8.73,10.26c-6.94,5.74-15.11,8.12-23.91,8.27a169.22,169.22,0,0,1-19-.81l-18.54-1.88c-4.7-.45-9.38-.89-13.92-1.71a46.91,46.91,0,0,1-13.11-4,30.44,30.44,0,0,1-5-3.11,29,29,0,0,1-4.23-3.8,36.06,36.06,0,0,1-6.19-9.73,42.11,42.11,0,0,1-3.62-22.35c.67-7.54,3-15.27,6.3-23.12,1.42-3.42,2.62-7.27,5-10a115.22,115.22,0,0,1,13.87-13.35c7.51-6.23,16.86-8.32,26-10.55,4.24-1,8.93-.51,13.42-.34,7.39.34,14.84,1,22.36,1.65a15.92,15.92,0,0,1,3.21,1Z"/><path class="cls-1" d="M1692.82,540.4q-33.72-2.79-66.77-2.78l-.1-.8c1-.23,2-.5,3-.68,4.48-.76,9-1.51,13.51-2.17,8.16-1.2,13.1-6.06,14.85-14,1.87-8.64,3.69-17.39,5.36-26.27s3-17.7,4.18-26.76c.68-5.36,1.21-10.69,1.73-16.11s1-10.88,1.36-16.33.65-10.95,1-16.41.61-11.08.81-16.57c.31-7.49,1-15.21,6.23-20.88.85-.91,2-2.06,3.11-2.11,12.5-.59,25.28-.86,38-.7.49,0,1,.49,1.57,1.54l-12.8-.29c-4.57-.15-8.7,2.54-9.64,7.05a100.72,100.72,0,0,0-2.55,16.21c-1,23.84-2.67,47.56-5.76,70.49-1.19,8.43-2.64,16.77-4.23,25-.4,2.05-.79,4.08-1.23,6.13l-1.37,6.14q-1.39,6.12-2.88,12.14c-2.08,8.4-4,9.71-12.55,13.35,19.3,2.05,39.07,1.9,58.33,7.31l0,1.22a28.26,28.26,0,0,1-3.54.34c-11.28-.26-16,2.82-19.91,13.33-2.8,7.72-5.77,15.52-8.71,23.17s-5.91,15.2-9.22,22.71c-3.88,8.9-8.08,17.45-15.56,24.16-6.54,5.86-13.77,8.05-22.22,7.59-3.89-.21-8-.62-11.66.33-2.82.71-5.24,1.33-7.76.31-2.13-.85-4.2-1.83-6.28-2.74l.45-1.07c3.33-.43,6.72-1.31,10-1.12,7.09.43,12.24-3.22,16.84-7.82a51.18,51.18,0,0,0,9.72-14c2.48-5,4.44-10.36,6.56-15.65l3.72-9.47,3.57-9.47c2.39-6.35,4.82-12.73,7.37-19.13C1682.28,547.75,1683.3,545,1692.82,540.4Z"/><path class="cls-1" d="M1796.07,1029.67c4.89,4.36,9.28,9.08,14.09,13.53,11.72,10.93,26.53,14.55,41.43,16.66a43,43,0,0,0,20.93-2.17,60.91,60.91,0,0,0,18.74-11.35c3-2.54,6-5.11,8.84-7.72l8.69-7.92c3.15,3.58,5.08,5.58,5.15,7.75s-1.76,4.53-6.14,8.82a36.57,36.57,0,0,1-2.93,2.37c-7.81,6.23-15.59,12.22-23.54,18.2-14.88,11.37-30,22.36-45.31,32.34-11.07,7.06-21.93,13.81-33.2,20.16q-8.38,4.77-16.74,9.3t-17,8.78a85.72,85.72,0,0,1-11.34,4.91,43.42,43.42,0,0,1-12.28,2.31c-7.15.25-13-1.24-17.2-7.77-2.23-3.46-6-6.42-11.36-8.16,2.12,3.23,3.38,6,5.36,8.21,5.13,5.55,10.63,10.89,15.91,16.5a29.57,29.57,0,0,0,13.23,8.45,29.08,29.08,0,0,0,15.6,0,97.56,97.56,0,0,0,18.43-7.11c8.85-4.32,17.42-9,26.08-13.77,4.3-2.41,8.71-4.86,12.94-7.39s8.53-5.09,12.81-7.7c2.32-1.41,3.58-1.53,5.31,1.18l5.77,9.07,2.9,4.56,2.83,4.57,11.45,18.41c4.57,7.36,10.64,12.46,19.64,8.88a99,99,0,0,0,19.71-10.12c11-7.52,19.89-18.19,26.84-30.74,5-9.46,9.31-19.73,8-31.41-.86-8.1-3.45-14.33-10.29-17.29-5.64-2.45-11.35-1.84-17-.12-10.49,3.2-19.86,9.74-29.46,15.06-2.13,1.18-4.2,2.48-6.25,3.82s-4.15,2.68-6.24,4a159.94,159.94,0,0,1,13.86-10.71l10-7.08c3.35-2.38,6.71-4.79,10-7.24,6.58-4.9,13.15-9.93,19.68-15.15,2.73-2.16,4.88-5.25,6.88-8.31,1.58-2.46,1.14-5-.9-7.29l-9.67-10.9c-3.2-3.55-6.29-7-9.18-10.09-.51-2.52-.41-4.41-1.18-5.39-4.56-5.81-9.67-11.11-14.25-17a173.06,173.06,0,0,0-33.54-33c-8-5.91-15.47-5.81-23.75-1.63a105,105,0,0,0-22.08,15.07c-2.89,2.52-5.73,5-8.65,7.47l-8.82,7.32-8.84,7.18-4.42,3.53-4.53,3.49C1786.55,1021.45,1791.38,1025.45,1796.07,1029.67Zm53-38a47.89,47.89,0,0,1,12.55-5.81c6.19-1.89,11.58,1,16.23,5.34,4.93,4.52,9.29,9.57,14,14.34,2.2,2.23,1.94,4.12,0,6.26-2.3,2.55-4.59,5-7.07,7.37s-5,4.59-7.58,6.71a102.78,102.78,0,0,1-16.36,11.08c-5.17,2.78-11.52,3.24-17.4,4.12-8.81,1.31-17.21-1.26-25.51-3.68-5.55-1.63-10.91-3.89-17-6,3.85-3.66,7.71-7.26,11.62-10.77,2-1.75,3.92-3.49,5.9-5.2s3.9-3.41,5.87-5.07q5.91-5,12.08-9.69C1840.56,997.51,1844.79,994.51,1849,991.63Zm28.34,113.56a229.15,229.15,0,0,1,20.84-11.16,15.7,15.7,0,0,1,9-1.43c8.68,1.45,11.28,8,7.9,18.25a73.26,73.26,0,0,1-5.89,13,64.64,64.64,0,0,1-3.7,5.69,62.4,62.4,0,0,1-4.27,5.13,66.42,66.42,0,0,1-21.19,15.24,22.56,22.56,0,0,1-9.4,2c-2.4,0-5.41-1-6.94-2.74l-19.58-23.38c3-1.76,5.88-3.51,8.7-5.26l8.28-5.24C1866.6,1111.91,1872,1108.5,1877.38,1105.19Z"/><path class="cls-1" d="M1801.44,812.07c-2.9-2-5.94-3.84-8.66-6.05-8.49-6.88-18.26-9.2-28.82-9.53a45.94,45.94,0,0,0-26.77,7.18,53.83,53.83,0,0,0-5.37,3.88,67.26,67.26,0,0,0-5,4.53,95.94,95.94,0,0,0-9.11,10.53,38.37,38.37,0,0,0-4.36,7.24,40.55,40.55,0,0,0-2.67,7.56,39.58,39.58,0,0,0-1.07,7.8,59.38,59.38,0,0,0,.3,8,26.66,26.66,0,0,0,2.57,9.18,28.55,28.55,0,0,0,5.8,7.89c5.08,4.89,10.63,9.54,16.28,14.12,1.47,1.23,4.06,1.42,6.21,1.82a35.87,35.87,0,0,0,18.86-1.28,42.07,42.07,0,0,0,15.64-10.21c5.29-5.28,10.58-10.66,15.72-16.27,2.59-2.82,5-5.66,7.43-8.59s4.73-5.93,7-9A618.31,618.31,0,0,0,1854,761c1.41-2.73,2.9-5.44,4.34-8.09s3-5.27,4.53-7.83a114.32,114.32,0,0,1,10.52-14.66c5.57-6.52,12.43-10.09,20.56-6.77,7.7,3.16,14.86,8,20,16.61,3.43,5.91,6.67,12,9.6,18.2,1.5,3.11,2.78,6.3,4,9.53s2.35,6.52,3.37,9.85c.75,2.45,1.46,4.9,2.1,7.38s1.17,5,1.72,7.49c1.09,5,2.08,10.05,3.1,15.08.89,4.8-1.87,7.23-5.71,5.28-2.09-1-3.91-2.76-5.94-4.09-6.06-4-12.18-7.77-18.14-11.77-2.41-1.62-4.78-3.31-7.13-5s-4.78-3.41-7.18-5.07l.7-1.61c5,2.24,10.1,4.49,15,6.87,6.93,3.32,10.5,1.49,14.23-5.61,2.9-5.72,1.89-11-.19-16.79a37.77,37.77,0,0,1-2-8.15c-.56-4.26-3.6-9.46-7.38-13.5s-8.3-6.92-11.93-6.68a14.22,14.22,0,0,0-8.38,3.78c-7.87,7.38-12.78,17.33-17.84,27-2.94,5.49-6,10.92-9,16.28s-6,10.63-9.28,15.88c-6.4,10.51-12.7,20.74-19.38,30.87q-4.81,7.41-9.93,14.39c-3.49,4.68-7.1,9.22-10.78,13.62s-7.43,8.67-11.4,12.82-8,8.16-12.17,12a56,56,0,0,1-10.84,8.12,39.52,39.52,0,0,1-12.68,4.54c-8.88,1.52-17.13-.49-24.92-4.74a163.36,163.36,0,0,1-16-10.16c-5.1-3.59-10.18-7.28-15.17-10.88-7.56-5.5-15.55-10.84-20.57-18.46a31.72,31.72,0,0,1-4.57-10.61,37.82,37.82,0,0,1-.52-11.54,39.68,39.68,0,0,1,2.61-11.3,49.67,49.67,0,0,1,5.41-9.92c4.35-6.22,10.26-11.74,17-16.91,3-2.26,5.89-5,9.29-6.19a114.85,114.85,0,0,1,18.68-4.63c9.61-1.64,18.76,1.23,27.83,3.9,4.19,1.22,8,4,11.81,6.41,6.22,4,12.36,8.25,18.53,12.6a16.7,16.7,0,0,1,2.3,2.44Z"/><path class="cls-1" d="M1820.4,944.32q-7-4.8-13.91-9.44t-14.15-9.09c-4.71-3-9.4-5.89-14.11-8.75s-9.57-5.66-14.34-8.4l.32-.75c1,.3,2,.55,2.91.9,4.27,1.57,8.53,3.2,12.79,4.85,7.77,3,14.39,1.28,19.85-4.75,12-13.13,23.68-26.72,34.72-41.22,13-17.18,25-35.58,36.85-54.24,4-6.34,8.47-12.7,15.85-15,1.19-.37,2.71-.81,3.74-.29q8.34,4.29,16.68,8.88l8.34,4.65c2.76,1.57,5.48,3.16,8.22,4.77.42.25.66.95.58,2.12L1913.81,812c-4-2.39-8.86-2.13-11.89,1.31-3.58,4-7.36,8.14-10.3,12.76L1882,841c-3.29,5-6.62,9.9-9.94,14.77l-5,7.26-2.52,3.59-2.59,3.58q-5.19,7.13-10.49,14c-5.09,6.69-10.62,13.21-16.09,19.52q-4.12,4.74-8.3,9.34t-8.6,9.09c-6,6.25-8.31,6.45-17.55,5.32,3.94,2.85,8,5.59,12.06,8.33s8,5.47,12.06,8.29,8,5.73,11.84,8.83a130,130,0,0,1,11,9.95l-.59,1.08a28.52,28.52,0,0,1-3.23-1.47c-9.61-5.85-15.28-5.55-23.91,1.64-12.63,10.6-25.42,21.13-38.34,30.84-7.84,5.79-15.8,11.1-25.61,13.19-8.53,1.82-16,.12-23-4.49-3.25-2.12-6.55-4.49-10.23-5.52-2.8-.78-5.2-1.46-6.87-3.59l-4.15-5.51.92-.7c3.11,1.29,6.52,2.21,9.27,4,6,3.9,12.21,3.3,18.51,1.61,11.36-3.06,19.88-10.5,28.87-17.59,5.28-4.19,10.44-8.48,15.72-12.79l15.88-12.91C1807.58,945.44,1809.89,943.53,1820.4,944.32Z"/><path class="cls-1" d="M1357,1691.71c-1.41,6.3-3.26,12.55-4.73,18.93a56.41,56.41,0,0,0-.36,22.72,109.13,109.13,0,0,0,6.56,21.47,43.25,43.25,0,0,0,12.33,17.09,59.82,59.82,0,0,0,19.16,10.59c7.34,2.56,14.85,5.13,22.31,7.43-3,9.09-3.08,10.62-14.87,7.36-1.22-.34-2.34-.89-3.5-1.34-4.65-1.83-9.22-3.64-13.8-5.57l-13.71-5.78-12.89-5.46c-4.27-1.85-8.55-3.79-12.78-5.71s-8.43-3.87-12.58-5.85c-2.07-1-4.13-2-6.2-3l-6.16-3.14c-11.63-6-22.92-12.11-34-18.7-5.55-3.25-11-6.51-16.43-9.85s-10.79-6.84-16.08-10.3a86.3,86.3,0,0,1-9.94-7.36,43.5,43.5,0,0,1-8.14-9.47c-3.79-6.07-5.46-11.93-1.86-18.78,1.88-3.69,2.58-8.39,1.4-13.93-1.76,3.43-3.56,6-4.45,8.76-2.25,7.21-4.14,14.64-6.36,22-3.36,11.15-.89,21.05,7.12,29.16a98.22,98.22,0,0,0,15.4,12.43c8.18,5.52,16.45,10.58,25,15.7,4.25,2.52,8.56,5.11,12.87,7.52s8.67,4.84,13.06,7.24c2.38,1.3,3.11,2.35,1.63,5.19l-5,9.54-2.5,4.79-2.54,4.73q-5.13,9.57-10.22,19.1c-2,3.88-3.4,7.67-3.3,11.34s1.64,7.13,5.44,10.12a100.27,100.27,0,0,0,18.59,12,80.12,80.12,0,0,0,9.3,3.72c1.6.52,3.23,1,4.87,1.43s3.28.77,5,1.08a105.66,105.66,0,0,0,20.85,1.71,78.28,78.28,0,0,0,16-1.92,47.89,47.89,0,0,0,7.78-2.57,40.62,40.62,0,0,0,7.34-4.28c6.57-4.8,10.66-10.17,9.84-17.5-.69-6.13-4-10.73-8.38-14.84-8-7.56-18.33-12.33-27.73-18-4.14-2.47-8.68-4.64-13-7,2.82.94,5.56,2,8.25,3.16s5.32,2.31,8,3.53q11.06,5.15,22.38,10.21,11.28,4.88,22.91,9.45a34.21,34.21,0,0,0,10.65,1.88c2.91.14,4.89-1.52,5.85-4.43,3.09-9.38,6.3-18.57,8.8-26.79,1.92-1.71,3.61-2.57,4.07-3.73,2.72-6.95,4.87-13.81,7.69-20.82a169.07,169.07,0,0,0,11.91-45.6c1.18-9.79-2.62-16.21-10.41-21.38a102.77,102.77,0,0,0-24-11.59c-7.24-2.48-14.46-5.15-21.56-7.81-3.56-1.34-7.07-2.66-10.61-4.06l-10.57-4.31C1359.37,1679.33,1358.34,1685.55,1357,1691.71Zm59.37,27a48.71,48.71,0,0,1,11.29,8c4.72,4.4,4.89,10.57,3.46,16.73-1.52,6.42-3.69,12.79-5.47,19.26-.83,3-2.6,3.75-5.39,3.17a140.31,140.31,0,0,1-19.53-5.72,98.49,98.49,0,0,1-17.77-8.69c-5-3.12-8.54-8.37-12.24-13-5.52-7-7.49-15.55-9.53-24-1.36-5.63-2.08-11.41-3.23-17.66,10.21,3.08,20.14,6.19,29.92,9.84A258.61,258.61,0,0,1,1416.38,1718.67Zm-84.3,81.13c7,3.84,13.56,8.07,20.06,12.51a15.84,15.84,0,0,1,5.74,7.1c1.53,4.14,1.22,7.56-.8,10.25s-5.74,4.68-11.07,5.69c-9.78,1.89-18.94,1.93-27.55-.11a65.21,65.21,0,0,1-12.39-4.18,67.75,67.75,0,0,1-11.38-6.57,22.59,22.59,0,0,1-6.45-7.13c-1.17-2.09-1.87-5.17-1.1-7.38.84-2.38,1.7-4.76,2.58-7.12l2.63-7.17c1.77-4.78,3.56-9.55,5.25-14.35q4.5,2.54,8.9,4.92c2.94,1.6,5.81,3.07,8.67,4.57C1320.88,1793.82,1326.5,1796.75,1332.08,1799.8Z"/><path class="cls-1" d="M1548.3,1587.89c.34-3.49.36-7.07.92-10.51,1.71-10.81-1.15-20.42-6.14-29.73a46,46,0,0,0-19.6-19.6c-7.79-4.08-16.78-6.32-26.14-7.48a39.34,39.34,0,0,0-8.44-.17,38.23,38.23,0,0,0-7.88,1.44,47.74,47.74,0,0,0-14,7.17,27.47,27.47,0,0,0-10.6,15.76c-.84,3.43-1.58,6.93-2.24,10.47s-1.26,7.12-1.89,10.65c-.32,1.9.81,4.24,1.54,6.31,4.6,13.16,14.38,20.66,27.19,24.23,7.19,1.93,14.49,3.83,21.9,5.46a196.45,196.45,0,0,0,22.45,3.73,611.16,611.16,0,0,0,93.55,2.29c6.18-.24,12.2-.47,18.23-.3a117,117,0,0,1,18,1.77,23.48,23.48,0,0,1,10.77,4.5,14.92,14.92,0,0,1,5.38,9.92c1.11,8.25.46,16.87-4.4,25.69-3.43,5.94-7.06,11.78-11,17.44-1.95,2.86-4.1,5.55-6.28,8.25s-4.47,5.31-6.86,7.87c-3.45,3.78-7.21,7.27-11,10.73s-7.64,6.89-11.55,10.22c-3.74,3.16-7.2,2-7.44-2.31-.13-2.33.44-4.79.61-7.18.49-7.22.66-14.45,1.16-21.61.38-5.82,1.18-11.58,1.62-17.43l1.75-.21.82,8.23c.26,2.74.48,5.46.69,8.2.58,7.67,4,9.85,12,9.52,6.45-.29,10.49-3.86,14.48-8.55a36.72,36.72,0,0,1,6.08-5.81c3.42-2.63,6.42-7.86,8-13.16s1.85-10.67-.17-13.7a14.17,14.17,0,0,0-7.46-5.36c-10.33-3.12-21.41-2.38-32.33-1.93-25,.76-49.3.2-73.46-1.17a282.12,282.12,0,0,1-67.89-12,54.66,54.66,0,0,1-12.47-5.39,39.84,39.84,0,0,1-10.26-8.74c-5.74-6.94-8.13-15.11-8.27-23.9a166.79,166.79,0,0,1,.8-19c.63-6.15,1.25-12.35,1.88-18.55.46-4.69.9-9.37,1.72-13.91a47,47,0,0,1,4-13.12,30.87,30.87,0,0,1,3.11-5,28.88,28.88,0,0,1,3.8-4.22,35.84,35.84,0,0,1,9.73-6.2A42.19,42.19,0,0,1,1495,1498c7.54.67,15.27,3,23.12,6.3,3.42,1.42,7.26,2.62,10,5a112.89,112.89,0,0,1,13.35,13.86c6.24,7.51,8.33,16.86,10.56,26,1,4.24.5,8.94.33,13.43-.34,7.38-1,14.84-1.64,22.36a16.11,16.11,0,0,1-1,3.21Z"/><path class="cls-1" d="M1443.12,1670.27q2.81-33.72,2.78-66.78l.81-.1c.23,1,.5,2,.67,3,.77,4.48,1.51,9,2.18,13.51,1.19,8.16,6.06,13.11,14,14.86,8.63,1.86,17.39,3.68,26.26,5.35s17.71,3,26.77,4.18c5.35.69,10.69,1.22,16.11,1.74s10.88,1,16.33,1.36l16.41,1c5.51.29,11.07.61,16.56.8,7.49.32,15.22,1,20.88,6.24.92.85,2.06,1.95,2.12,3.1.59,12.5.86,25.28.7,38,0,.48-.49,1-1.54,1.56.09-4.26.19-8.51.29-12.79.15-4.57-2.54-8.71-7-9.64a100.91,100.91,0,0,0-16.21-2.56c-23.84-1-47.56-2.67-70.5-5.75-8.42-1.19-16.76-2.65-25-4.23-2-.41-4.08-.8-6.13-1.24l-6.14-1.37c-4.08-.92-8.13-1.89-12.14-2.88-8.41-2.08-9.71-4-13.35-12.55-2,19.31-1.91,39.08-7.31,58.33l-1.22,0a28.1,28.1,0,0,1-.35-3.54c.27-11.27-2.81-16-13.32-19.91-7.73-2.8-15.52-5.76-23.18-8.7s-15.2-5.92-22.7-9.22c-8.91-3.88-17.45-8.09-24.16-15.56-5.86-6.55-8-13.78-7.6-22.23.22-3.88.62-7.94-.32-11.66-.71-2.81-1.33-5.24-.32-7.75.86-2.14,1.84-4.2,2.75-6.29l1.07.46c.43,3.32,1.31,6.71,1.12,10-.43,7.08,3.22,12.23,7.82,16.83a51.21,51.21,0,0,0,14,9.73c5,2.47,10.35,4.44,15.65,6.55l9.47,3.72,9.47,3.58c6.34,2.39,12.73,4.81,19.12,7.36C1435.78,1659.73,1438.57,1660.75,1443.12,1670.27Z"/><path class="cls-1" d="M953.86,1773.51c-4.37,4.89-9.08,9.29-13.53,14.09-10.93,11.72-14.56,26.54-16.66,41.43a42.87,42.87,0,0,0,2.17,20.93,61,61,0,0,0,11.34,18.74c2.54,3,5.12,6,7.73,8.85l7.92,8.69c-3.59,3.15-5.58,5.07-7.75,5.14s-4.53-1.75-8.82-6.14a36.57,36.57,0,0,1-2.37-2.93c-6.23-7.81-12.23-15.59-18.2-23.53-11.38-14.89-22.36-30-32.34-45.32-7.06-11.06-13.81-21.93-20.16-33.2q-4.77-8.38-9.3-16.74-4.5-8.51-8.78-17a86.41,86.41,0,0,1-4.92-11.33,43.84,43.84,0,0,1-2.3-12.29c-.25-7.14,1.24-13,7.76-17.2,3.47-2.22,6.43-6,8.17-11.35-3.24,2.11-6.05,3.37-8.21,5.36-5.55,5.13-10.89,10.62-16.5,15.91a29.51,29.51,0,0,0-8.46,13.22,29.18,29.18,0,0,0,0,15.6,97.65,97.65,0,0,0,7.11,18.44c4.32,8.85,9,17.41,13.76,26.08,2.42,4.3,4.87,8.71,7.39,12.94s5.1,8.53,7.7,12.8c1.42,2.32,1.53,3.59-1.17,5.31l-9.07,5.77-4.56,2.91-4.57,2.83L818.87,1843c-7.37,4.57-12.46,10.64-8.88,19.64a99.24,99.24,0,0,0,10.11,19.71c7.53,11.05,18.2,19.89,30.74,26.85,9.46,5,19.73,9.31,31.42,8,8.09-.86,14.33-3.45,17.28-10.29,2.45-5.64,1.85-11.35.13-17-3.2-10.49-9.75-19.85-15.06-29.46-1.18-2.13-2.49-4.19-3.82-6.25s-2.68-4.15-4-6.24a159.49,159.49,0,0,1,10.71,13.86l7.09,10c2.38,3.35,4.79,6.72,7.24,10,4.9,6.57,9.93,13.15,15.15,19.68,2.15,2.72,5.25,4.87,8.31,6.87,2.45,1.59,5,1.15,7.29-.89l10.9-9.67c3.55-3.2,7-6.29,10.09-9.19,2.51-.51,4.41-.4,5.39-1.18,5.81-4.56,11.11-9.67,17-14.24a173.11,173.11,0,0,0,33.05-33.54c5.9-8,5.81-15.47,1.63-23.76a105.52,105.52,0,0,0-15.07-22.08c-2.52-2.88-5-5.73-7.48-8.64l-7.32-8.83-7.17-8.84-3.53-4.42-3.49-4.52C962.08,1764,958.08,1768.83,953.86,1773.51Zm38,53A47.57,47.57,0,0,1,997.7,1839c1.9,6.19-1,11.58-5.33,16.22-4.52,4.94-9.57,9.29-14.34,14-2.23,2.2-4.12,1.94-6.26,0-2.55-2.31-5-4.6-7.37-7.08s-4.6-5-6.72-7.57a105.06,105.06,0,0,1-11.08-16.36c-2.77-5.18-3.23-11.53-4.11-17.41-1.31-8.8,1.25-17.21,3.67-25.51,1.63-5.54,3.89-10.91,6-16.95q5.49,5.77,10.76,11.63,2.64,2.93,5.21,5.9c1.71,2,3.4,3.89,5.07,5.87,3.33,3.94,6.57,8,9.69,12.07S989,1822.23,991.89,1826.49Zm-113.55,28.34a231.39,231.39,0,0,1,11.15,20.83,15.74,15.74,0,0,1,1.44,9c-1.45,8.68-7.95,11.27-18.25,7.9a73.67,73.67,0,0,1-13-5.9A64.56,64.56,0,0,1,854,1883a62.51,62.51,0,0,1-5.13-4.28,66.26,66.26,0,0,1-15.24-21.19,22.38,22.38,0,0,1-2-9.4c0-2.39,1-5.41,2.74-6.94l23.38-19.58q2.64,4.46,5.26,8.71l5.23,8.27C871.62,1844,875,1849.4,878.34,1854.83Z"/><path class="cls-1" d="M1171.46,1778.89c2-2.9,3.84-6,6-8.67,6.89-8.49,9.21-18.26,9.54-28.82a46,46,0,0,0-7.18-26.77,54.66,54.66,0,0,0-3.89-5.37q-2.12-2.61-4.52-5a95.87,95.87,0,0,0-10.53-9.12,39.23,39.23,0,0,0-7.24-4.36,41.37,41.37,0,0,0-7.57-2.67,40.13,40.13,0,0,0-7.79-1.07,62.89,62.89,0,0,0-8,.3,27.11,27.11,0,0,0-9.18,2.57,28.39,28.39,0,0,0-7.89,5.81c-4.9,5.07-9.55,10.62-14.13,16.27-1.22,1.47-1.41,4.07-1.81,6.22a35.84,35.84,0,0,0,1.28,18.85,42,42,0,0,0,10.21,15.65c5.27,5.28,10.66,10.58,16.27,15.71,2.81,2.6,5.66,5,8.59,7.43s5.93,4.73,9,7a619.6,619.6,0,0,0,79.88,48.7c2.72,1.41,5.44,2.9,8.09,4.34s5.27,3,7.83,4.52a115.1,115.1,0,0,1,14.66,10.53c6.52,5.57,10.09,12.42,6.77,20.55-3.16,7.7-8,14.86-16.61,20-5.92,3.43-12,6.67-18.2,9.6-3.11,1.5-6.3,2.78-9.53,4s-6.52,2.36-9.86,3.38c-2.44.74-4.89,1.46-7.37,2.09s-5,1.18-7.49,1.72c-5,1.09-10,2.09-15.08,3.1-4.81.89-7.23-1.86-5.29-5.71,1-2.09,2.77-3.9,4.1-5.94,4-6,7.77-12.18,11.77-18.13,1.61-2.42,3.31-4.78,5-7.14s3.41-4.78,5.07-7.17l1.61.69c-2.24,5-4.49,10.1-6.87,15-3.32,6.92-1.5,10.49,5.61,14.22,5.72,2.91,11,1.89,16.79-.18a37.08,37.08,0,0,1,8.15-2c4.26-.56,9.46-3.59,13.49-7.38s6.92-8.3,6.69-11.93a14.33,14.33,0,0,0-3.78-8.38c-7.38-7.87-17.34-12.77-27-17.84-5.5-2.93-10.93-6-16.28-9s-10.63-6-15.89-9.29c-10.5-6.4-20.73-12.7-30.86-19.38q-7.41-4.82-14.39-9.92t-13.62-10.79c-4.41-3.71-8.67-7.42-12.82-11.4s-8.16-8-12-12.17a56.5,56.5,0,0,1-8.12-10.84,39.33,39.33,0,0,1-4.53-12.68c-1.53-8.87.48-17.12,4.74-24.91a165.19,165.19,0,0,1,10.15-16c3.59-5.11,7.29-10.18,10.89-15.17,5.5-7.57,10.84-15.55,18.46-20.58a31.68,31.68,0,0,1,10.6-4.57,38.22,38.22,0,0,1,11.55-.52,39.55,39.55,0,0,1,11.29,2.62,48.76,48.76,0,0,1,9.93,5.41c6.21,4.34,11.73,10.25,16.91,17,2.26,2.94,5,5.88,6.18,9.29a112.71,112.71,0,0,1,4.63,18.67c1.64,9.62-1.23,18.77-3.89,27.83-1.22,4.19-4,8-6.42,11.81-4,6.23-8.24,12.37-12.59,18.53a17.32,17.32,0,0,1-2.44,2.31Z"/><path class="cls-1" d="M1039.2,1797.84q4.82-7,9.45-13.91t9.09-14.14q4.46-7.07,8.75-14.12t8.4-14.33l.75.31c-.3,1-.55,2-.9,2.92-1.57,4.26-3.2,8.52-4.86,12.79-3,7.76-1.27,14.38,4.75,19.85,13.13,12,26.73,23.67,41.23,34.71,17.17,13,35.57,25,54.24,36.85,6.34,4,12.7,8.47,15,15.85.37,1.19.81,2.72.29,3.74q-4.3,8.36-8.89,16.68l-4.64,8.34c-1.57,2.76-3.17,5.48-4.77,8.23-.25.42-1,.66-2.12.57l6.63-10.93c2.39-3.94,2.12-8.86-1.31-11.89-4-3.57-8.14-7.35-12.76-10.3l-15-9.65q-7.45-4.94-14.78-9.93l-7.25-5-3.6-2.51-3.57-2.6q-7.12-5.19-14-10.48c-6.69-5.1-13.21-10.62-19.52-16.09q-4.74-4.12-9.34-8.31c-3.07-2.84-6.11-5.72-9.1-8.59-6.25-6-6.44-8.32-5.31-17.56-2.85,4-5.59,8-8.33,12.07s-5.47,8-8.3,12-5.72,8-8.82,11.84a127.13,127.13,0,0,1-10,11l-1.07-.59a26.87,26.87,0,0,1,1.47-3.23c5.85-9.6,5.55-15.27-1.64-23.91-10.6-12.63-21.13-25.42-30.85-38.34-5.78-7.84-11.09-15.79-13.18-25.61-1.82-8.53-.12-16,4.48-23,2.13-3.24,4.5-6.55,5.53-10.23.78-2.79,1.46-5.2,3.59-6.86l5.51-4.16.7.93c-1.29,3.1-2.21,6.51-4,9.26-3.9,6-3.3,12.21-1.61,18.51,3.05,11.36,10.5,19.88,17.59,28.88,4.19,5.28,8.48,10.44,12.78,15.71l12.91,15.89C1038.09,1785,1040,1787.34,1039.2,1797.84Z"/><path class="cls-1" d="M564,1642.58c-6.17,2-12.59,3.63-18.79,5.48-15.28,4.62-25.83,15.65-35.12,27.52-9.14,11.63-11,25.85-8.16,41.16,1.46,7.63,3.1,15.26,4.79,23-9.33,1.83-10.73,2.66-13.86-9.12-.31-1.23-.39-2.49-.58-3.73-1.46-9.91-2.73-19.69-4-29.47-1.15-9.35-2.26-18.62-3.22-27.8s-1.62-18.5-2.13-27.62c-.36-6.48-.53-13-.7-19.5l-.17-9.67,0-4.81,0-4.84c.11-12.92.39-25.53,1.17-38.25.47-8.32,1.46-16.47,5.5-24.05a23.82,23.82,0,0,1,6-7.76,15.93,15.93,0,0,1,9.33-3.3,20.66,20.66,0,0,0,12.74-5.76c-3.85.2-6.9-.13-9.81.56-7.4,1.72-14.72,3.75-22.21,5.53-11.32,2.67-18.65,9.76-21.68,20.77a98.21,98.21,0,0,0-3.08,19.57c-.62,9.76-.9,19.52-1.08,29.46-.11,5-.06,9.89,0,14.87s.13,10,.24,15c.07,2.73-.47,3.88-3.67,4l-21.51.89-21.63.68c-8.69.32-16.18,3.1-17.52,12.62a104.3,104.3,0,0,0-1.08,22.13,72.71,72.71,0,0,0,1.46,9.93,87.12,87.12,0,0,0,2.78,9.74,94.07,94.07,0,0,0,9,18.89,79.54,79.54,0,0,0,9.65,13,43.77,43.77,0,0,0,13.54,9.61c7.38,3.37,14.2,4.06,20.12-.32,4.93-3.65,7.27-8.9,8.61-14.67a75.76,75.76,0,0,0,1.65-16.36c.1-5.56-.09-11.15,0-16.67.1-4.87-.37-9.8-.53-14.66a138.56,138.56,0,0,1,2.37,17.32q.56,6.13,1.1,12.25l1.33,12.21c.47,4.08,1,8.18,1.5,12.29s1.1,8.25,1.77,12.32a36,36,0,0,0,3.75,10.11c1.32,2.61,3.73,3.51,6.73,2.9,9.63-2,19.31-4,27.59-5.86,2.43.82,4,1.89,5.24,1.69,7.38-1.17,14.48-2.87,21.89-3.84,2-.26,3.95-.54,5.91-.86s3.93-.73,5.88-1.13q5.85-1.23,11.52-2.79t11.19-3.48q5.53-2,10.91-4.31c9.09-3.93,12.75-10.44,13.3-19.73a107.7,107.7,0,0,0-2-26.62c-1.45-7.56-2.86-15-4.09-22.51s-2.35-15-3.39-22.52C575.84,1638.54,570,1640.64,564,1642.58Zm6.44,64.9a48.52,48.52,0,0,1-1.28,13.81c-1.47,6.32-6.69,9.51-12.72,11.35-6.33,1.91-13,3.34-19.44,5-3,.78-4.52-.41-5.4-3.14a134.51,134.51,0,0,1-4.89-19.69,105.73,105.73,0,0,1-1.37-19.77c.18-5.86,2.94-11.55,5.1-17.07,3.25-8.26,9.7-14.28,16-20.28,4.2-4,8.86-7.56,13.69-11.71,1.23,5.19,2.4,10.36,3.47,15.52s2.14,10.18,3,15.28,1.66,10.24,2.31,15.35S570.12,1702.31,570.46,1707.48ZM458,1675.3a222.19,222.19,0,0,1-.77,23.64,15.82,15.82,0,0,1-3.28,8.55c-5.6,6.81-12.46,5.73-19.72-2.3a59,59,0,0,1-4.56-5.7c-1.38-1.94-2.64-3.92-3.78-5.91a63.63,63.63,0,0,1-5.43-12.27,67.71,67.71,0,0,1-2.59-26,22,22,0,0,1,2.9-9.14c1.23-2.06,3.54-4.21,5.83-4.64,10-2,20.07-3.46,30-5.3.09,6.89.38,13.43.64,19.92S457.74,1669,458,1675.3Z"/><path class="cls-1" d="M749.67,1756.29c3.2-1.46,6.27-3.09,9.55-4.38,10.23-3.94,17.15-11.3,22.7-20.17a46.15,46.15,0,0,0,7.21-26.78c-.32-8.88-2.91-17.68-6.58-26.36a39.23,39.23,0,0,0-9.26-13.54,42.44,42.44,0,0,0-6.21-4.79,47.42,47.42,0,0,0-7-3.81,28,28,0,0,0-9.25-2.31,26.21,26.21,0,0,0-9.72,1c-3.4,1-6.82,2.15-10.21,3.33s-6.77,2.37-10.16,3.64c-1.81.68-3.28,2.83-4.71,4.5-9.11,10.58-10.71,22.79-7.37,35.62,1.87,7.32,3.91,14.52,6.2,21.73a197.6,197.6,0,0,0,8,21.34c12.38,28,27.54,55.32,44.71,82.17,6.59,10.42,12.74,20.68,16.8,32.1,2.87,8.08,2.54,15.8-4.43,21.18a45.73,45.73,0,0,1-10.94,6.38,35.91,35.91,0,0,1-13.52,2.62c-6.85,0-13.75-.14-20.61-.78a172.78,172.78,0,0,1-20.52-3.3c-5-1.23-9.88-2.68-14.78-4.21l-7.33-2.37-7.26-2.56c-4.61-1.64-5.33-5.2-1.71-7.58,2-1.28,4.37-2,6.53-3.09,3.24-1.59,6.43-3.19,9.63-4.84s6.41-3.32,9.64-4.91c5.23-2.58,10.65-4.84,15.9-7.27l1,1.42c-4.45,3.18-8.92,6.33-13.46,9.46-6.36,4.35-6.57,8.35-2.27,15.1a16,16,0,0,0,6.32,5.83,30.13,30.13,0,0,0,8.3,2.48,36.24,36.24,0,0,1,8.07,2.33c3.95,1.77,10,1.69,15.4.42s10.18-3.77,11.79-7a14.28,14.28,0,0,0,.92-9.16,59.92,59.92,0,0,0-6-14.93c-2.58-4.76-5.59-9.33-8.48-14q-4.92-8-9.6-15.9l-2.32-4-2.28-4-4.47-8-4.39-8c-1.45-2.66-2.89-5.32-4.29-8l-8.32-16.14c-2.68-5.18-5.14-10.54-7.44-15.88s-4.44-10.69-6.41-16a300.55,300.55,0,0,1-9.68-32.89c-2.07-9.11-2.36-18,.87-26.76,3.13-8.43,9-14.63,16.59-19.14,5.47-3.22,11.14-6.12,16.82-8.75,2.84-1.32,5.68-2.58,8.51-3.82l4.25-1.85,4.24-1.93c8.63-4,17.13-7.87,26.31-8.58a30.69,30.69,0,0,1,11.44,1.43,35.32,35.32,0,0,1,10.25,5.28,43.61,43.61,0,0,1,8.44,7.94,44.59,44.59,0,0,1,5.85,9.66c3.17,6.93,5,14.72,6.1,23.15.48,3.67,1.36,7.58.69,11.12a114.45,114.45,0,0,1-5.34,18.48c-3.4,9.15-10.47,15.66-17.32,22.19a26.79,26.79,0,0,1-5.43,3.86c-2,1.09-4,2-6,3.08-6.57,3.41-13.37,6.68-20.21,9.78a15.52,15.52,0,0,1-3.25.72Z"/><path class="cls-1" d="M625.71,1706.43c10.2-4.82,20.27-9.89,30.1-15s19.62-10.58,29.12-16l.48.64c-.74.7-1.46,1.43-2.23,2.07q-5.23,4.32-10.59,8.57c-6.48,5.16-8.3,11.77-5.86,19.58C672.1,1723.23,678,1740.26,685,1757l3.18,7.48c1.08,2.49,2.21,4.92,3.34,7.39q3.4,7.38,7,14.79c2.37,5,4.86,9.8,7.35,14.72l7.55,14.78c3.47,6.64,6.76,13.63,5,21.16-.28,1.21-.66,2.75-1.64,3.38-5.27,3.39-10.65,6.77-16.07,10s-10.9,6.4-16.45,9.55c-.42.24-1.15.1-2.12-.55l11.23-6.17c4-2.17,6.27-6.55,4.83-10.93a99.5,99.5,0,0,0-5.89-15.27c-2.77-5.24-5.45-10.62-8.11-15.94s-5.28-10.62-7.84-15.9-5-10.72-7.38-16.06-4.7-10.63-6.86-16.07c-3.17-7.91-6.14-15.73-8.83-23.68s-5.16-15.94-7.48-23.85c-2.38-8.38-1.39-10.48,4.21-17.88-8.86,3.91-17.59,8.45-26.49,12.55a168.62,168.62,0,0,1-27.69,10.35l-.63-1.05a27,27,0,0,1,2.88-2c4.94-2.69,8.08-5.35,9.72-8.66s1.77-7.28.85-12.87q-2-12.16-4.09-24.4c-1.29-8.1-2.42-16.26-3.39-24.3-1.18-9.54-1.72-19.22,1.38-28.76A28.93,28.93,0,0,1,618,1601.11c3.46-1.74,7.15-3.37,9.9-6.07,2.08-2,3.88-3.79,6.58-4.19,2.29-.35,4.58-.55,6.86-.83l.14,1.16c-2.67,2-5.17,4.51-8.08,6-6.38,3.22-9,9-10.66,15.23a52.23,52.23,0,0,0-1.39,17c.18,2.82.51,5.64.89,8.47s.86,5.6,1.28,8.39c1,6.64,2.09,13.33,3.17,20.08s2.24,13.38,3.25,20.16C631.17,1694.78,631.66,1697.76,625.71,1706.43Z"/><path class="cls-1" d="M210,931.31c-4.9-4.37-9.29-9.08-14.09-13.54-11.72-10.93-26.54-14.55-41.43-16.66a43.1,43.1,0,0,0-20.93,2.17,60.68,60.68,0,0,0-18.74,11.35c-3,2.54-6,5.11-8.85,7.73l-8.69,7.91c-3.15-3.58-5.08-5.57-5.15-7.75s1.76-4.53,6.15-8.82a34.88,34.88,0,0,1,2.93-2.37c7.8-6.23,15.59-12.22,23.53-18.19,14.88-11.38,30-22.37,45.31-32.34,11.07-7.07,21.93-13.82,33.21-20.16q8.39-4.78,16.74-9.31t17-8.77a83.81,83.81,0,0,1,11.33-4.92,43.78,43.78,0,0,1,12.28-2.31c7.15-.25,13.06,1.25,17.21,7.77,2.22,3.46,6,6.42,11.35,8.16-2.11-3.23-3.38-6-5.36-8.21-5.13-5.54-10.63-10.89-15.91-16.5a29.52,29.52,0,0,0-13.23-8.45,29,29,0,0,0-15.59,0,97.39,97.39,0,0,0-18.44,7.11c-8.85,4.32-17.41,9-26.08,13.77-4.3,2.41-8.71,4.86-12.94,7.39s-8.53,5.09-12.8,7.7c-2.32,1.41-3.59,1.53-5.32-1.18-1.92-3-3.84-6-5.77-9.06l-2.9-4.57L152,814.73l-11.45-18.42c-4.56-7.36-10.63-12.45-19.63-8.88a99.37,99.37,0,0,0-19.72,10.12c-11,7.52-19.89,18.2-26.84,30.74-5,9.46-9.31,19.73-8,31.41.85,8.1,3.45,14.33,10.29,17.29,5.64,2.45,11.35,1.85,17,.13,10.5-3.2,19.86-9.75,29.46-15.07,2.13-1.18,4.2-2.48,6.25-3.81s4.15-2.69,6.24-4A159.36,159.36,0,0,1,121.76,865l-10,7.08c-3.34,2.39-6.71,4.79-10,7.24-6.58,4.9-13.15,9.93-19.68,15.16-2.73,2.15-4.87,5.24-6.87,8.3-1.59,2.46-1.15,5,.89,7.29L85.77,921c3.2,3.55,6.29,7,9.19,10.09.51,2.52.4,4.41,1.17,5.39,4.57,5.81,9.68,11.11,14.25,17.05a173.06,173.06,0,0,0,33.54,33c8,5.91,15.47,5.81,23.76,1.63a105.54,105.54,0,0,0,22.07-15.06c2.89-2.52,5.74-5,8.65-7.48l8.83-7.32,8.83-7.17,4.43-3.53,4.52-3.5C219.53,939.52,214.7,935.53,210,931.31Zm-53,38a47.57,47.57,0,0,1-12.55,5.81c-6.19,1.89-11.58-1-16.23-5.34-4.93-4.52-9.29-9.57-14-14.33-2.2-2.24-1.93-4.13,0-6.26,2.3-2.56,4.6-5,7.07-7.38s5-4.59,7.58-6.71a104.37,104.37,0,0,1,16.36-11.08c5.18-2.78,11.52-3.23,17.4-4.12,8.81-1.31,17.22,1.26,25.51,3.68,5.55,1.63,10.92,3.89,17,6q-5.77,5.49-11.63,10.77-2.93,2.64-5.9,5.2c-2,1.72-3.89,3.41-5.87,5.07-3.94,3.34-7.95,6.57-12.07,9.69S161.3,966.46,157,969.34ZM128.7,855.79a230.21,230.21,0,0,1-20.84,11.15,15.69,15.69,0,0,1-9,1.43c-8.68-1.44-11.27-8-7.9-18.25a73.6,73.6,0,0,1,5.9-13,66.07,66.07,0,0,1,3.69-5.69,64.48,64.48,0,0,1,4.27-5.13A66.57,66.57,0,0,1,126,811a22.51,22.51,0,0,1,9.39-2c2.4,0,5.42,1,6.94,2.74l19.58,23.37c-3,1.76-5.87,3.52-8.7,5.27l-8.27,5.23C139.48,849.06,134.13,852.47,128.7,855.79Z"/><path class="cls-1" d="M204.64,1148.9c2.9,2,6,3.84,8.66,6,8.49,6.88,18.26,9.2,28.82,9.53a45.84,45.84,0,0,0,26.77-7.18,55.15,55.15,0,0,0,5.38-3.88c1.74-1.41,3.42-2.93,5-4.53a96.84,96.84,0,0,0,9.12-10.52,39.52,39.52,0,0,0,4.36-7.25,41.77,41.77,0,0,0,2.67-7.56,41.13,41.13,0,0,0,1.07-7.8,62.89,62.89,0,0,0-.3-8,26.84,26.84,0,0,0-2.58-9.17,28.6,28.6,0,0,0-5.8-7.9c-5.08-4.89-10.63-9.54-16.27-14.12-1.48-1.23-4.07-1.42-6.22-1.82a35.87,35.87,0,0,0-18.86,1.28,42.07,42.07,0,0,0-15.64,10.21c-5.28,5.28-10.58,10.66-15.72,16.28-2.59,2.81-5,5.66-7.42,8.58s-4.73,5.93-7,9A620,620,0,0,0,152.05,1200c-1.41,2.72-2.9,5.43-4.34,8.08s-3,5.27-4.52,7.83a115.38,115.38,0,0,1-10.53,14.66c-5.57,6.52-12.42,10.1-20.56,6.77-7.7-3.16-14.86-8-20-16.6-3.42-5.92-6.66-12-9.6-18.21-1.49-3.11-2.77-6.3-4-9.53s-2.36-6.51-3.38-9.85c-.74-2.44-1.46-4.9-2.09-7.38s-1.18-5-1.72-7.49c-1.09-5-2.09-10-3.11-15.07-.88-4.81,1.87-7.23,5.72-5.29,2.08,1,3.9,2.77,5.93,4.1,6.06,4,12.18,7.76,18.14,11.76,2.41,1.62,4.78,3.32,7.13,5s4.78,3.4,7.18,5.06l-.7,1.61c-5-2.24-10.09-4.49-15-6.87-6.92-3.32-10.5-1.49-14.22,5.62-2.91,5.71-1.89,11,.18,16.78a37.2,37.2,0,0,1,2,8.15c.57,4.27,3.6,9.46,7.38,13.5s8.31,6.92,11.93,6.68a14.22,14.22,0,0,0,8.38-3.78c7.88-7.38,12.78-17.33,17.85-27,2.93-5.49,6-10.92,9-16.28s6.05-10.62,9.28-15.88c6.41-10.51,12.7-20.73,19.39-30.87q4.82-7.39,9.92-14.39t10.79-13.62c3.71-4.41,7.42-8.67,11.4-12.81s8-8.17,12.17-12a55.92,55.92,0,0,1,10.83-8.12,39.73,39.73,0,0,1,12.69-4.54c8.87-1.52,17.12.49,24.91,4.74a165.26,165.26,0,0,1,16,10.16c5.11,3.59,10.18,7.29,15.17,10.88,7.57,5.5,15.55,10.84,20.57,18.46a31.72,31.72,0,0,1,4.57,10.61,37.81,37.81,0,0,1,.53,11.54,40,40,0,0,1-2.62,11.3,49.17,49.17,0,0,1-5.41,9.92c-4.34,6.22-10.25,11.74-17,16.92-2.95,2.25-5.89,5-9.29,6.18a115,115,0,0,1-18.67,4.63c-9.62,1.64-18.77-1.23-27.84-3.89-4.19-1.23-8-4-11.81-6.42-6.22-4-12.36-8.25-18.53-12.6a16.21,16.21,0,0,1-2.3-2.44Z"/><path class="cls-1" d="M185.69,1016.65q7,4.8,13.91,9.44t14.14,9.09q7.06,4.47,14.12,8.76t14.33,8.39l-.32.75c-1-.3-2-.55-2.91-.9-4.26-1.57-8.53-3.2-12.79-4.85-7.76-3-14.38-1.28-19.85,4.75-12,13.13-23.67,26.72-34.72,41.22-13,17.18-25,35.58-36.84,54.25-4,6.33-8.47,12.69-15.85,15-1.2.37-2.72.82-3.75.29q-8.34-4.29-16.67-8.88l-8.34-4.64c-2.77-1.57-5.48-3.17-8.23-4.78-.42-.25-.66-1-.58-2.12L92.28,1149c3.94,2.4,8.85,2.13,11.89-1.31,3.57-4,7.35-8.14,10.29-12.76q4.83-7.48,9.65-15c3.29-5,6.62-9.9,9.94-14.77l5-7.26,2.51-3.59,2.59-3.58q5.21-7.12,10.49-14c5.09-6.69,10.62-13.21,16.09-19.52q4.13-4.74,8.3-9.34t8.6-9.09c6-6.25,8.32-6.45,17.55-5.32-3.94-2.85-8-5.59-12.06-8.33s-8.05-5.47-12.05-8.29-8-5.73-11.84-8.83a127,127,0,0,1-11-10l.58-1.08a29.51,29.51,0,0,1,3.23,1.47c9.61,5.85,15.28,5.55,23.91-1.64,12.64-10.6,25.43-21.13,38.35-30.84,7.83-5.79,15.79-11.1,25.61-13.19,8.53-1.82,16-.12,23,4.49,3.24,2.12,6.54,4.49,10.23,5.52,2.79.79,5.2,1.46,6.86,3.59l4.15,5.51-.92.7c-3.11-1.29-6.51-2.21-9.26-4-5.95-3.9-12.21-3.3-18.51-1.61-11.36,3.06-19.89,10.51-28.88,17.59-5.28,4.19-10.44,8.48-15.72,12.79L205,1010.28C198.5,1015.53,196.19,1017.44,185.69,1016.65Z"/><path class="cls-1" d="M340.94,541.47c-2-6.17-3.62-12.59-5.47-18.8-4.62-15.28-15.65-25.83-27.53-35.11-11.62-9.15-25.84-11-41.15-8.16-7.63,1.46-15.26,3.1-23,4.78-1.84-9.32-2.66-10.73,9.12-13.86a36.11,36.11,0,0,1,3.73-.57c9.91-1.46,19.68-2.73,29.46-4,9.36-1.16,18.62-2.26,27.81-3.23s18.5-1.62,27.62-2.12c6.48-.36,13.05-.54,19.5-.7l9.67-.18,4.8,0,4.85,0c12.91.12,25.53.39,38.24,1.17,8.33.48,16.47,1.47,24.05,5.5a23.85,23.85,0,0,1,7.76,6,15.94,15.94,0,0,1,3.31,9.33,20.66,20.66,0,0,0,5.76,12.74c-.2-3.84.12-6.9-.56-9.8-1.72-7.41-3.75-14.73-5.53-22.22-2.67-11.31-9.76-18.64-20.77-21.68a98.21,98.21,0,0,0-19.57-3.08c-9.77-.62-19.52-.9-29.47-1.08-5-.1-9.88-.06-14.86,0s-10,.13-15,.25c-2.72.06-3.87-.48-4-3.67q-.45-10.77-.89-21.51t-.69-21.63c-.31-8.69-3.09-16.19-12.61-17.52a103.09,103.09,0,0,0-22.14-1.08,72.54,72.54,0,0,0-9.92,1.45,86,86,0,0,0-9.74,2.79,94.57,94.57,0,0,0-18.89,9,80.2,80.2,0,0,0-13,9.65,44,44,0,0,0-9.61,13.55c-3.37,7.37-4.06,14.19.32,20.11,3.66,4.94,8.91,7.27,14.68,8.62a76.39,76.39,0,0,0,16.36,1.65c5.56.09,11.15-.1,16.66,0,4.88.1,9.8-.36,14.67-.53a138.47,138.47,0,0,1-17.33,2.37L285.36,441l-12.2,1.32q-6.12.71-12.29,1.5c-4.13.53-8.25,1.11-12.32,1.78a36,36,0,0,0-10.11,3.74c-2.61,1.33-3.51,3.74-2.9,6.73,2,9.64,4,19.32,5.86,27.6-.82,2.42-1.89,4-1.69,5.24,1.16,7.38,2.87,14.47,3.83,21.88q.39,3,.87,5.91c.35,2,.72,3.94,1.13,5.89q1.22,5.83,2.79,11.52c1,3.78,2.21,7.51,3.48,11.18s2.76,7.34,4.31,10.92c3.93,9.09,10.43,12.74,19.73,13.29a107.26,107.26,0,0,0,26.62-2c7.56-1.45,15-2.86,22.51-4.09s15-2.34,22.52-3.39C345,553.29,342.88,547.46,340.94,541.47Zm-64.89,6.43a48.23,48.23,0,0,1-13.82-1.28c-6.32-1.47-9.5-6.68-11.34-12.72-1.91-6.32-3.35-13-5-19.43-.78-3,.41-4.53,3.14-5.41a134.15,134.15,0,0,1,19.69-4.88,104.78,104.78,0,0,1,19.77-1.37c5.86.17,11.55,2.93,17.07,5.1,8.25,3.25,14.28,9.69,20.28,15.95,4,4.2,7.56,8.86,11.71,13.7Q329.78,539.41,322,541c-5.09,1.12-10.17,2.15-15.28,3.05s-10.23,1.67-15.34,2.32S281.21,547.57,276.05,547.9Zm32.18-112.48a222.46,222.46,0,0,1-23.65-.77,15.89,15.89,0,0,1-8.54-3.27c-6.81-5.6-5.74-12.47,2.3-19.72a57.5,57.5,0,0,1,5.69-4.57Q287,405,290,403.31a63.77,63.77,0,0,1,12.26-5.42,67.79,67.79,0,0,1,26-2.6,21.89,21.89,0,0,1,9.13,2.91c2.07,1.22,4.21,3.53,4.65,5.83,2,10,3.46,20.06,5.3,30-6.89.09-13.44.39-19.92.64Z"/><path class="cls-1" d="M227.23,727.12c1.47,3.2,3.1,6.26,4.39,9.55,3.94,10.22,11.3,17.15,20.17,22.7a47.35,47.35,0,0,0,13.42,5.82,46.76,46.76,0,0,0,13.35,1.39c8.89-.33,17.69-2.92,26.37-6.59a39.44,39.44,0,0,0,13.54-9.25,43.23,43.23,0,0,0,4.79-6.22,48.81,48.81,0,0,0,3.81-7,28,28,0,0,0,2.3-9.25,26,26,0,0,0-1-9.71c-1-3.4-2.14-6.82-3.32-10.22s-2.37-6.77-3.64-10.16c-.68-1.8-2.83-3.27-4.5-4.7-10.59-9.12-22.79-10.72-35.62-7.37-7.32,1.87-14.52,3.9-21.74,6.2a198.17,198.17,0,0,0-21.33,8c-28,12.38-55.32,27.54-82.17,44.72-10.43,6.58-20.69,12.74-32.1,16.79-8.08,2.87-15.8,2.54-21.18-4.43a45,45,0,0,1-6.38-10.94,35.85,35.85,0,0,1-2.62-13.51c0-6.86.13-13.76.78-20.62a173.11,173.11,0,0,1,3.3-20.52c1.22-5,2.67-9.87,4.21-14.77l2.36-7.33q1.29-3.63,2.57-7.26c1.63-4.61,5.2-5.34,7.58-1.72,1.28,2,2,4.37,3.09,6.53,1.58,3.24,3.19,6.43,4.83,9.63s3.33,6.41,4.92,9.64c2.58,5.24,4.84,10.65,7.27,15.91l-1.42,1c-3.19-4.45-6.34-8.91-9.46-13.46-4.35-6.36-8.35-6.56-15.1-2.27a16.08,16.08,0,0,0-5.83,6.33,30.17,30.17,0,0,0-2.49,8.29,35.78,35.78,0,0,1-2.32,8.08c-1.77,3.94-1.69,10-.42,15.39s3.77,10.18,7,11.79a14.34,14.34,0,0,0,9.16.93,60.46,60.46,0,0,0,14.93-6c4.76-2.58,9.32-5.6,14.05-8.49q8-4.92,15.9-9.59l4-2.33,4-2.27,8-4.48,8-4.39c2.66-1.45,5.32-2.88,8.05-4.28L207,688.39c5.17-2.69,10.54-5.14,15.87-7.45s10.69-4.43,16.06-6.41a298.14,298.14,0,0,1,32.88-9.67c9.12-2.07,18.05-2.37,26.76.87,8.44,3.13,14.64,9,19.14,16.58,3.23,5.47,6.13,11.15,8.76,16.82q2,4.26,3.82,8.52l1.85,4.24,1.93,4.25c4,8.62,7.87,17.13,8.58,26.3a30.66,30.66,0,0,1-1.43,11.44,35.38,35.38,0,0,1-5.28,10.26,44.15,44.15,0,0,1-7.94,8.43,45.11,45.11,0,0,1-9.66,5.86c-6.93,3.17-14.72,5-23.16,6.09-3.67.48-7.57,1.37-11.11.7a113.47,113.47,0,0,1-18.48-5.35c-9.15-3.4-15.66-10.47-22.2-17.32a27,27,0,0,1-3.86-5.43c-1.08-2-2-4-3.08-6-3.4-6.57-6.67-13.36-9.78-20.2a16.34,16.34,0,0,1-.72-3.25Z"/><path class="cls-1" d="M277.09,603.16c4.82,10.2,9.89,20.27,15,30.1s10.58,19.61,16,29.11l-.65.49c-.7-.75-1.42-1.46-2.06-2.24Q301,655.39,296.79,650c-5.16-6.49-11.78-8.31-19.58-5.86-16.91,5.37-33.94,11.23-50.68,18.26l-7.48,3.18c-2.49,1.09-4.92,2.21-7.39,3.34q-7.38,3.4-14.79,7c-5,2.37-9.8,4.86-14.72,7.35l-14.78,7.56c-6.64,3.47-13.63,6.76-21.16,5-1.21-.28-2.76-.66-3.38-1.63-3.4-5.27-6.78-10.65-10-16.08s-6.4-10.9-9.55-16.44c-.25-.43-.11-1.16.54-2.13q3.09,5.61,6.18,11.24c2.17,4,6.54,6.27,10.93,4.83a100.43,100.43,0,0,0,15.26-5.89c5.25-2.77,10.63-5.46,16-8.12s10.62-5.28,15.9-7.84,10.72-5,16.05-7.37,10.64-4.71,16.08-6.87c7.91-3.17,15.73-6.14,23.68-8.83s15.94-5.16,23.85-7.48c8.38-2.37,10.47-1.38,17.88,4.21C281.64,618.64,277.1,609.9,273,601a169,169,0,0,1-10.35-27.69l1.05-.63a26.38,26.38,0,0,1,2.05,2.88c2.69,4.93,5.35,8.07,8.66,9.71s7.28,1.77,12.86.85L311.68,582c8.1-1.29,16.26-2.42,24.3-3.39,9.54-1.17,19.22-1.71,28.76,1.38a29,29,0,0,1,17.68,15.4c1.74,3.46,3.37,7.14,6.06,9.89,2,2.09,3.79,3.88,4.2,6.58.35,2.3.55,4.58.83,6.86l-1.16.14c-2-2.66-4.51-5.17-6-8.08-3.22-6.37-8.95-9-15.22-10.66a52.24,52.24,0,0,0-17-1.38c-2.82.18-5.64.5-8.47.88L337.32,601c-6.65,1-13.34,2.09-20.09,3.16s-13.37,2.24-20.15,3.25C288.75,608.62,285.77,609.11,277.09,603.16Z"/><path class="cls-1" d="M649.08,269.27c1.4-6.3,3.25-12.56,4.72-18.94a56.6,56.6,0,0,0,.37-22.72,110.5,110.5,0,0,0-6.56-21.47,43.44,43.44,0,0,0-12.33-17.09,59.74,59.74,0,0,0-19.17-10.58c-7.34-2.57-14.84-5.14-22.31-7.44,3-9.09,3.08-10.62,14.87-7.36a36.3,36.3,0,0,1,3.51,1.35c4.64,1.82,9.21,3.64,13.8,5.56l13.7,5.78,12.89,5.46c4.27,1.85,8.56,3.79,12.78,5.71s8.43,3.87,12.58,5.85c2.08,1,4.14,2,6.2,3l6.17,3.14c11.62,6,22.91,12.12,34,18.7q8.31,4.88,16.42,9.85t16.09,10.3a88.26,88.26,0,0,1,9.93,7.36,43.55,43.55,0,0,1,8.15,9.47c3.79,6.07,5.45,11.93,1.86,18.78-1.89,3.69-2.59,8.4-1.41,13.93,1.76-3.43,3.56-6,4.45-8.76,2.25-7.21,4.14-14.64,6.37-22,3.36-11.15.88-21-7.13-29.16a98.79,98.79,0,0,0-15.4-12.43c-8.17-5.52-16.45-10.58-25-15.7-4.24-2.52-8.56-5.1-12.87-7.52s-8.67-4.84-13.06-7.24c-2.38-1.3-3.11-2.34-1.63-5.19q2.49-4.77,5-9.54l2.51-4.79,2.54-4.72q5.12-9.59,10.21-19.11c2-3.88,3.41-7.67,3.31-11.34s-1.65-7.12-5.45-10.12a99.39,99.39,0,0,0-18.59-12,77.76,77.76,0,0,0-9.3-3.73c-1.6-.52-3.22-1-4.86-1.43s-3.29-.77-5-1.08a105.76,105.76,0,0,0-20.86-1.71,79,79,0,0,0-16,1.92,47.89,47.89,0,0,0-7.78,2.57,40.62,40.62,0,0,0-7.34,4.28c-6.56,4.81-10.66,10.17-9.84,17.5.7,6.13,4.05,10.74,8.38,14.84,8,7.57,18.34,12.33,27.73,18,4.15,2.47,8.68,4.65,13,7-2.82-.95-5.56-2-8.25-3.17s-5.32-2.3-7.94-3.53q-11.07-5.15-22.39-10.21-11.28-4.87-22.91-9.45a34.45,34.45,0,0,0-10.65-1.88c-2.91-.14-4.89,1.52-5.85,4.44-3.09,9.38-6.3,18.56-8.8,26.79-1.92,1.7-3.61,2.56-4.07,3.73-2.71,6.94-4.86,13.81-7.69,20.81a180.79,180.79,0,0,0-7.58,22.53,183.83,183.83,0,0,0-4.33,23.07c-1.18,9.79,2.62,16.22,10.41,21.38a102.64,102.64,0,0,0,24,11.59c7.24,2.49,14.46,5.16,21.55,7.81,3.56,1.34,7.08,2.66,10.61,4.06l10.58,4.31C646.71,281.64,647.75,275.42,649.08,269.27Zm-59.37-27a49,49,0,0,1-11.3-8c-4.71-4.41-4.89-10.58-3.46-16.74,1.53-6.42,3.69-12.78,5.47-19.26.83-3,2.6-3.75,5.4-3.17a140.72,140.72,0,0,1,19.53,5.72,99.14,99.14,0,0,1,17.77,8.69c5,3.12,8.54,8.37,12.23,13,5.53,7,7.5,15.55,9.53,24,1.36,5.63,2.08,11.42,3.24,17.66-10.22-3.08-20.15-6.19-29.93-9.84A255.75,255.75,0,0,1,589.71,242.3ZM674,161.17c-7-3.84-13.55-8.07-20-12.51a15.71,15.71,0,0,1-5.74-7.1c-1.54-4.14-1.23-7.56.79-10.24s5.74-4.69,11.07-5.69c9.78-1.9,18.94-1.94,27.56.1A65.35,65.35,0,0,1,700,129.91a66.36,66.36,0,0,1,11.38,6.58,22.33,22.33,0,0,1,6.45,7.12c1.17,2.09,1.87,5.17,1.1,7.38-.83,2.39-1.7,4.76-2.57,7.12l-2.64,7.18c-1.77,4.78-3.55,9.54-5.25,14.34q-4.5-2.53-8.9-4.92c-2.93-1.6-5.8-3.07-8.67-4.57C685.2,167.15,679.58,164.22,674,161.17Z"/><path class="cls-1" d="M457.79,373.08c-.34,3.49-.37,7.07-.93,10.52C455.15,394.4,458,404,463,413.32a46,46,0,0,0,19.6,19.6c7.79,4.09,16.79,6.32,26.14,7.48a39.34,39.34,0,0,0,8.44.17,37,37,0,0,0,7.89-1.44,47.69,47.69,0,0,0,14-7.17,27.48,27.48,0,0,0,10.61-15.76c.84-3.43,1.57-6.93,2.24-10.47s1.26-7.12,1.88-10.65c.32-1.89-.81-4.24-1.53-6.3-4.6-13.16-14.38-20.67-27.2-24.23-7.19-1.94-14.49-3.83-21.9-5.47a193.89,193.89,0,0,0-22.45-3.72,611.11,611.11,0,0,0-93.55-2.3c-6.18.24-12.19.47-18.22.3a115.77,115.77,0,0,1-18-1.77,23.58,23.58,0,0,1-10.77-4.49,15,15,0,0,1-5.38-9.92c-1.11-8.26-.45-16.88,4.41-25.7,3.42-5.93,7.06-11.77,11-17.44,1.95-2.86,4.1-5.55,6.28-8.25s4.47-5.31,6.86-7.87c3.45-3.77,7.21-7.26,11-10.73S382,260.3,385.94,257c3.74-3.16,7.2-2,7.44,2.31.13,2.33-.43,4.8-.61,7.19-.48,7.21-.66,14.44-1.15,21.6-.39,5.82-1.19,11.58-1.63,17.44l-1.75.2-.82-8.23c-.26-2.74-.47-5.46-.69-8.2-.58-7.67-4-9.85-12-9.52-6.46.29-10.49,3.86-14.49,8.55a37.13,37.13,0,0,1-6.07,5.82c-3.43,2.62-6.42,7.85-8,13.16s-1.85,10.67.17,13.69a14.15,14.15,0,0,0,7.46,5.36c10.33,3.12,21.42,2.39,32.33,1.94,25-.77,49.3-.21,73.46,1.16a281.94,281.94,0,0,1,67.89,12A54.74,54.74,0,0,1,540,346.83a40,40,0,0,1,10.25,8.74c5.75,6.94,8.13,15.11,8.27,23.91a167,167,0,0,1-.8,18.95c-.62,6.14-1.25,12.35-1.88,18.54-.45,4.69-.89,9.38-1.72,13.91a47,47,0,0,1-4,13.12,29.78,29.78,0,0,1-3.11,5,28.32,28.32,0,0,1-3.8,4.22,35.84,35.84,0,0,1-9.73,6.2A42.17,42.17,0,0,1,511.11,463c-7.54-.66-15.27-3-23.12-6.29-3.43-1.43-7.27-2.62-10-5a113.64,113.64,0,0,1-13.35-13.86c-6.24-7.51-8.32-16.86-10.55-26-1-4.24-.51-8.94-.34-13.43.34-7.38,1-14.83,1.64-22.35a15.77,15.77,0,0,1,1-3.21Z"/><path class="cls-1" d="M563,290.71q-2.81,33.72-2.78,66.77l-.8.1c-.23-1-.51-2-.68-3-.76-4.48-1.51-9-2.17-13.51-1.2-8.16-6.06-13.11-14-14.85-8.63-1.87-17.39-3.69-26.26-5.36s-17.71-3-26.77-4.18c-5.35-.69-10.69-1.22-16.1-1.74s-10.89-1-16.33-1.36l-16.42-1c-5.5-.3-11.07-.62-16.56-.81-7.49-.31-15.22-1-20.88-6.24-.91-.85-2.06-1.95-2.12-3.1-.58-12.5-.86-25.28-.7-38,0-.48.49-1,1.55-1.56l-.3,12.79c-.15,4.58,2.54,8.71,7.05,9.65A102,102,0,0,0,424.88,288c23.84,1,47.56,2.67,70.5,5.75,8.42,1.19,16.76,2.65,25,4.24,2.06.4,4.09.79,6.14,1.23l6.14,1.37q6.1,1.4,12.14,2.88c8.4,2.08,9.71,4,13.34,12.55,2-19.31,1.91-39.07,7.32-58.33l1.22,0a28.26,28.26,0,0,1,.34,3.54c-.27,11.28,2.81,16,13.33,19.91,7.72,2.8,15.52,5.76,23.17,8.7s15.2,5.92,22.7,9.22c8.91,3.89,17.45,8.09,24.16,15.57,5.86,6.54,8,13.77,7.6,22.22-.22,3.88-.62,7.94.32,11.66.72,2.81,1.33,5.24.32,7.76-.86,2.13-1.83,4.19-2.75,6.28l-1.07-.46c-.42-3.32-1.31-6.71-1.11-9.95.42-7.09-3.23-12.24-7.83-16.84a51.38,51.38,0,0,0-14-9.73c-5-2.47-10.36-4.44-15.66-6.55l-9.46-3.72-9.48-3.57c-6.34-2.4-12.73-4.82-19.12-7.37C570.3,301.24,567.51,300.22,563,290.71Z"/></g><g id="texts"><path class="cls-1" d="M799.22,98.84q17.63-4.07,32.35-1.08a62.24,62.24,0,0,1,26.88,12.77L847.4,131.44q-10.39-8.32-21-10.93a49.6,49.6,0,0,0-23.14.3,37.71,37.71,0,0,0-13.12,5.3,17.16,17.16,0,0,0-6.52,7.49A13.69,13.69,0,0,0,783,142a11.69,11.69,0,0,0,6.17,8q5,2.69,15.48,2.72l25.35-.08q20.19-.14,30.48,6.46t13.42,20.11q2.94,12.74-1.61,23.38t-15.4,18.2q-10.83,7.56-26.3,11.14a92,92,0,0,1-25.52,2.49,77,77,0,0,1-22.14-4.27,61.27,61.27,0,0,1-17.72-9.73l11.07-21.74A51.56,51.56,0,0,0,790,207.21a55.86,55.86,0,0,0,17,4.23,57.71,57.71,0,0,0,18.57-1.3,44.6,44.6,0,0,0,13.18-5,18.42,18.42,0,0,0,7.2-7.23,13,13,0,0,0,.92-9,12.57,12.57,0,0,0-5.44-7.92q-4.27-2.83-13.92-2.67l-27.6.19a82.53,82.53,0,0,1-21.14-2.64,30.49,30.49,0,0,1-23-24.08,37,37,0,0,1,1.47-22.21q4.14-10.65,14.74-18.78T799.22,98.84Z"/><path class="cls-1" d="M893.4,216.72,882,72.66l27.45-2.18,4.84,60.91A32.58,32.58,0,0,1,926.33,116,38.45,38.45,0,0,1,945,109.79a41.54,41.54,0,0,1,18.86,2.53,30.07,30.07,0,0,1,13.78,11.11q5.36,7.74,6.33,20l5.22,65.72-27.45,2.18-4.59-57.7q-1-13-6.43-17.54a17.61,17.61,0,0,0-13.21-3.89,24.35,24.35,0,0,0-10.91,3.59,20.37,20.37,0,0,0-7.91,9.5q-2.83,6.38-2,16.39l4.2,52.9Z"/><path class="cls-1" d="M1057.25,109.63q15.26.93,26.41,7.86a44.68,44.68,0,0,1,17,19q5.81,12,4.81,28.49-1,16.24-8.23,27.59A44.5,44.5,0,0,1,1078,209.37q-11.91,5.52-27.16,4.59-15-.93-26.3-7.85A44.3,44.3,0,0,1,1007.52,187q-5.81-12.14-4.81-28.39,1-16.44,8.23-27.68a44.55,44.55,0,0,1,19.25-16.75Q1042.21,108.72,1057.25,109.63ZM1056,130.09a23,23,0,0,0-13.15,2.72,22,22,0,0,0-8.77,10q-3.24,6.85-3.89,17.48t1.73,17.83a22,22,0,0,0,7.48,11,23,23,0,0,0,12.73,4.3,22.66,22.66,0,0,0,12.95-2.73,21.9,21.9,0,0,0,8.77-10q3.24-6.84,3.89-17.48T1076,145.41a22,22,0,0,0-7.48-11A22.76,22.76,0,0,0,1056,130.09Z"/><path class="cls-1" d="M1104.29,258l28.94-139.74,24.21,5L1152.73,155l-2.61-4.24a40.33,40.33,0,0,1,9.77-14,35,35,0,0,1,14.48-8,36.81,36.81,0,0,1,17.53-.37,39.48,39.48,0,0,1,20.19,10.54,42.31,42.31,0,0,1,11.25,20.5q3.08,12.43-.27,28.58t-11.24,26.51a42.47,42.47,0,0,1-18.71,14.5,40.28,40.28,0,0,1-23,1.59q-13-2.68-20-11.74a37.49,37.49,0,0,1-7.92-20.73l3.41-3.61-14.31,69.09Zm62.23-49.71q10.82,2.23,18.64-4.25t10.9-21.45q3.11-15-1.29-24t-15.22-11.26a21,21,0,0,0-12.86,1.14,24.55,24.55,0,0,0-10.33,8.74,42,42,0,0,0-6.35,15.82,44.81,44.81,0,0,0-.61,16.81,23.08,23.08,0,0,0,5.77,12.28A21.05,21.05,0,0,0,1166.52,208.3Z"/><path class="cls-1" d="M799.22,98.84q17.63-4.07,32.35-1.08a62.24,62.24,0,0,1,26.88,12.77L847.4,131.44q-10.39-8.32-21-10.93a49.6,49.6,0,0,0-23.14.3,37.71,37.71,0,0,0-13.12,5.3,17.16,17.16,0,0,0-6.52,7.49A13.69,13.69,0,0,0,783,142a11.69,11.69,0,0,0,6.17,8q5,2.69,15.48,2.72l25.35-.08q20.19-.14,30.48,6.46t13.42,20.11q2.94,12.74-1.61,23.38t-15.4,18.2q-10.83,7.56-26.3,11.14a92,92,0,0,1-25.52,2.49,77,77,0,0,1-22.14-4.27,61.27,61.27,0,0,1-17.72-9.73l11.07-21.74A51.56,51.56,0,0,0,790,207.21a55.86,55.86,0,0,0,17,4.23,57.71,57.71,0,0,0,18.57-1.3,44.6,44.6,0,0,0,13.18-5,18.42,18.42,0,0,0,7.2-7.23,13,13,0,0,0,.92-9,12.57,12.57,0,0,0-5.44-7.92q-4.27-2.83-13.92-2.67l-27.6.19a82.53,82.53,0,0,1-21.14-2.64,30.49,30.49,0,0,1-23-24.08,37,37,0,0,1,1.47-22.21q4.14-10.65,14.74-18.78T799.22,98.84Z"/><path class="cls-1" d="M893.4,216.72,882,72.66l27.45-2.18,4.84,60.91A32.58,32.58,0,0,1,926.33,116,38.45,38.45,0,0,1,945,109.79a41.54,41.54,0,0,1,18.86,2.53,30.07,30.07,0,0,1,13.78,11.11q5.36,7.74,6.33,20l5.22,65.72-27.45,2.18-4.59-57.7q-1-13-6.43-17.54a17.61,17.61,0,0,0-13.21-3.89,24.35,24.35,0,0,0-10.91,3.59,20.37,20.37,0,0,0-7.91,9.5q-2.83,6.38-2,16.39l4.2,52.9Z"/><path class="cls-1" d="M1057.25,109.63q15.26.93,26.41,7.86a44.68,44.68,0,0,1,17,19q5.81,12,4.81,28.49-1,16.24-8.23,27.59A44.5,44.5,0,0,1,1078,209.37q-11.91,5.52-27.16,4.59-15-.93-26.3-7.85A44.3,44.3,0,0,1,1007.52,187q-5.81-12.14-4.81-28.39,1-16.44,8.23-27.68a44.55,44.55,0,0,1,19.25-16.75Q1042.21,108.72,1057.25,109.63ZM1056,130.09a23,23,0,0,0-13.15,2.72,22,22,0,0,0-8.77,10q-3.24,6.85-3.89,17.48t1.73,17.83a22,22,0,0,0,7.48,11,23,23,0,0,0,12.73,4.3,22.66,22.66,0,0,0,12.95-2.73,21.9,21.9,0,0,0,8.77-10q3.24-6.84,3.89-17.48T1076,145.41a22,22,0,0,0-7.48-11A22.76,22.76,0,0,0,1056,130.09Z"/><path class="cls-1" d="M1104.29,258l28.94-139.74,24.21,5L1152.73,155l-2.61-4.24a40.33,40.33,0,0,1,9.77-14,35,35,0,0,1,14.48-8,36.81,36.81,0,0,1,17.53-.37,39.48,39.48,0,0,1,20.19,10.54,42.31,42.31,0,0,1,11.25,20.5q3.08,12.43-.27,28.58t-11.24,26.51a42.47,42.47,0,0,1-18.71,14.5,40.28,40.28,0,0,1-23,1.59q-13-2.68-20-11.74a37.49,37.49,0,0,1-7.92-20.73l3.41-3.61-14.31,69.09Zm62.23-49.71q10.82,2.23,18.64-4.25t10.9-21.45q3.11-15-1.29-24t-15.22-11.26a21,21,0,0,0-12.86,1.14,24.55,24.55,0,0,0-10.33,8.74,42,42,0,0,0-6.35,15.82,44.81,44.81,0,0,0-.61,16.81,23.08,23.08,0,0,0,5.77,12.28A21.05,21.05,0,0,0,1166.52,208.3Z"/><path class="cls-1" d="M341.42,1597.82q-12.33-13.23-17.11-27.47a62.3,62.3,0,0,1-2.38-29.66l23.64-.89q-2,13.15,1,23.64a49.43,49.43,0,0,0,11.82,19.9,38,38,0,0,0,11.15,8.7q5.39,2.54,9.74,1.9a13.73,13.73,0,0,0,7.6-3.64,11.73,11.73,0,0,0,3.8-9.33q-.15-5.62-5.38-14.76l-12.75-21.92q-10.21-17.41-9.64-29.63t10.7-21.67q9.56-8.91,21.05-10.29t23.46,4.23q12,5.6,22.8,17.21A91.74,91.74,0,0,1,455.87,1525a76.85,76.85,0,0,1,7.37,21.3,61,61,0,0,1,.43,20.21l-24.36,1.29a51.4,51.4,0,0,0,.56-16.2,55.53,55.53,0,0,0-4.82-16.8,57.74,57.74,0,0,0-10.41-15.44,44.57,44.57,0,0,0-10.93-8.91,18.39,18.39,0,0,0-9.86-2.62,13,13,0,0,0-8.24,3.7,12.6,12.6,0,0,0-4.14,8.67q-.32,5.11,4.66,13.39l14,23.81a82.69,82.69,0,0,1,8.28,19.62,30.5,30.5,0,0,1-9.36,32,36.91,36.91,0,0,1-20,9.83q-11.3,1.76-23.64-3.37T341.42,1597.82Z"/><path class="cls-1" d="M396.42,1457.32l-119,81.94-15.62-22.68,50.33-34.65a32.6,32.6,0,0,1-19.36-2.77A38.42,38.42,0,0,1,278,1466.1a41.4,41.4,0,0,1-7.23-17.59,29.94,29.94,0,0,1,2.72-17.49q4-8.51,14.12-15.46l54.31-37.38,15.61,22.68-47.68,32.82q-10.75,7.41-12,14.34a17.64,17.64,0,0,0,3.24,13.39,24.28,24.28,0,0,0,8.56,7.65,20.5,20.5,0,0,0,12.19,2.11q6.93-.75,15.2-6.45l43.71-30.08Z"/><path class="cls-1" d="M221.75,1369q-6.81-13.68-6.4-26.8a44.71,44.71,0,0,1,7.94-24.17q7.52-11,22.26-18.4,14.58-7.27,28-6.67a44.53,44.53,0,0,1,24.17,8.16q10.74,7.56,17.56,21.23,6.72,13.5,6.35,26.71a44.36,44.36,0,0,1-8,24.3q-7.61,11.1-22.18,18.36-14.75,7.35-28.1,6.71a44.52,44.52,0,0,1-24.13-8.29Q228.48,1382.46,221.75,1369Zm18.35-9.15a23,23,0,0,0,8.93,10,21.9,21.9,0,0,0,13.08,2.57q7.54-.62,17.08-5.37t14.57-10.41a21.92,21.92,0,0,0,5.82-12,23.06,23.06,0,0,0-2.64-13.17,22.61,22.61,0,0,0-8.85-9.85A22,22,0,0,0,275,1319q-7.56.63-17.09,5.38t-14.57,10.41a21.9,21.9,0,0,0-5.81,12A22.63,22.63,0,0,0,240.1,1359.82Z"/><path class="cls-1" d="M326.74,1254l-135.5,44.81-7.76-23.48,29.77-11.75-2.36,4.38a40.16,40.16,0,0,1-17-1.47,34.86,34.86,0,0,1-14.15-8.55,36.87,36.87,0,0,1-9.09-15,39.6,39.6,0,0,1-1-22.76,42.37,42.37,0,0,1,12.12-20q9.24-8.88,24.89-14t28.58-3.53a42.57,42.57,0,0,1,21.91,8.95,40.44,40.44,0,0,1,12.89,19.13q4.16,12.6-.15,23.24a37.48,37.48,0,0,1-14,17.22l-4.82-1.16,67-22.15Zm-74.18-29q-3.47-10.5-13-14t-24,1.28q-14.5,4.79-20.12,13.11t-2.14,18.81a21.07,21.07,0,0,0,7.41,10.57,24.55,24.55,0,0,0,12.73,4.57,42,42,0,0,0,16.88-2.41,44.61,44.61,0,0,0,14.86-7.88,23,23,0,0,0,7.75-11.13A20.9,20.9,0,0,0,252.56,1225Z"/><path class="cls-1" d="M1868.48,1244.79q-5.28,17.31-15.24,28.56a62.15,62.15,0,0,1-24.49,16.89l-12.59-20q12.4-4.83,20-12.71a49.6,49.6,0,0,0,11.32-20.19,37.82,37.82,0,0,0,2-14q-.5-5.94-3.22-9.39a13.85,13.85,0,0,0-7-4.76,11.74,11.74,0,0,0-10,1.37q-4.79,3-10.09,12l-12.6,22q-10,17.55-20.84,23.16t-24.13,1.57q-12.49-3.82-19.43-13.09t-8.07-22.43q-1.12-13.17,3.51-28.35a91.78,91.78,0,0,1,10.6-23.35,76.78,76.78,0,0,1,14.76-17,61.07,61.07,0,0,1,17.29-10.48l13.3,20.45a51.55,51.55,0,0,0-14.31,7.61,56,56,0,0,0-12.14,12.58,57.39,57.39,0,0,0-8.16,16.74,44.43,44.43,0,0,0-2.26,13.92,18.44,18.44,0,0,0,2.67,9.85,12.94,12.94,0,0,0,7.31,5.28,12.6,12.6,0,0,0,9.59-.75q4.58-2.28,9.26-10.73l13.64-24a82.43,82.43,0,0,1,12.86-17,30.5,30.5,0,0,1,32.35-7.87,37,37,0,0,1,18.5,12.37q7.15,8.91,8.89,22.16T1868.48,1244.79Z"/><path class="cls-1" d="M1719.3,1267.42l130.49,62.12L1838,1354.4l-55.18-26.26a32.6,32.6,0,0,1,7.28,18.15,38.48,38.48,0,0,1-3.94,19.27,41.47,41.47,0,0,1-11.63,15.06A30,30,0,0,1,1758,1387q-9.37.77-20.45-4.5L1678,1354.17l11.83-24.87,52.27,24.89q11.79,5.61,18.4,3.19a17.6,17.6,0,0,0,10-9.5,24.22,24.22,0,0,0,2.34-11.24,20.36,20.36,0,0,0-4.27-11.6q-4.11-5.62-13.18-10l-47.91-22.81Z"/><path class="cls-1" d="M1730.12,1462.86q-8.43,12.73-20,18.94a44.71,44.71,0,0,1-24.9,5.21q-13.34-1-27.08-10.08-13.58-9-19.77-20.92a44.49,44.49,0,0,1-5-25q1.19-13.08,9.61-25.81,8.32-12.57,20-18.86a44.39,44.39,0,0,1,25-5.24q13.41,1.05,27,10,13.74,9.09,19.86,21a44.55,44.55,0,0,1,4.88,25Q1738.44,1450.29,1730.12,1462.86ZM1713,1451.55a23.07,23.07,0,0,0,4.22-12.76,22,22,0,0,0-4.31-12.61q-4.32-6.23-13.2-12.11t-16.3-7.41a21.85,21.85,0,0,0-13.29,1,23,23,0,0,0-10.09,8.87,22.59,22.59,0,0,0-4.11,12.59,21.92,21.92,0,0,0,4.3,12.61q4.32,6.22,13.2,12.11t16.3,7.41a22,22,0,0,0,13.3-1A22.73,22.73,0,0,0,1713,1451.55Z"/><path class="cls-1" d="M1578.1,1429.4l106.55,94.94-16.45,18.46-25.06-19.91,5-.14a40.27,40.27,0,0,1,7.23,15.45,34.82,34.82,0,0,1-.33,16.54,36.77,36.77,0,0,1-8.44,15.36,39.56,39.56,0,0,1-19.22,12.21,42.3,42.3,0,0,1-23.38-.5q-12.32-3.57-24.61-14.53t-17.35-23a42.5,42.5,0,0,1-3.2-23.44,40.38,40.38,0,0,1,10.13-20.73q8.82-9.9,20.19-11.49a37.54,37.54,0,0,1,21.91,3.51l1.42,4.76L1559.78,1450Zm11.94,78.76q-7.35,8.25-5.64,18.26t13.13,20.17q11.4,10.15,21.41,10.87t17.36-7.55a21.08,21.08,0,0,0,5.44-11.71,24.55,24.55,0,0,0-2.4-13.31,42.11,42.11,0,0,0-10.53-13.42,44.9,44.9,0,0,0-14.25-8.93,23.18,23.18,0,0,0-13.52-1.14A21,21,0,0,0,1590,1508.16Z"/></g></svg>